<svg width="52" height="52" viewBox="0 0 52 52" fill="none" xmlns="http://www.w3.org/2000/svg">
<path d="M26 1C12.1929 1 1 12.1929 1 26C1 39.807 12.1929 51 26 51C39.807 51 51 39.807 51 26C51 12.1929 39.807 1 26 1Z" stroke="white" stroke-width="1.90966" stroke-linecap="round" stroke-linejoin="round"/>
<path d="M6.67773 41.8645C6.67773 41.8645 12.2503 34.7502 26.0002 34.7502C39.7502 34.7502 45.323 41.8645 45.323 41.8645" stroke="white" stroke-width="1.90966" stroke-linecap="round" stroke-linejoin="round"/>
<path d="M26 25.9998C30.1423 25.9998 33.5 22.642 33.5 18.4998C33.5 14.3576 30.1423 10.9998 26 10.9998C21.8577 10.9998 18.5 14.3576 18.5 18.4998C18.5 22.642 21.8577 25.9998 26 25.9998Z" stroke="white" stroke-width="1.90966" stroke-linecap="round" stroke-linejoin="round"/>
</svg>
