<svg width="30" height="30" viewBox="0 0 30 30" fill="none" xmlns="http://www.w3.org/2000/svg">
<path d="M3.75 9.5C3.75 8.55719 3.75 8.08579 4.04289 7.79289C4.33579 7.5 4.80719 7.5 5.75 7.5H20.1796C20.7036 7.5 20.9656 7.5 21.1867 7.61833C21.4078 7.73665 21.5531 7.95463 21.8437 8.3906L25.5104 13.8906C25.8689 14.4283 26.0481 14.6972 26.0481 15C26.0481 15.3028 25.8689 15.5717 25.5104 16.1094L21.8437 21.6094C21.5531 22.0454 21.4078 22.2633 21.1867 22.3817C20.9656 22.5 20.7036 22.5 20.1796 22.5H5.75C4.80719 22.5 4.33579 22.5 4.04289 22.2071C3.75 21.9142 3.75 21.4428 3.75 20.5V9.5Z" stroke="white"/>
<circle cx="18.75" cy="15" r="1.25" fill="white" stroke="white"/>
</svg>
