<svg width="400" height="401" viewBox="0 0 400 401" fill="none" xmlns="http://www.w3.org/2000/svg">
<path d="M367.664 311.756C374.692 299.156 379.511 285.446 381.912 271.22C396.8 187.108 367.288 87.4757 282.88 51.9876C253.784 39.7556 220.384 37.9157 190.224 47.3477C156 58.0996 133.936 84.7717 106.4 106.012C86.9679 120.988 62.3999 128.3 44.5279 145.364C25.6559 163.372 13.5999 189.3 13.5119 215.484C13.4719 233.884 20.9119 251.828 35.9119 263.084C50.5919 274.108 69.2719 276.988 85.1919 285.612C102.912 295.212 113.576 312.012 127.76 325.66C160.488 357.212 209.504 366.98 253.536 365.5C296.744 364.044 344.8 351.82 367.664 311.756Z" fill="#4F3ED7"/>
<path opacity="0.7" d="M367.664 311.756C374.692 299.156 379.511 285.446 381.912 271.22C396.8 187.108 367.288 87.4757 282.88 51.9876C253.784 39.7556 220.384 37.9157 190.224 47.3477C156 58.0996 133.936 84.7717 106.4 106.012C86.9679 120.988 62.3999 128.3 44.5279 145.364C25.6559 163.372 13.5999 189.3 13.5119 215.484C13.4719 233.884 20.9119 251.828 35.9119 263.084C50.5919 274.108 69.2719 276.988 85.1919 285.612C102.912 295.212 113.576 312.012 127.76 325.66C160.488 357.212 209.504 366.98 253.536 365.5C296.744 364.044 344.8 351.82 367.664 311.756Z" fill="white"/>
<path d="M310.576 301.3C312.752 302.252 318.072 302.1 318.08 302.1C318.088 302.1 316.936 298.612 316.832 298.404C315.664 295.964 311.976 291.924 308.968 292.332C308.472 292.414 307.998 292.6 307.577 292.876C307.157 293.153 306.799 293.515 306.527 293.939C306.256 294.363 306.076 294.839 306.001 295.337C305.925 295.835 305.955 296.343 306.088 296.828C306.584 298.972 308.72 300.5 310.576 301.3Z" fill="#4F3ED7"/>
<path d="M312.416 316.74C314.672 317.076 319.424 315.692 319.8 315.588C320.583 318.315 321.545 320.987 322.68 323.588C323.336 325.1 324.04 326.604 324.768 328.1L323.88 326.828C322.104 324.78 317.48 321.868 314.688 323.052C314.229 323.26 313.819 323.563 313.485 323.94C313.151 324.317 312.9 324.761 312.749 325.242C312.598 325.723 312.55 326.23 312.609 326.731C312.667 327.232 312.831 327.714 313.088 328.148C314.12 330.028 316.584 330.956 318.592 331.244C320.6 331.532 324.696 330.444 325.792 330.148C326.08 330.716 326.352 331.292 326.64 331.86C328.016 334.604 329.4 337.332 330.68 340.044C331.128 341.004 331.536 341.964 331.944 342.924C331.56 342.356 331.232 341.884 331.144 341.82C329.368 339.772 324.744 336.852 321.952 338.044C321.494 338.253 321.085 338.556 320.752 338.934C320.418 339.311 320.168 339.755 320.017 340.235C319.866 340.716 319.818 341.223 319.876 341.723C319.934 342.223 320.096 342.706 320.352 343.14C321.384 345.012 323.856 345.94 325.856 346.236C327.856 346.532 331.56 345.54 332.84 345.188C333.232 346.18 333.64 347.18 333.96 348.156C334.176 348.836 334.432 349.468 334.608 350.156C334.784 350.844 334.984 351.508 335.168 352.172C335.48 353.468 335.808 354.804 336.08 356.076C336.272 356.956 336.448 357.804 336.616 358.652C336.184 357.7 335.288 355.844 335.192 355.692C333.752 353.404 329.592 349.82 326.68 350.564C326.196 350.702 325.746 350.941 325.36 351.264C324.974 351.588 324.66 351.989 324.439 352.441C324.218 352.894 324.094 353.388 324.077 353.892C324.059 354.395 324.148 354.897 324.336 355.364C325.072 357.38 327.376 358.668 329.304 359.26C331.44 359.908 336.152 359.316 336.744 359.26C337.024 360.668 337.288 362.044 337.544 363.34C338.048 366.212 338.432 368.78 338.72 370.956H340.704C340.36 368.708 339.904 366.02 339.312 363.012C339.024 361.58 338.696 360.06 338.344 358.492C339.767 357.926 341.153 357.274 342.496 356.54C344.048 358.228 348.024 360.196 348.536 360.444C347.992 361.772 347.456 363.06 346.936 364.268C345.832 366.804 344.792 369.068 343.872 370.956H346.016C346.816 369.196 347.68 367.188 348.592 364.972C349.144 363.62 349.712 362.164 350.28 360.668C350.848 360.788 355.52 361.74 357.696 361.244C359.664 360.804 362.056 359.684 362.936 357.732C363.159 357.28 363.285 356.787 363.305 356.284C363.325 355.781 363.239 355.279 363.053 354.812C362.866 354.344 362.584 353.921 362.223 353.569C361.863 353.218 361.433 352.946 360.96 352.772C358.088 351.812 353.696 355.076 352.088 357.252C351.992 357.38 351.12 358.892 350.584 359.852C350.816 359.236 351.04 358.644 351.272 358.012C351.728 356.764 352.152 355.5 352.608 354.148L353.208 352.14C353.424 351.476 353.568 350.74 353.752 350.036C354.136 348.396 354.456 346.716 354.736 345.012C355.832 345.412 359.744 346.772 361.768 346.612C363.792 346.452 366.32 345.732 367.488 343.94C367.778 343.527 367.977 343.057 368.073 342.562C368.169 342.067 368.16 341.557 368.046 341.066C367.932 340.575 367.716 340.113 367.412 339.711C367.108 339.309 366.722 338.975 366.28 338.732C363.584 337.34 358.752 339.908 356.832 341.82C356.72 341.932 355.496 343.42 354.84 344.308C355 343.284 355.16 342.268 355.296 341.228C355.664 338.22 355.952 335.164 356.248 332.116C356.336 331.18 356.44 330.252 356.536 329.324C356.928 329.468 361.544 331.188 363.808 331.028C365.832 330.884 368.36 330.148 369.528 328.348C369.818 327.935 370.017 327.467 370.113 326.972C370.209 326.478 370.2 325.969 370.086 325.478C369.972 324.987 369.756 324.526 369.451 324.125C369.147 323.723 368.762 323.39 368.32 323.148C365.624 321.756 360.792 324.324 358.872 326.228C358.728 326.372 356.976 328.572 356.552 329.156C356.768 327.108 357.008 325.068 357.352 323.068C357.759 320.366 358.342 317.694 359.096 315.068C359.28 315.132 364.088 316.948 366.416 316.788C368.432 316.644 370.96 315.9 372.128 314.108C372.418 313.696 372.618 313.228 372.714 312.733C372.811 312.239 372.802 311.73 372.689 311.24C372.576 310.749 372.361 310.288 372.057 309.886C371.754 309.484 371.369 309.151 370.928 308.908C368.232 307.516 363.4 310.076 361.48 311.988C361.328 312.14 359.44 314.5 359.128 314.956C359.128 314.804 359.2 314.644 359.248 314.492C360.087 311.873 361.158 309.335 362.448 306.908C363.136 305.564 363.872 304.308 364.608 303.108C365.472 303.54 369.408 305.46 371.536 305.548C373.664 305.636 376.152 305.164 377.512 303.516C377.845 303.137 378.094 302.693 378.244 302.213C378.394 301.732 378.441 301.225 378.382 300.725C378.323 300.225 378.16 299.742 377.902 299.309C377.645 298.876 377.3 298.502 376.888 298.212C374.36 296.532 369.28 298.548 367.16 300.236C367.04 300.324 365.976 301.388 365.208 302.172C365.552 301.636 365.896 301.076 366.24 300.572C367.504 298.66 368.784 296.988 369.928 295.516C370.584 294.716 371.2 293.916 371.776 293.26C372.84 293.26 377.136 293.108 378.976 292.228C380.816 291.348 382.904 289.764 383.344 287.676C383.464 287.186 383.481 286.677 383.392 286.181C383.303 285.685 383.11 285.214 382.828 284.797C382.545 284.38 382.178 284.027 381.75 283.761C381.322 283.494 380.843 283.321 380.344 283.252C377.328 282.932 373.744 287.06 372.648 289.54C372.552 289.748 371.448 293.268 371.504 293.268H371.568C370.992 293.916 370.392 294.62 369.744 295.404C368.568 296.852 367.248 298.5 365.928 300.388C364.49 302.408 363.17 304.51 361.976 306.684C360.626 309.114 359.496 311.66 358.6 314.292C358.604 314.324 358.604 314.356 358.6 314.388C358.6 313.5 358.6 311.012 358.552 310.82C358.208 308.14 355.96 303.156 352.952 302.604C352.454 302.526 351.945 302.553 351.459 302.685C350.972 302.816 350.518 303.049 350.127 303.367C349.737 303.686 349.417 304.083 349.19 304.533C348.963 304.983 348.833 305.476 348.808 305.98C348.64 308.108 350.184 310.244 351.688 311.58C353.392 313.1 358.088 314.572 358.488 314.684C357.643 317.383 356.977 320.136 356.496 322.924C356.208 324.524 355.968 326.188 355.744 327.836C355.744 327.036 355.744 326.38 355.704 326.284C355.36 323.604 353.104 318.62 350.104 318.068C349.607 317.99 349.098 318.017 348.612 318.149C348.126 318.281 347.673 318.513 347.282 318.832C346.892 319.15 346.573 319.548 346.347 319.998C346.12 320.448 345.991 320.94 345.968 321.444C345.792 323.572 347.344 325.708 348.848 327.044C350.352 328.38 354.384 329.748 355.44 330.084C355.368 330.716 355.28 331.348 355.208 331.988C354.84 335.028 354.488 338.068 354.056 341.036C353.904 342.084 353.72 343.108 353.528 344.132C353.528 343.452 353.528 342.876 353.528 342.788C353.176 340.108 350.928 335.124 347.928 334.572C347.431 334.494 346.922 334.521 346.436 334.653C345.95 334.785 345.497 335.017 345.106 335.336C344.716 335.654 344.397 336.052 344.171 336.502C343.944 336.952 343.815 337.444 343.792 337.948C343.616 340.076 345.16 342.212 346.672 343.548C348.184 344.884 351.816 346.116 353.072 346.524C352.856 347.572 352.632 348.62 352.376 349.62C352.176 350.3 352.04 350.972 351.808 351.644C351.576 352.316 351.376 352.98 351.16 353.636C350.704 354.892 350.248 356.188 349.768 357.396C349.448 358.236 349.12 359.036 348.8 359.844C348.96 358.804 349.24 356.756 349.24 356.588C349.213 354.204 348.571 351.867 347.376 349.804C347.385 349.536 347.369 349.268 347.328 349.004C347.265 348.504 347.096 348.023 346.835 347.593C346.573 347.162 346.224 346.792 345.81 346.505C345.395 346.219 344.926 346.022 344.431 345.929C343.936 345.836 343.426 345.847 342.936 345.964C340.008 346.764 338.136 351.884 338.008 354.588C338.008 354.748 338.104 356.492 338.192 357.588C338.04 356.948 337.904 356.332 337.744 355.676C337.44 354.38 337.096 353.092 336.728 351.676C336.528 351.02 336.328 350.348 336.12 349.676C335.912 349.004 335.648 348.316 335.416 347.628C334.832 346.028 334.168 344.428 333.464 342.884C334.6 342.612 338.616 341.596 340.224 340.356C341.832 339.116 343.528 337.108 343.512 334.972C343.528 334.468 343.436 333.966 343.244 333.5C343.052 333.034 342.764 332.613 342.399 332.266C342.034 331.919 341.599 331.652 341.124 331.485C340.648 331.317 340.143 331.251 339.64 331.292C336.624 331.62 334.04 336.428 333.464 339.076C333.464 339.244 333.248 341.188 333.168 342.276C332.736 341.332 332.312 340.388 331.848 339.452C330.504 336.74 329.056 334.028 327.616 331.324C327.176 330.524 326.752 329.668 326.32 328.836C326.728 328.748 331.52 327.636 333.328 326.244C334.928 325.02 336.632 323.004 336.616 320.86C336.63 320.356 336.538 319.856 336.346 319.391C336.153 318.925 335.865 318.506 335.5 318.159C335.135 317.813 334.7 317.547 334.226 317.38C333.751 317.213 333.246 317.147 332.744 317.188C329.728 317.516 327.144 322.316 326.568 324.972C326.52 325.172 326.272 327.972 326.24 328.684C325.288 326.86 324.36 325.028 323.52 323.188C322.37 320.705 321.381 318.15 320.56 315.54C320.752 315.5 325.76 314.364 327.608 312.94C329.208 311.708 330.92 309.7 330.904 307.556C330.918 307.052 330.826 306.55 330.633 306.085C330.44 305.619 330.151 305.199 329.785 304.852C329.419 304.506 328.984 304.24 328.508 304.073C328.032 303.906 327.527 303.842 327.024 303.884C324.008 304.212 321.424 309.012 320.848 311.66C320.8 311.876 320.536 314.86 320.52 315.436C320.52 315.284 320.408 315.132 320.368 314.98C319.602 312.339 319.072 309.635 318.784 306.9C318.616 305.396 318.536 303.948 318.496 302.54C319.448 302.42 323.808 301.836 325.616 300.748C327.424 299.66 329.256 297.884 329.48 295.756C329.55 295.256 329.514 294.748 329.374 294.264C329.234 293.779 328.994 293.33 328.668 292.945C328.343 292.56 327.94 292.248 327.486 292.029C327.032 291.81 326.536 291.69 326.032 291.676C323 291.676 319.872 296.156 319.032 298.732C318.984 298.876 318.68 300.332 318.48 301.428C318.48 300.788 318.48 300.132 318.48 299.516C318.48 297.228 318.632 295.124 318.776 293.268C318.864 292.212 318.968 291.26 319.072 290.372C319.952 289.764 323.456 287.292 324.536 285.516C325.616 283.74 326.4 281.3 325.6 279.332C325.431 278.857 325.164 278.422 324.816 278.057C324.469 277.692 324.048 277.405 323.582 277.213C323.115 277.021 322.614 276.93 322.11 276.945C321.606 276.96 321.111 277.081 320.656 277.3C317.96 278.692 317.256 284.116 317.704 286.788C317.704 287.02 318.76 290.564 318.8 290.532L318.856 290.492C318.736 291.348 318.624 292.268 318.512 293.276C318.328 295.132 318.136 297.236 318.08 299.54C317.998 302.018 318.059 304.5 318.264 306.972C318.478 309.743 318.939 312.49 319.64 315.18C319.637 315.212 319.637 315.244 319.64 315.276C319.16 314.524 317.752 312.476 317.632 312.324C315.856 310.284 311.232 307.364 308.44 308.548C307.982 308.758 307.573 309.062 307.239 309.44C306.906 309.818 306.656 310.262 306.505 310.744C306.354 311.225 306.306 311.732 306.364 312.233C306.421 312.734 306.584 313.217 306.84 313.652C307.944 315.524 310.4 316.452 312.416 316.74Z" fill="#4F3ED7"/>
<path d="M364.416 302.5C364.464 302.5 365.384 298.956 365.416 298.724C365.792 296.044 364.936 290.644 362.216 289.324C361.756 289.117 361.258 289.01 360.754 289.008C360.25 289.006 359.752 289.111 359.291 289.314C358.83 289.518 358.417 289.817 358.078 290.19C357.74 290.564 357.485 291.005 357.328 291.484C356.6 293.5 357.528 295.964 358.624 297.668C359.904 299.7 364.416 302.492 364.416 302.5Z" fill="#4F3ED7"/>
<path d="M22.7443 301.3C24.9203 302.252 30.2483 302.1 30.2483 302.1C30.2483 302.1 29.1043 298.612 29.0083 298.404C27.8403 295.964 24.1443 291.924 21.1363 292.332C20.6395 292.414 20.1655 292.6 19.745 292.876C19.3245 293.153 18.9668 293.515 18.6953 293.939C18.4237 294.363 18.2443 294.839 18.1687 295.337C18.0931 295.835 18.1229 296.343 18.2563 296.828C18.7603 298.972 20.8963 300.5 22.7443 301.3Z" fill="#4F3ED7"/>
<path d="M24.5845 316.74C26.8405 317.076 31.5925 315.692 31.9685 315.588C32.7515 318.315 33.7136 320.988 34.8485 323.588C35.5045 325.1 36.2085 326.604 36.9365 328.1C36.5045 327.468 36.1365 326.908 36.0485 326.828C34.2725 324.78 29.6485 321.868 26.8565 323.052C26.3983 323.261 25.9893 323.564 25.6559 323.942C25.3225 324.319 25.0722 324.763 24.9213 325.243C24.7704 325.724 24.7223 326.231 24.78 326.731C24.8378 327.232 25.0001 327.714 25.2565 328.148C26.2885 330.028 28.7605 330.956 30.7605 331.244C32.7605 331.532 36.8645 330.444 37.9605 330.148C38.2485 330.716 38.5205 331.292 38.8085 331.86C40.1845 334.604 41.5685 337.332 42.8085 340.044C43.2565 341.004 43.6645 341.964 44.0805 342.924C43.6885 342.356 43.3605 341.884 43.2805 341.82C41.5125 339.772 36.8805 336.852 34.0885 338.044C33.6303 338.253 33.2213 338.556 32.8879 338.934C32.5545 339.311 32.3042 339.755 32.1533 340.236C32.0024 340.716 31.9543 341.223 32.012 341.723C32.0698 342.224 32.2321 342.706 32.4885 343.14C33.5205 345.012 35.9925 345.94 37.9925 346.236C39.9925 346.532 43.7045 345.54 44.9765 345.188C45.3685 346.18 45.7765 347.18 46.1045 348.156C46.3125 348.836 46.5685 349.468 46.7445 350.156C46.9205 350.844 47.1205 351.508 47.3045 352.172C47.6165 353.468 47.9445 354.804 48.2165 356.076C48.4165 356.956 48.5845 357.804 48.7605 358.652C48.3205 357.7 47.4245 355.844 47.3365 355.692C45.8885 353.404 41.7365 349.82 38.8245 350.564C38.3401 350.702 37.8903 350.941 37.5041 351.264C37.1179 351.588 36.8041 351.989 36.5831 352.442C36.362 352.894 36.2387 353.388 36.221 353.892C36.2033 354.395 36.2918 354.897 36.4805 355.364C37.2085 357.38 39.5125 358.668 41.4485 359.26C43.5765 359.908 48.2885 359.316 48.8805 359.26C49.1605 360.668 49.4245 362.044 49.6805 363.34C50.1845 366.212 50.5685 368.78 50.8565 370.956H52.8485C52.4965 368.708 52.0485 366.02 51.4485 363.012C51.1685 361.58 50.8405 360.06 50.4805 358.492C51.9128 357.916 53.3075 357.25 54.6565 356.5C56.2085 358.188 60.1845 360.156 60.6965 360.404C60.1605 361.732 59.6165 363.02 59.0965 364.228C58.0005 366.764 56.9525 369.028 56.0325 370.916H58.1845C58.9845 369.156 59.8485 367.148 60.7525 364.932C61.3125 363.58 61.8725 362.124 62.4405 360.628C63.0165 360.748 67.6805 361.7 69.8565 361.204C71.8245 360.764 74.2165 359.644 75.1045 357.692C75.3273 357.24 75.4525 356.746 75.472 356.243C75.4915 355.74 75.4049 355.238 75.2177 354.77C75.0306 354.302 74.7472 353.879 74.3859 353.528C74.0246 353.177 73.5935 352.906 73.1205 352.732C70.2485 351.772 65.8565 355.036 64.2485 357.212C64.1525 357.34 63.2805 358.852 62.7445 359.812C62.9765 359.196 63.2085 358.604 63.4325 357.972C63.8885 356.724 64.3125 355.46 64.7685 354.108L65.3685 352.1C65.5845 351.436 65.7285 350.7 65.9125 349.996C66.3045 348.356 66.6165 346.676 66.8965 344.972C67.9925 345.372 71.9045 346.732 73.9365 346.572C75.9685 346.412 78.4805 345.692 79.6485 343.9C79.9371 343.487 80.1358 343.018 80.2318 342.524C80.3279 342.029 80.319 341.52 80.2059 341.029C80.0928 340.538 79.878 340.077 79.5752 339.674C79.2725 339.272 78.8887 338.937 78.4485 338.692C75.7525 337.3 70.9205 339.868 69.0005 341.78C68.8805 341.892 67.6565 343.38 67.0005 344.268C67.1605 343.244 67.3285 342.228 67.4565 341.188C67.8325 338.18 68.1125 335.124 68.4085 332.076C68.4965 331.14 68.6005 330.212 68.6965 329.284C69.0885 329.428 73.7045 331.148 75.9765 330.988C77.9925 330.844 80.5205 330.108 81.6885 328.308C81.9779 327.896 82.1771 327.427 82.2731 326.932C82.3692 326.438 82.3599 325.929 82.2459 325.438C82.1319 324.947 81.9158 324.486 81.6116 324.085C81.3074 323.683 80.922 323.35 80.4805 323.108C77.7925 321.716 72.9605 324.284 71.0405 326.188C70.8965 326.332 69.1365 328.532 68.7205 329.116C68.9365 327.068 69.1685 325.028 69.5205 323.028C69.9298 320.326 70.5151 317.654 71.2725 315.028C71.4485 315.092 76.2565 316.908 78.5845 316.748C80.6005 316.604 83.1365 315.86 84.3045 314.068C84.5939 313.656 84.7931 313.187 84.8891 312.692C84.9852 312.198 84.9759 311.689 84.8619 311.198C84.7479 310.707 84.5318 310.246 84.2276 309.845C83.9234 309.443 83.538 309.11 83.0965 308.868C80.4005 307.476 75.5685 310.036 73.6485 311.948C73.4965 312.1 71.6085 314.46 71.2965 314.916C71.3445 314.764 71.3685 314.604 71.4165 314.452C72.2549 311.834 73.3258 309.295 74.6165 306.868C75.3045 305.524 76.0405 304.268 76.7845 303.068C77.6405 303.5 81.5845 305.42 83.7045 305.508C85.8245 305.596 88.3285 305.124 89.6805 303.476C90.0142 303.098 90.2644 302.654 90.4149 302.173C90.5654 301.692 90.6127 301.185 90.5538 300.684C90.495 300.184 90.3312 299.701 90.0732 299.269C89.8152 298.836 89.4688 298.462 89.0565 298.172C86.5285 296.492 81.4485 298.508 79.3285 300.196C79.2165 300.284 78.1445 301.348 77.3845 302.132C77.7205 301.596 78.0645 301.036 78.4085 300.532C79.6725 298.62 80.9525 296.948 82.0965 295.476C82.7605 294.676 83.3685 293.876 83.9445 293.22C85.0165 293.22 89.3045 293.068 91.1445 292.188C92.9845 291.308 95.0725 289.724 95.5125 287.636C95.6353 287.147 95.6533 286.637 95.5654 286.14C95.4775 285.643 95.2857 285.17 95.0025 284.753C94.7193 284.335 94.3511 283.982 93.922 283.716C93.493 283.451 93.0126 283.279 92.5125 283.212C89.4965 282.892 85.9205 287.02 84.8165 289.5C84.7205 289.708 83.6165 293.228 83.6725 293.228H83.7365C83.1605 293.876 82.5605 294.58 81.9125 295.364C80.7365 296.812 79.4165 298.46 78.1045 300.348C76.6498 302.367 75.3142 304.469 74.1045 306.644C72.7604 309.077 71.6308 311.623 70.7285 314.252V314.348C70.7285 313.46 70.7285 310.972 70.6805 310.78C70.3285 308.1 68.0805 303.116 65.0805 302.564C64.5829 302.486 64.0743 302.513 63.588 302.645C63.1018 302.777 62.6487 303.01 62.2585 303.328C61.8682 303.647 61.5495 304.044 61.3231 304.494C61.0967 304.944 60.9677 305.437 60.9445 305.94C60.7685 308.068 62.3125 310.204 63.8245 311.54C65.5205 313.06 70.2245 314.532 70.6245 314.644C69.7724 317.342 69.1042 320.095 68.6245 322.884C68.3365 324.484 68.0965 326.148 67.8725 327.796C67.8725 326.996 67.8725 326.34 67.8725 326.244C67.5285 323.564 65.2725 318.58 62.2725 318.028C61.7744 317.95 61.2655 317.978 60.7788 318.109C60.2921 318.241 59.8385 318.473 59.4477 318.792C59.0568 319.11 58.7373 319.507 58.51 319.957C58.2828 320.407 58.1528 320.9 58.1285 321.404C57.9525 323.532 59.5045 325.668 61.0085 327.004C62.5125 328.34 66.5445 329.708 67.6085 330.044C67.5285 330.676 67.4405 331.308 67.3685 331.948C67.0005 334.988 66.6565 338.028 66.2165 340.996C66.0645 342.044 65.8805 343.068 65.6965 344.092C65.6965 343.412 65.6965 342.836 65.6965 342.748C65.3445 340.068 63.0965 335.084 60.0965 334.532C59.5989 334.454 59.0903 334.481 58.604 334.613C58.1178 334.745 57.6647 334.978 57.2745 335.296C56.8842 335.615 56.5655 336.012 56.3391 336.462C56.1127 336.912 55.9837 337.405 55.9605 337.908C55.7845 340.036 57.3365 342.172 58.8405 343.508C60.3445 344.844 63.9845 346.076 65.2405 346.484C65.0165 347.532 64.7925 348.58 64.5365 349.58C64.3445 350.26 64.2005 350.932 63.9685 351.604C63.7365 352.276 63.5365 352.94 63.3285 353.596C62.8725 354.852 62.4085 356.148 61.9285 357.356C61.6085 358.196 61.2805 358.996 60.9605 359.804C61.1205 358.764 61.4005 356.716 61.4085 356.548C61.3738 354.164 60.7293 351.828 59.5365 349.764C59.545 349.496 59.5289 349.229 59.4885 348.964C59.4247 348.464 59.2565 347.984 58.9949 347.553C58.7332 347.123 58.384 346.752 57.9698 346.465C57.5556 346.179 57.0858 345.982 56.5908 345.889C56.0958 345.796 55.5867 345.808 55.0965 345.924C52.1685 346.724 50.2965 351.844 50.1685 354.548C50.1685 354.708 50.2645 356.452 50.3525 357.548C50.2005 356.908 50.0645 356.292 49.9045 355.636C49.6005 354.34 49.2565 353.052 48.8885 351.636C48.6885 350.98 48.4885 350.308 48.2805 349.636C48.0725 348.964 47.8085 348.276 47.5765 347.588C46.9925 345.988 46.3285 344.388 45.6245 342.844C46.7605 342.572 50.7765 341.556 52.3845 340.316C53.9925 339.076 55.6965 337.068 55.6805 334.932C55.6933 334.428 55.6 333.927 55.4069 333.461C55.2137 332.996 54.9248 332.576 54.5591 332.229C54.1933 331.882 53.7588 331.616 53.2836 331.447C52.8084 331.279 52.3031 331.213 51.8005 331.252C48.7845 331.58 46.2005 336.388 45.6245 339.036C45.6245 339.204 45.4085 341.148 45.3365 342.236C44.9045 341.292 44.4805 340.348 44.0085 339.412C42.6645 336.7 41.2165 333.988 39.7845 331.284C39.3445 330.484 38.9125 329.628 38.4805 328.796C38.8885 328.708 43.6885 327.596 45.4885 326.204C47.0885 324.98 48.8005 322.964 48.7845 320.82C48.7987 320.316 48.7063 319.815 48.5135 319.349C48.3206 318.883 48.0317 318.463 47.6655 318.116C47.2993 317.77 46.8641 317.505 46.3884 317.338C45.9126 317.171 45.407 317.106 44.9045 317.148C41.8885 317.476 39.3045 322.276 38.7285 324.932C38.7285 325.132 38.4325 327.932 38.4005 328.644C37.4565 326.82 36.5285 324.988 35.6805 323.148C34.53 320.665 33.5413 318.11 32.7205 315.5C32.9125 315.46 37.9205 314.324 39.7685 312.9C41.3685 311.668 43.0805 309.66 43.0645 307.516C43.0787 307.012 42.9863 306.511 42.7935 306.045C42.6006 305.579 42.3117 305.159 41.9455 304.812C41.5793 304.466 41.1441 304.201 40.6684 304.034C40.1926 303.867 39.687 303.802 39.1845 303.844C36.1685 304.172 33.5845 308.972 33.0085 311.62C32.9685 311.836 32.6965 314.82 32.6885 315.396C32.6405 315.244 32.5765 315.092 32.5285 314.94C31.7672 312.312 31.2398 309.621 30.9525 306.9C30.7845 305.396 30.7045 303.948 30.6645 302.54C31.6165 302.42 35.9765 301.836 37.7845 300.748C39.5925 299.66 41.4245 297.884 41.6485 295.756C41.7185 295.257 41.6824 294.748 41.5425 294.264C41.4026 293.78 41.162 293.33 40.8366 292.945C40.5112 292.56 40.1082 292.248 39.654 292.029C39.1998 291.811 38.7045 291.69 38.2005 291.676C35.1685 291.676 32.0405 296.156 31.2005 298.732C31.2005 298.876 30.8565 300.332 30.6485 301.428C30.6485 300.788 30.6485 300.132 30.6485 299.516C30.6485 297.228 30.8005 295.124 30.9445 293.268C31.0325 292.212 31.1365 291.26 31.2405 290.372C32.1205 289.764 35.6245 287.292 36.7045 285.516C37.7845 283.74 38.6165 281.3 37.8325 279.308C37.6617 278.831 37.3918 278.395 37.0407 278.03C36.6895 277.664 36.2649 277.377 35.795 277.188C35.325 276.998 34.8202 276.91 34.3138 276.929C33.8073 276.949 33.3107 277.075 32.8565 277.3C30.1685 278.692 29.4565 284.116 29.9045 286.788C29.9045 287.02 30.9605 290.564 31.0085 290.532L31.0565 290.492C30.9365 291.348 30.8245 292.268 30.7125 293.276C30.5285 295.132 30.3365 297.236 30.2885 299.54C30.199 302.019 30.2578 304.5 30.4645 306.972C30.6785 309.743 31.1389 312.49 31.8405 315.18V315.276C31.3605 314.524 29.9605 312.476 29.8325 312.324C28.0565 310.284 23.4325 307.364 20.6405 308.548C20.1821 308.758 19.7729 309.062 19.4394 309.44C19.106 309.819 18.8557 310.263 18.7049 310.744C18.554 311.225 18.506 311.733 18.5638 312.234C18.6216 312.735 18.784 313.218 19.0405 313.652C20.1125 315.524 22.5845 316.452 24.5845 316.74Z" fill="#4F3ED7"/>
<path d="M76.5841 302.5C76.6321 302.5 77.5521 298.956 77.5841 298.724C77.9601 296.044 77.1041 290.644 74.3841 289.324C73.9244 289.117 73.4264 289.01 72.9223 289.008C72.4183 289.006 71.9196 289.111 71.4585 289.314C70.9975 289.518 70.5845 289.817 70.2464 290.19C69.9083 290.564 69.6527 291.005 69.4961 291.484C68.7681 293.5 69.6961 295.964 70.7921 297.668C72.0801 299.7 76.5841 302.492 76.5841 302.5Z" fill="#4F3ED7"/>
<path d="M367.2 370.9H378.4" stroke="#263238" stroke-linecap="round" stroke-linejoin="round"/>
<path d="M159.2 370.9H356" stroke="#263238" stroke-linecap="round" stroke-linejoin="round"/>
<path d="M30.4004 370.9H151.2" stroke="#263238" stroke-linecap="round" stroke-linejoin="round"/>
<path opacity="0.1" d="M101.696 68.0439C101.696 74.3399 90.2799 87.5079 90.2799 87.5079C90.2799 87.5079 78.8719 74.3399 78.8719 68.0439C78.9507 65.0696 80.1875 62.2435 82.3191 60.1676C84.4507 58.0917 87.3085 56.9301 90.2839 56.9301C93.2593 56.9301 96.1171 58.0917 98.2487 60.1676C100.38 62.2435 101.617 65.0696 101.696 68.0439ZM211.08 285.476C209.581 285.475 208.098 285.769 206.713 286.342C205.328 286.915 204.07 287.755 203.011 288.815C201.951 289.874 201.111 291.132 200.538 292.517C199.965 293.902 199.671 295.386 199.672 296.884C199.672 303.18 211.08 316.348 211.08 316.348C211.08 316.348 222.488 303.18 222.488 296.884C222.488 293.858 221.286 290.957 219.147 288.817C217.007 286.678 214.105 285.476 211.08 285.476ZM306.4 24.4199C303.374 24.4199 300.473 25.6218 298.333 27.7612C296.194 29.9007 294.992 32.8023 294.992 35.8279C294.968 42.0999 306.4 55.2919 306.4 55.2919C306.4 55.2919 317.784 42.0999 317.784 35.8279C317.782 32.8071 316.582 29.9103 314.449 27.7721C312.315 25.6338 309.421 24.4284 306.4 24.4199ZM52.7039 174.748C51.2055 174.747 49.7216 175.041 48.337 175.614C46.9524 176.187 45.6944 177.027 44.6349 178.087C43.5753 179.146 42.7351 180.404 42.1621 181.789C41.5892 183.174 41.2948 184.658 41.2959 186.156C41.2959 192.452 52.7039 205.612 52.7039 205.612C52.7039 205.612 64.1119 192.452 64.1119 186.156C64.1119 183.13 62.91 180.229 60.7706 178.089C58.6312 175.95 55.7295 174.748 52.7039 174.748ZM356.032 170.748C353.017 170.75 350.125 171.945 347.987 174.072C345.85 176.199 344.641 179.085 344.624 182.1C344.624 188.404 356.032 201.564 356.032 201.564C356.032 201.564 367.44 188.428 367.44 182.1C367.437 180.601 367.138 179.118 366.562 177.734C365.985 176.351 365.141 175.095 364.079 174.037C363.016 172.98 361.756 172.143 360.37 171.573C358.984 171.003 357.499 170.712 356 170.716L356.032 170.748ZM306.4 40.6599H301.6C301.388 40.6599 301.184 40.5756 301.034 40.4256C300.884 40.2756 300.8 40.0721 300.8 39.8599C300.8 39.6477 300.884 39.4443 301.034 39.2942C301.184 39.1442 301.388 39.0599 301.6 39.0599H306.4C306.612 39.0599 306.816 39.1442 306.966 39.2942C307.116 39.4443 307.2 39.6477 307.2 39.8599C307.2 40.0721 307.116 40.2756 306.966 40.4256C306.816 40.5756 306.612 40.6599 306.4 40.6599ZM257.384 300.908C257.384 300.696 257.3 300.492 257.15 300.342C257 300.192 256.796 300.108 256.584 300.108H246.984C246.772 300.108 246.568 300.192 246.418 300.342C246.268 300.492 246.184 300.696 246.184 300.908C246.184 301.12 246.268 301.324 246.418 301.474C246.568 301.624 246.772 301.708 246.984 301.708H256.584C256.796 301.708 257 301.624 257.15 301.474C257.3 301.324 257.384 301.12 257.384 300.908ZM238.264 300.908C238.264 300.696 238.18 300.492 238.03 300.342C237.88 300.192 237.676 300.108 237.464 300.108H227.912C227.7 300.108 227.496 300.192 227.346 300.342C227.196 300.492 227.112 300.696 227.112 300.908C227.112 301.12 227.196 301.324 227.346 301.474C227.496 301.624 227.7 301.708 227.912 301.708H237.464C237.676 301.708 237.88 301.624 238.03 301.474C238.18 301.324 238.264 301.12 238.264 300.908ZM266.216 301.636C269.626 301.274 272.772 299.63 275.016 297.036C275.155 296.876 275.224 296.667 275.209 296.455C275.194 296.244 275.096 296.047 274.936 295.908C274.776 295.769 274.567 295.699 274.355 295.714C274.144 295.729 273.947 295.828 273.808 295.988C271.83 298.272 269.06 299.722 266.056 300.044C265.951 300.05 265.848 300.076 265.753 300.122C265.658 300.167 265.573 300.231 265.503 300.309C265.433 300.388 265.379 300.479 265.344 300.578C265.309 300.678 265.294 300.783 265.3 300.888C265.306 300.993 265.332 301.096 265.378 301.191C265.423 301.286 265.487 301.371 265.565 301.441C265.644 301.511 265.735 301.565 265.834 301.6C265.934 301.635 266.039 301.65 266.144 301.644L266.216 301.636ZM219.2 300.34C219.242 300.243 219.265 300.139 219.267 300.034C219.269 299.928 219.25 299.824 219.212 299.725C219.173 299.627 219.115 299.538 219.042 299.462C218.968 299.386 218.881 299.326 218.784 299.284C217.416 298.699 216.191 297.824 215.195 296.719C214.199 295.614 213.456 294.305 213.016 292.884C212.984 292.783 212.933 292.69 212.865 292.61C212.797 292.529 212.714 292.463 212.62 292.414C212.526 292.366 212.424 292.337 212.319 292.328C212.214 292.319 212.108 292.332 212.008 292.364C211.807 292.428 211.639 292.569 211.542 292.757C211.444 292.944 211.425 293.162 211.488 293.364C212.001 295 212.862 296.504 214.012 297.775C215.163 299.046 216.575 300.052 218.152 300.724C218.25 300.768 218.356 300.79 218.464 300.788C218.617 300.791 218.767 300.751 218.897 300.671C219.028 300.592 219.133 300.477 219.2 300.34ZM278.32 287.7V278.156C278.32 277.944 278.236 277.74 278.086 277.59C277.936 277.44 277.732 277.356 277.52 277.356C277.308 277.356 277.104 277.44 276.954 277.59C276.804 277.74 276.72 277.944 276.72 278.156V287.7C276.72 287.912 276.804 288.116 276.954 288.266C277.104 288.416 277.308 288.5 277.52 288.5C277.732 288.5 277.936 288.416 278.086 288.266C278.236 288.116 278.32 287.912 278.32 287.7ZM212.552 283.644V277.076C212.551 276.04 212.474 275.005 212.32 273.98C212.304 273.876 212.268 273.776 212.214 273.686C212.16 273.596 212.088 273.517 212.003 273.455C211.919 273.392 211.822 273.347 211.72 273.322C211.618 273.297 211.512 273.292 211.408 273.308C211.304 273.324 211.204 273.36 211.114 273.414C211.024 273.468 210.945 273.54 210.883 273.624C210.82 273.709 210.775 273.805 210.75 273.908C210.725 274.01 210.72 274.116 210.736 274.22C210.88 275.165 210.952 276.12 210.952 277.076V283.644C210.952 283.856 211.036 284.06 211.186 284.21C211.336 284.36 211.54 284.444 211.752 284.444C211.964 284.444 212.168 284.36 212.318 284.21C212.468 284.06 212.552 283.856 212.552 283.644ZM278.32 268.588V259.036C278.32 258.824 278.236 258.62 278.086 258.47C277.936 258.32 277.732 258.236 277.52 258.236C277.308 258.236 277.104 258.32 276.954 258.47C276.804 258.62 276.72 258.824 276.72 259.036V268.596C276.72 268.808 276.804 269.012 276.954 269.162C277.104 269.312 277.308 269.396 277.52 269.396C277.732 269.396 277.936 269.312 278.086 269.162C278.236 269.012 278.32 268.808 278.32 268.596V268.588ZM208.384 266.004C208.469 265.941 208.54 265.863 208.594 265.773C208.649 265.683 208.685 265.583 208.7 265.479C208.716 265.375 208.711 265.269 208.685 265.167C208.66 265.065 208.615 264.968 208.552 264.884C206.577 262.205 203.987 260.04 201 258.572C200.905 258.516 200.8 258.481 200.69 258.468C200.581 258.455 200.47 258.464 200.365 258.496C200.26 258.528 200.162 258.581 200.078 258.652C199.994 258.723 199.926 258.81 199.877 258.909C199.829 259.008 199.801 259.115 199.796 259.225C199.791 259.335 199.809 259.445 199.848 259.548C199.887 259.65 199.947 259.744 200.024 259.823C200.101 259.901 200.194 259.963 200.296 260.004C203.053 261.36 205.444 263.36 207.264 265.836C207.326 265.921 207.405 265.992 207.495 266.046C207.585 266.101 207.685 266.137 207.789 266.152C207.893 266.168 207.999 266.163 208.101 266.137C208.203 266.112 208.299 266.067 208.384 266.004ZM192.2 257.3C192.2 257.088 192.116 256.884 191.966 256.734C191.816 256.584 191.612 256.5 191.4 256.5H181.848C181.636 256.5 181.432 256.584 181.282 256.734C181.132 256.884 181.048 257.088 181.048 257.3C181.048 257.512 181.132 257.716 181.282 257.866C181.432 258.016 181.636 258.1 181.848 258.1H191.4C191.612 258.1 191.816 258.016 191.966 257.866C192.116 257.716 192.2 257.512 192.2 257.3ZM173.088 257.3C173.088 257.088 173.004 256.884 172.854 256.734C172.704 256.584 172.5 256.5 172.288 256.5H162.688C162.476 256.5 162.272 256.584 162.122 256.734C161.972 256.884 161.888 257.088 161.888 257.3C161.888 257.512 161.972 257.716 162.122 257.866C162.272 258.016 162.476 258.1 162.688 258.1H172.288C172.5 258.1 172.704 258.016 172.854 257.866C173.004 257.716 173.088 257.512 173.088 257.3ZM153.976 257.3C153.976 257.088 153.892 256.884 153.742 256.734C153.592 256.584 153.388 256.5 153.176 256.5H143.616C143.404 256.5 143.2 256.584 143.05 256.734C142.9 256.884 142.816 257.088 142.816 257.3C142.816 257.512 142.9 257.716 143.05 257.866C143.2 258.016 143.404 258.1 143.616 258.1H153.176C153.388 258.1 153.592 258.016 153.742 257.866C153.892 257.716 153.976 257.512 153.976 257.3ZM134.864 257.3C134.864 257.088 134.78 256.884 134.63 256.734C134.48 256.584 134.276 256.5 134.064 256.5H124.464C124.252 256.5 124.048 256.584 123.898 256.734C123.748 256.884 123.664 257.088 123.664 257.3C123.664 257.512 123.748 257.716 123.898 257.866C124.048 258.016 124.252 258.1 124.464 258.1H134.064C134.276 258.1 134.48 258.016 134.63 257.866C134.78 257.716 134.864 257.512 134.864 257.3ZM115.744 257.3C115.744 257.088 115.66 256.884 115.51 256.734C115.36 256.584 115.156 256.5 114.944 256.5H105.392C105.18 256.5 104.976 256.584 104.826 256.734C104.676 256.884 104.592 257.088 104.592 257.3C104.592 257.512 104.676 257.716 104.826 257.866C104.976 258.016 105.18 258.1 105.392 258.1H114.944C115.156 258.1 115.36 258.016 115.51 257.866C115.66 257.716 115.744 257.512 115.744 257.3ZM96.6319 257.3C96.6319 257.088 96.5476 256.884 96.3976 256.734C96.2476 256.584 96.0441 256.5 95.8319 256.5H86.2799C86.0677 256.5 85.8642 256.584 85.7142 256.734C85.5642 256.884 85.4799 257.088 85.4799 257.3C85.4799 257.512 85.5642 257.716 85.7142 257.866C85.8642 258.016 86.0677 258.1 86.2799 258.1H95.8319C96.0441 258.1 96.2476 258.016 96.3976 257.866C96.5476 257.716 96.6319 257.512 96.6319 257.3ZM77.5199 257.3C77.5199 257.088 77.4356 256.884 77.2856 256.734C77.1356 256.584 76.9321 256.5 76.7199 256.5H67.1999C66.9877 256.5 66.7842 256.584 66.6342 256.734C66.4842 256.884 66.3999 257.088 66.3999 257.3C66.3999 257.512 66.4842 257.716 66.6342 257.866C66.7842 258.016 66.9877 258.1 67.1999 258.1H76.7999C76.9979 258.08 77.1814 257.987 77.3145 257.839C77.4477 257.691 77.5209 257.499 77.5199 257.3ZM58.5759 256.02C58.6708 255.831 58.687 255.612 58.6211 255.411C58.5551 255.21 58.4123 255.044 58.2239 254.948C55.4996 253.579 53.2644 251.403 51.8239 248.716C51.7224 248.533 51.5535 248.398 51.3533 248.338C51.1531 248.278 50.9375 248.299 50.7525 248.396C50.5676 248.494 50.428 248.659 50.3636 248.858C50.2992 249.057 50.3151 249.273 50.4079 249.46C51.997 252.439 54.4667 254.856 57.4799 256.38C57.592 256.434 57.7153 256.462 57.8399 256.46C57.9925 256.463 58.143 256.423 58.2734 256.343C58.4038 256.264 58.5088 256.149 58.5759 256.012V256.02ZM50.1439 239.82V230.26C50.1439 230.048 50.0596 229.844 49.9096 229.694C49.7596 229.544 49.5561 229.46 49.3439 229.46C49.1317 229.46 48.9282 229.544 48.7782 229.694C48.6282 229.844 48.5439 230.048 48.5439 230.26V239.82C48.5439 240.032 48.6282 240.236 48.7782 240.386C48.9282 240.536 49.1317 240.62 49.3439 240.62C49.5561 240.62 49.7596 240.536 49.9096 240.386C50.0596 240.236 50.1439 240.032 50.1439 239.82ZM50.1439 220.708V211.148C50.1439 210.936 50.0596 210.732 49.9096 210.582C49.7596 210.432 49.5561 210.348 49.3439 210.348C49.1317 210.348 48.9282 210.432 48.7782 210.582C48.6282 210.732 48.5439 210.936 48.5439 211.148V220.708C48.5439 220.92 48.6282 221.124 48.7782 221.274C48.9282 221.424 49.1317 221.508 49.3439 221.508C49.5561 221.508 49.7596 221.424 49.9096 221.274C50.0596 221.124 50.1439 220.92 50.1439 220.708ZM50.1439 201.588V197.588C50.1352 195.879 50.6396 194.207 51.5919 192.788C51.7097 192.611 51.7522 192.394 51.7102 192.186C51.6682 191.977 51.5451 191.794 51.3679 191.676C51.1907 191.558 50.974 191.516 50.7655 191.558C50.557 191.6 50.3737 191.723 50.2559 191.9C49.1361 193.573 48.5401 195.542 48.5439 197.556V201.556C48.5439 201.768 48.6282 201.972 48.7782 202.122C48.9282 202.272 49.1317 202.356 49.3439 202.356C49.5561 202.356 49.7596 202.272 49.9096 202.122C50.0596 201.972 50.1439 201.768 50.1439 201.556V201.588ZM374.624 188.3C374.724 188.267 374.816 188.214 374.896 188.145C374.975 188.075 375.04 187.991 375.087 187.897C375.134 187.802 375.162 187.7 375.169 187.594C375.176 187.489 375.162 187.384 375.128 187.284C375.06 187.084 374.917 186.919 374.728 186.824C374.539 186.73 374.32 186.714 374.12 186.78C372.941 187.17 371.706 187.367 370.464 187.364H364.864C364.652 187.364 364.448 187.448 364.298 187.598C364.148 187.748 364.064 187.952 364.064 188.164C364.064 188.376 364.148 188.58 364.298 188.73C364.448 188.88 364.652 188.964 364.864 188.964H370.464C371.877 188.964 373.281 188.74 374.624 188.3ZM356.12 188.164C356.12 187.952 356.036 187.748 355.886 187.598C355.736 187.448 355.532 187.364 355.32 187.364H345.768C345.556 187.364 345.352 187.448 345.202 187.598C345.052 187.748 344.968 187.952 344.968 188.164C344.968 188.376 345.052 188.58 345.202 188.73C345.352 188.88 345.556 188.964 345.768 188.964H355.32C355.532 188.964 355.736 188.88 355.886 188.73C356.036 188.58 356.12 188.376 356.12 188.164ZM337.008 188.164C337.008 187.952 336.924 187.748 336.774 187.598C336.624 187.448 336.42 187.364 336.208 187.364H326.656C326.444 187.364 326.24 187.448 326.09 187.598C325.94 187.748 325.856 187.952 325.856 188.164C325.856 188.376 325.94 188.58 326.09 188.73C326.24 188.88 326.444 188.964 326.656 188.964H336.208C336.42 188.964 336.624 188.88 336.774 188.73C336.924 188.58 337.008 188.376 337.008 188.164ZM317.896 188.164C317.896 187.952 317.812 187.748 317.662 187.598C317.512 187.448 317.308 187.364 317.096 187.364H307.536C307.324 187.364 307.12 187.448 306.97 187.598C306.82 187.748 306.736 187.952 306.736 188.164C306.736 188.376 306.82 188.58 306.97 188.73C307.12 188.88 307.324 188.964 307.536 188.964H317.096C317.308 188.964 317.512 188.88 317.662 188.73C317.812 188.58 317.896 188.376 317.896 188.164ZM298.784 188.164C298.784 187.952 298.7 187.748 298.55 187.598C298.4 187.448 298.196 187.364 297.984 187.364H288.384C288.172 187.364 287.968 187.448 287.818 187.598C287.668 187.748 287.584 187.952 287.584 188.164C287.584 188.376 287.668 188.58 287.818 188.73C287.968 188.88 288.172 188.964 288.384 188.964H297.984C298.196 188.964 298.4 188.88 298.55 188.73C298.7 188.58 298.784 188.376 298.784 188.164ZM279.672 188.164C279.672 187.952 279.588 187.748 279.438 187.598C279.288 187.448 279.084 187.364 278.872 187.364H269.312C269.1 187.364 268.896 187.448 268.746 187.598C268.596 187.748 268.512 187.952 268.512 188.164C268.512 188.376 268.596 188.58 268.746 188.73C268.896 188.88 269.1 188.964 269.312 188.964H278.872C279.084 188.964 279.288 188.88 279.438 188.73C279.588 188.58 279.672 188.376 279.672 188.164ZM260.552 188.164C260.552 187.952 260.468 187.748 260.318 187.598C260.168 187.448 259.964 187.364 259.752 187.364H250.2C249.988 187.364 249.784 187.448 249.634 187.598C249.484 187.748 249.4 187.952 249.4 188.164C249.4 188.376 249.484 188.58 249.634 188.73C249.784 188.88 249.988 188.964 250.2 188.964H259.752C259.964 188.964 260.168 188.88 260.318 188.73C260.468 188.58 260.552 188.376 260.552 188.164ZM241.44 188.164C241.44 187.952 241.356 187.748 241.206 187.598C241.056 187.448 240.852 187.364 240.64 187.364H231.088C230.876 187.364 230.672 187.448 230.522 187.598C230.372 187.748 230.288 187.952 230.288 188.164C230.288 188.376 230.372 188.58 230.522 188.73C230.672 188.88 230.876 188.964 231.088 188.964H240.64C240.852 188.964 241.056 188.88 241.206 188.73C241.356 188.58 241.44 188.376 241.44 188.164ZM222.328 188.164C222.328 187.952 222.244 187.748 222.094 187.598C221.944 187.448 221.74 187.364 221.528 187.364H212C211.788 187.364 211.584 187.448 211.434 187.598C211.284 187.748 211.2 187.952 211.2 188.164C211.2 188.376 211.284 188.58 211.434 188.73C211.584 188.88 211.788 188.964 212 188.964H221.6C221.799 188.946 221.985 188.854 222.12 188.706C222.254 188.557 222.329 188.364 222.328 188.164ZM203.216 188.164C203.216 187.952 203.132 187.748 202.982 187.598C202.832 187.448 202.628 187.364 202.416 187.364H192.816C192.604 187.364 192.4 187.448 192.25 187.598C192.1 187.748 192.016 187.952 192.016 188.164C192.016 188.376 192.1 188.58 192.25 188.73C192.4 188.88 192.604 188.964 192.816 188.964H202.416C202.625 188.96 202.825 188.874 202.971 188.724C203.118 188.574 203.2 188.373 203.2 188.164H203.216ZM184.104 188.164C184.104 187.952 184.02 187.748 183.87 187.598C183.72 187.448 183.516 187.364 183.304 187.364H173.744C173.532 187.364 173.328 187.448 173.178 187.598C173.028 187.748 172.944 187.952 172.944 188.164C172.944 188.376 173.028 188.58 173.178 188.73C173.328 188.88 173.532 188.964 173.744 188.964H183.304C183.516 188.964 183.72 188.88 183.87 188.73C184.02 188.58 184.104 188.376 184.104 188.164ZM164.984 188.164C164.984 187.952 164.9 187.748 164.75 187.598C164.6 187.448 164.396 187.364 164.184 187.364H154.632C154.42 187.364 154.216 187.448 154.066 187.598C153.916 187.748 153.832 187.952 153.832 188.164C153.832 188.376 153.916 188.58 154.066 188.73C154.216 188.88 154.42 188.964 154.632 188.964H164.184C164.396 188.964 164.6 188.88 164.75 188.73C164.9 188.58 164.984 188.376 164.984 188.164ZM145.872 188.164C145.872 187.952 145.788 187.748 145.638 187.598C145.488 187.448 145.284 187.364 145.072 187.364H135.52C135.308 187.364 135.104 187.448 134.954 187.598C134.804 187.748 134.72 187.952 134.72 188.164C134.72 188.376 134.804 188.58 134.954 188.73C135.104 188.88 135.308 188.964 135.52 188.964H145.072C145.284 188.964 145.488 188.88 145.638 188.73C145.788 188.58 145.872 188.376 145.872 188.164ZM126.76 188.164C126.76 187.952 126.676 187.748 126.526 187.598C126.376 187.448 126.172 187.364 125.96 187.364H116.4C116.188 187.364 115.984 187.448 115.834 187.598C115.684 187.748 115.6 187.952 115.6 188.164C115.6 188.376 115.684 188.58 115.834 188.73C115.984 188.88 116.188 188.964 116.4 188.964H125.96C126.172 188.964 126.376 188.88 126.526 188.73C126.676 188.58 126.76 188.376 126.76 188.164ZM107.648 188.164C107.648 187.952 107.564 187.748 107.414 187.598C107.264 187.448 107.06 187.364 106.848 187.364H97.2479C97.0357 187.364 96.8322 187.448 96.6822 187.598C96.5322 187.748 96.4479 187.952 96.4479 188.164C96.4479 188.376 96.5322 188.58 96.6822 188.73C96.8322 188.88 97.0357 188.964 97.2479 188.964H106.848C107.06 188.964 107.264 188.88 107.414 188.73C107.564 188.58 107.648 188.376 107.648 188.164ZM88.5359 188.164C88.5359 187.952 88.4516 187.748 88.3016 187.598C88.1516 187.448 87.9481 187.364 87.7359 187.364H78.1359C77.9237 187.364 77.7202 187.448 77.5702 187.598C77.4202 187.748 77.3359 187.952 77.3359 188.164C77.3359 188.376 77.4202 188.58 77.5702 188.73C77.7202 188.88 77.9237 188.964 78.1359 188.964H87.7359C87.9481 188.964 88.1516 188.88 88.3016 188.73C88.4516 188.58 88.5359 188.376 88.5359 188.164ZM69.4159 188.164C69.4159 187.952 69.3316 187.748 69.1816 187.598C69.0316 187.448 68.8281 187.364 68.6159 187.364H59.0639C58.8517 187.364 58.6482 187.448 58.4982 187.598C58.3482 187.748 58.2639 187.952 58.2639 188.164C58.2639 188.376 58.3482 188.58 58.4982 188.73C58.6482 188.88 58.8517 188.964 59.0639 188.964H68.6159C68.8281 188.964 69.0316 188.88 69.1816 188.73C69.3316 188.58 69.4159 188.376 69.4159 188.164ZM382.216 181.868C383.204 179.979 383.72 177.879 383.72 175.748V172.172C383.72 171.96 383.636 171.756 383.486 171.606C383.336 171.456 383.132 171.372 382.92 171.372C382.708 171.372 382.504 171.456 382.354 171.606C382.204 171.756 382.12 171.96 382.12 172.172V175.748C382.12 177.62 381.668 179.465 380.8 181.124C380.748 181.217 380.715 181.32 380.704 181.426C380.692 181.532 380.702 181.639 380.733 181.741C380.763 181.843 380.814 181.938 380.881 182.021C380.949 182.103 381.033 182.171 381.127 182.221C381.221 182.27 381.325 182.301 381.431 182.31C381.537 182.319 381.644 182.306 381.746 182.274C381.847 182.241 381.941 182.188 382.022 182.118C382.103 182.049 382.168 181.963 382.216 181.868ZM383.72 162.612V153.06C383.72 152.848 383.636 152.644 383.486 152.494C383.336 152.344 383.132 152.26 382.92 152.26C382.708 152.26 382.504 152.344 382.354 152.494C382.204 152.644 382.12 152.848 382.12 153.06V162.612C382.12 162.824 382.204 163.028 382.354 163.178C382.504 163.328 382.708 163.412 382.92 163.412C383.132 163.412 383.336 163.328 383.486 163.178C383.636 163.028 383.72 162.824 383.72 162.612ZM383.72 143.5V140.188C383.734 137.954 383.184 135.752 382.12 133.788C382.069 133.696 382 133.615 381.918 133.549C381.836 133.484 381.742 133.435 381.641 133.406C381.539 133.377 381.434 133.369 381.329 133.381C381.225 133.393 381.124 133.425 381.032 133.476C380.848 133.579 380.713 133.75 380.654 133.952C380.596 134.154 380.619 134.371 380.72 134.556C381.659 136.273 382.152 138.199 382.152 140.156V143.468C382.152 143.68 382.236 143.884 382.386 144.034C382.536 144.184 382.74 144.268 382.952 144.268C383.164 144.268 383.368 144.184 383.518 144.034C383.668 143.884 383.752 143.68 383.752 143.468L383.72 143.5ZM374.92 128.548C374.982 128.345 374.962 128.126 374.863 127.939C374.764 127.751 374.594 127.611 374.392 127.548C373.132 127.164 371.821 126.97 370.504 126.972H364.656C364.444 126.972 364.24 127.056 364.09 127.206C363.94 127.356 363.856 127.56 363.856 127.772C363.856 127.984 363.94 128.188 364.09 128.338C364.24 128.488 364.444 128.572 364.656 128.572H370.504C371.662 128.569 372.814 128.741 373.92 129.084C373.999 129.096 374.08 129.096 374.16 129.084C374.32 129.077 374.474 129.022 374.602 128.926C374.73 128.831 374.827 128.699 374.88 128.548H374.92ZM355.904 127.748C355.904 127.536 355.82 127.332 355.67 127.182C355.52 127.032 355.316 126.948 355.104 126.948H345.504C345.292 126.948 345.088 127.032 344.938 127.182C344.788 127.332 344.704 127.536 344.704 127.748C344.704 127.96 344.788 128.164 344.938 128.314C345.088 128.464 345.292 128.548 345.504 128.548H355.064C355.272 128.548 355.472 128.467 355.621 128.322C355.771 128.177 355.858 127.98 355.864 127.772L355.904 127.748ZM336.784 127.748C336.784 127.536 336.7 127.332 336.55 127.182C336.4 127.032 336.196 126.948 335.984 126.948H326.4C326.188 126.948 325.984 127.032 325.834 127.182C325.684 127.332 325.6 127.536 325.6 127.748C325.6 127.96 325.684 128.164 325.834 128.314C325.984 128.464 326.188 128.548 326.4 128.548H335.952C336.159 128.546 336.356 128.464 336.504 128.319C336.652 128.175 336.738 127.979 336.744 127.772L336.784 127.748ZM317.672 127.748C317.672 127.536 317.588 127.332 317.438 127.182C317.288 127.032 317.084 126.948 316.872 126.948H307.28C307.068 126.948 306.864 127.032 306.714 127.182C306.564 127.332 306.48 127.536 306.48 127.748C306.48 127.96 306.564 128.164 306.714 128.314C306.864 128.464 307.068 128.548 307.28 128.548H316.8C317.008 128.548 317.208 128.467 317.357 128.322C317.507 128.177 317.594 127.98 317.6 127.772L317.672 127.748ZM298.56 127.748C298.56 127.536 298.476 127.332 298.326 127.182C298.176 127.032 297.972 126.948 297.76 126.948H288.16C287.948 126.948 287.744 127.032 287.594 127.182C287.444 127.332 287.36 127.536 287.36 127.748C287.36 127.96 287.444 128.164 287.594 128.314C287.744 128.464 287.948 128.548 288.16 128.548H297.72C297.928 128.548 298.128 128.467 298.277 128.322C298.427 128.177 298.514 127.98 298.52 127.772L298.56 127.748ZM279.448 127.748C279.448 127.536 279.364 127.332 279.214 127.182C279.064 127.032 278.86 126.948 278.648 126.948H269.048C268.836 126.948 268.632 127.032 268.482 127.182C268.332 127.332 268.248 127.536 268.248 127.748C268.248 127.96 268.332 128.164 268.482 128.314C268.632 128.464 268.836 128.548 269.048 128.548H278.608C278.816 128.548 279.016 128.467 279.165 128.322C279.315 128.177 279.402 127.98 279.408 127.772L279.448 127.748ZM260.336 127.748C260.336 127.536 260.252 127.332 260.102 127.182C259.952 127.032 259.748 126.948 259.536 126.948H249.936C249.724 126.948 249.52 127.032 249.37 127.182C249.22 127.332 249.136 127.536 249.136 127.748C249.136 127.96 249.22 128.164 249.37 128.314C249.52 128.464 249.724 128.548 249.936 128.548H259.496C259.704 128.548 259.904 128.467 260.053 128.322C260.203 128.177 260.29 127.98 260.296 127.772L260.336 127.748ZM241.216 127.748C241.216 127.536 241.132 127.332 240.982 127.182C240.832 127.032 240.628 126.948 240.416 126.948H230.824C230.612 126.948 230.408 127.032 230.258 127.182C230.108 127.332 230.024 127.536 230.024 127.748C230.024 127.96 230.108 128.164 230.258 128.314C230.408 128.464 230.612 128.548 230.824 128.548H240.376C240.584 128.548 240.784 128.467 240.933 128.322C241.083 128.177 241.17 127.98 241.176 127.772L241.216 127.748ZM222.104 127.748C222.104 127.536 222.02 127.332 221.87 127.182C221.72 127.032 221.516 126.948 221.304 126.948H211.712C211.5 126.948 211.296 127.032 211.146 127.182C210.996 127.332 210.912 127.536 210.912 127.748C210.912 127.96 210.996 128.164 211.146 128.314C211.296 128.464 211.5 128.548 211.712 128.548H221.264C221.472 128.548 221.672 128.467 221.821 128.322C221.971 128.177 222.058 127.98 222.064 127.772L222.104 127.748ZM202.992 127.748C202.992 127.536 202.908 127.332 202.758 127.182C202.608 127.032 202.404 126.948 202.192 126.948H192.592C192.38 126.948 192.176 127.032 192.026 127.182C191.876 127.332 191.792 127.536 191.792 127.748C191.792 127.96 191.876 128.164 192.026 128.314C192.176 128.464 192.38 128.548 192.592 128.548H202.152C202.36 128.548 202.56 128.467 202.709 128.322C202.859 128.177 202.946 127.98 202.952 127.772L202.992 127.748ZM183.88 127.748C183.88 127.536 183.796 127.332 183.646 127.182C183.496 127.032 183.292 126.948 183.08 126.948H173.48C173.268 126.948 173.064 127.032 172.914 127.182C172.764 127.332 172.68 127.536 172.68 127.748C172.68 127.96 172.764 128.164 172.914 128.314C173.064 128.464 173.268 128.548 173.48 128.548H183.08C183.281 128.538 183.471 128.453 183.612 128.309C183.753 128.165 183.834 127.973 183.84 127.772L183.88 127.748ZM164.768 127.748C164.768 127.536 164.684 127.332 164.534 127.182C164.384 127.032 164.18 126.948 163.968 126.948H154.4C154.188 126.948 153.984 127.032 153.834 127.182C153.684 127.332 153.6 127.536 153.6 127.748C153.6 127.96 153.684 128.164 153.834 128.314C153.984 128.464 154.188 128.548 154.4 128.548H163.96C164.162 128.54 164.354 128.455 164.497 128.311C164.639 128.167 164.722 127.974 164.728 127.772L164.768 127.748ZM145.648 127.748C145.648 127.536 145.564 127.332 145.414 127.182C145.264 127.032 145.06 126.948 144.848 126.948H135.256C135.044 126.948 134.84 127.032 134.69 127.182C134.54 127.332 134.456 127.536 134.456 127.748C134.456 127.96 134.54 128.164 134.69 128.314C134.84 128.464 135.044 128.548 135.256 128.548H144.8C145.008 128.548 145.208 128.467 145.357 128.322C145.507 128.177 145.594 127.98 145.6 127.772L145.648 127.748ZM126.536 127.748C126.536 127.536 126.452 127.332 126.302 127.182C126.152 127.032 125.948 126.948 125.736 126.948H116.144C115.932 126.948 115.728 127.032 115.578 127.182C115.428 127.332 115.344 127.536 115.344 127.748C115.344 127.96 115.428 128.164 115.578 128.314C115.728 128.464 115.932 128.548 116.144 128.548H125.696C125.904 128.548 126.104 128.467 126.253 128.322C126.403 128.177 126.49 127.98 126.496 127.772L126.536 127.748ZM107.424 127.748C107.424 127.536 107.34 127.332 107.19 127.182C107.04 127.032 106.836 126.948 106.624 126.948H97.0239C96.8117 126.948 96.6082 127.032 96.4582 127.182C96.3082 127.332 96.2239 127.536 96.2239 127.748C96.2239 127.96 96.3082 128.164 96.4582 128.314C96.6082 128.464 96.8117 128.548 97.0239 128.548H106.584C106.792 128.548 106.992 128.467 107.141 128.322C107.291 128.177 107.378 127.98 107.384 127.772L107.424 127.748ZM88.8639 125.348C88.9389 125.274 88.9984 125.185 89.039 125.088C89.0796 124.99 89.1005 124.886 89.1005 124.78C89.1005 124.674 89.0796 124.57 89.039 124.472C88.9984 124.375 88.9389 124.286 88.8639 124.212C87.8854 123.286 87.1072 122.17 86.5774 120.931C86.0477 119.693 85.7776 118.359 85.7839 117.012V116.148C85.7839 115.936 85.6996 115.732 85.5496 115.582C85.3996 115.432 85.1961 115.348 84.9839 115.348C84.7717 115.348 84.5682 115.432 84.4182 115.582C84.2682 115.732 84.1839 115.936 84.1839 116.148V117.012C84.178 118.574 84.4922 120.122 85.1072 121.558C85.7223 122.995 86.625 124.29 87.7599 125.364C87.9082 125.507 88.1059 125.587 88.3119 125.588C88.4965 125.57 88.6691 125.488 88.7999 125.356L88.8639 125.348ZM85.7519 106.604V97.0519C85.7519 96.8398 85.6676 96.6363 85.5176 96.4862C85.3676 96.3362 85.1641 96.2519 84.9519 96.2519C84.7397 96.2519 84.5362 96.3362 84.3862 96.4862C84.2362 96.6363 84.1519 96.8398 84.1519 97.0519V106.612C84.1519 106.824 84.2362 107.028 84.3862 107.178C84.5362 107.328 84.7397 107.412 84.9519 107.412C85.1641 107.412 85.3676 107.328 85.5176 107.178C85.6676 107.028 85.7519 106.824 85.7519 106.612V106.604ZM85.7519 87.4839V85.4839C85.7484 83.107 86.4561 80.7834 87.7839 78.8119C87.8422 78.721 87.882 78.6196 87.9011 78.5133C87.9202 78.407 87.9182 78.298 87.8952 78.1926C87.8721 78.0871 87.8286 77.9872 87.7669 77.8985C87.7053 77.8099 87.6268 77.7342 87.5359 77.6759C87.445 77.6176 87.3436 77.5778 87.2373 77.5587C87.131 77.5396 87.022 77.5416 86.9165 77.5646C86.8111 77.5877 86.7111 77.6313 86.6225 77.6929C86.5338 77.7545 86.4582 77.833 86.3999 77.9239C84.889 80.1583 84.0836 82.7947 84.0879 85.4919V87.4919C84.0879 87.7041 84.1722 87.9076 84.3222 88.0576C84.4722 88.2076 84.6757 88.2919 84.8879 88.2919C85.1001 88.2919 85.3036 88.2076 85.4536 88.0576C85.6036 87.9076 85.6879 87.7041 85.6879 87.4919L85.7519 87.4839ZM94.9839 73.8839C95.8756 73.6758 96.7883 73.5711 97.7039 73.5719H104.336C104.548 73.5719 104.752 73.4876 104.902 73.3376C105.052 73.1876 105.136 72.9841 105.136 72.7719C105.136 72.5597 105.052 72.3563 104.902 72.2062C104.752 72.0562 104.548 71.9719 104.336 71.9719H97.7039C96.6672 71.9726 95.634 72.0907 94.6239 72.3239C94.5214 72.3475 94.4246 72.391 94.339 72.4521C94.2534 72.5131 94.1806 72.5904 94.1249 72.6795C94.0692 72.7687 94.0316 72.868 94.0142 72.9717C93.9969 73.0754 94.0002 73.1815 94.0239 73.2839C94.0661 73.4629 94.1687 73.6219 94.3144 73.7341C94.4602 73.8463 94.6401 73.9048 94.8239 73.8999C94.8653 73.8877 94.9055 73.8717 94.9439 73.8519L94.9839 73.8839ZM114.016 73.3799C115.693 73.0836 117.294 72.459 118.729 71.5419C120.164 70.6248 121.403 69.4333 122.376 68.0359C122.497 67.8618 122.543 67.647 122.506 67.4386C122.468 67.2301 122.35 67.045 122.176 66.9239C122.002 66.8033 121.787 66.7566 121.579 66.7941C121.37 66.8315 121.185 66.9502 121.064 67.1239C119.341 69.5929 116.708 71.2763 113.744 71.8039C113.532 71.822 113.335 71.9235 113.198 72.0863C113.061 72.2491 112.994 72.4597 113.012 72.6719C113.03 72.8841 113.132 73.0804 113.294 73.2177C113.457 73.355 113.668 73.422 113.88 73.4039L114.016 73.3799ZM124.64 58.4359V51.9399C124.64 50.985 124.758 50.0338 124.992 49.1079C125.029 49.003 125.044 48.8915 125.036 48.7804C125.028 48.6693 124.997 48.5612 124.944 48.4629C124.892 48.3647 124.819 48.2784 124.732 48.2097C124.644 48.141 124.543 48.0914 124.435 48.064C124.327 48.0366 124.215 48.032 124.105 48.0506C123.995 48.0692 123.89 48.1104 123.797 48.1718C123.705 48.2332 123.625 48.3133 123.565 48.407C123.505 48.5007 123.465 48.6059 123.448 48.7159C123.177 49.7611 123.04 50.8363 123.04 51.9159V58.4119C123.04 58.6241 123.124 58.8276 123.274 58.9776C123.424 59.1276 123.628 59.2119 123.84 59.2119C124.052 59.2119 124.256 59.1276 124.406 58.9776C124.556 58.8276 124.64 58.6241 124.64 58.4119V58.4359ZM130.24 42.1879C131.962 41.1852 133.919 40.6579 135.912 40.6599H139.112C139.324 40.6599 139.528 40.5756 139.678 40.4256C139.828 40.2756 139.912 40.0721 139.912 39.8599C139.912 39.6477 139.828 39.4443 139.678 39.2942C139.528 39.1442 139.324 39.0599 139.112 39.0599H135.912C133.636 39.0573 131.399 39.6592 129.432 40.8039C129.341 40.8569 129.261 40.9272 129.197 41.011C129.134 41.0948 129.087 41.1903 129.06 41.2921C129.034 41.394 129.027 41.5001 129.042 41.6044C129.056 41.7087 129.091 41.8091 129.144 41.8999C129.197 41.9909 129.267 42.0706 129.351 42.1343C129.435 42.1981 129.53 42.2447 129.632 42.2714C129.734 42.2982 129.84 42.3046 129.944 42.2903C130.049 42.2759 130.149 42.2411 130.24 42.1879ZM292.8 39.8599C292.8 39.6477 292.716 39.4443 292.566 39.2942C292.416 39.1442 292.212 39.0599 292 39.0599H282.456C282.244 39.0599 282.04 39.1442 281.89 39.2942C281.74 39.4443 281.656 39.6477 281.656 39.8599C281.656 40.0721 281.74 40.2756 281.89 40.4256C282.04 40.5756 282.244 40.6599 282.456 40.6599H292C292.212 40.6599 292.416 40.5756 292.566 40.4256C292.716 40.2756 292.8 40.0721 292.8 39.8599ZM273.688 39.8599C273.688 39.6477 273.604 39.4443 273.454 39.2942C273.304 39.1442 273.1 39.0599 272.888 39.0599H263.344C263.132 39.0599 262.928 39.1442 262.778 39.2942C262.628 39.4443 262.544 39.6477 262.544 39.8599C262.544 40.0721 262.628 40.2756 262.778 40.4256C262.928 40.5756 263.132 40.6599 263.344 40.6599H272.904C273.116 40.6599 273.32 40.5756 273.47 40.4256C273.62 40.2756 273.704 40.0721 273.704 39.8599H273.688ZM254.576 39.8599C254.576 39.6477 254.492 39.4443 254.342 39.2942C254.192 39.1442 253.988 39.0599 253.776 39.0599H244.232C244.02 39.0599 243.816 39.1442 243.666 39.2942C243.516 39.4443 243.432 39.6477 243.432 39.8599C243.432 40.0721 243.516 40.2756 243.666 40.4256C243.816 40.5756 244.02 40.6599 244.232 40.6599H253.792C254.004 40.6599 254.208 40.5756 254.358 40.4256C254.508 40.2756 254.592 40.0721 254.592 39.8599H254.576ZM235.456 39.8599C235.456 39.6477 235.372 39.4443 235.222 39.2942C235.072 39.1442 234.868 39.0599 234.656 39.0599H225.12C224.908 39.0599 224.704 39.1442 224.554 39.2942C224.404 39.4443 224.32 39.6477 224.32 39.8599C224.32 40.0721 224.404 40.2756 224.554 40.4256C224.704 40.5756 224.908 40.6599 225.12 40.6599H234.672C234.884 40.6599 235.088 40.5756 235.238 40.4256C235.388 40.2756 235.472 40.0721 235.472 39.8599H235.456ZM216.344 39.8599C216.344 39.6477 216.26 39.4443 216.11 39.2942C215.96 39.1442 215.756 39.0599 215.544 39.0599H206.008C205.796 39.0599 205.592 39.1442 205.442 39.2942C205.292 39.4443 205.208 39.6477 205.208 39.8599C205.208 40.0721 205.292 40.2756 205.442 40.4256C205.592 40.5756 205.796 40.6599 206.008 40.6599H215.56C215.772 40.6599 215.976 40.5756 216.126 40.4256C216.276 40.2756 216.36 40.0721 216.36 39.8599H216.344ZM197.232 39.8599C197.232 39.6477 197.148 39.4443 196.998 39.2942C196.848 39.1442 196.644 39.0599 196.432 39.0599H186.888C186.676 39.0599 186.472 39.1442 186.322 39.2942C186.172 39.4443 186.088 39.6477 186.088 39.8599C186.088 40.0721 186.172 40.2756 186.322 40.4256C186.472 40.5756 186.676 40.6599 186.888 40.6599H196.448C196.66 40.6599 196.864 40.5756 197.014 40.4256C197.164 40.2756 197.248 40.0721 197.248 39.8599H197.232ZM178.12 39.8599C178.12 39.6477 178.036 39.4443 177.886 39.2942C177.736 39.1442 177.532 39.0599 177.32 39.0599H167.776C167.564 39.0599 167.36 39.1442 167.21 39.2942C167.06 39.4443 166.976 39.6477 166.976 39.8599C166.976 40.0721 167.06 40.2756 167.21 40.4256C167.36 40.5756 167.564 40.6599 167.776 40.6599H177.336C177.548 40.6599 177.752 40.5756 177.902 40.4256C178.052 40.2756 178.136 40.0721 178.136 39.8599H178.12ZM159.008 39.8599C159.008 39.6477 158.924 39.4443 158.774 39.2942C158.624 39.1442 158.42 39.0599 158.208 39.0599H148.664C148.452 39.0599 148.248 39.1442 148.098 39.2942C147.948 39.4443 147.864 39.6477 147.864 39.8599C147.864 40.0721 147.948 40.2756 148.098 40.4256C148.248 40.5756 148.452 40.6599 148.664 40.6599H158.224C158.436 40.6599 158.64 40.5756 158.79 40.4256C158.94 40.2756 159.024 40.0721 159.024 39.8599H159.008ZM278.32 249.34V244.54C278.32 244.328 278.236 244.124 278.086 243.974C277.936 243.824 277.732 243.74 277.52 243.74C277.308 243.74 277.104 243.824 276.954 243.974C276.804 244.124 276.72 244.328 276.72 244.54V249.34C276.72 249.552 276.804 249.756 276.954 249.906C277.104 250.056 277.308 250.14 277.52 250.14C277.732 250.14 277.936 250.056 278.086 249.906C278.236 249.756 278.32 249.552 278.32 249.34Z" fill="black"/>
<path opacity="0.1" d="M69.9041 125.86V121.764H67.2641V125.86H60.6561V121.764H58.0161V125.86H51.4081V121.764H48.8001V125.86H45.9121V150.66H72.7521V125.86H69.9041ZM54.4001 145.028H50.1681V140.796H54.4001V145.028ZM54.4001 138.332H50.1681V134.1H54.4001V138.332ZM61.4481 145.028H57.2161V140.796H61.4481V145.028ZM61.4481 138.332H57.2161V134.1H61.4481V138.332ZM68.4961 145.028H64.2641V140.796H68.4961V145.028ZM68.4961 138.332H64.2641V134.1H68.4961V138.332Z" fill="black"/>
<path opacity="0.1" d="M225.104 328.26V324.164H222.464V328.26H215.856V324.164H213.216V328.26H206.608V324.164H204V328.26H201.152V353.06H227.992V328.26H225.104ZM209.6 347.46H205.368V343.228H209.6V347.46ZM209.6 340.764H205.368V336.5H209.6V340.764ZM216.648 347.46H212.416V343.228H216.648V347.46ZM216.648 340.764H212.416V336.5H216.648V340.764ZM223.696 347.46H219.464V343.228H223.696V347.46ZM223.696 340.764H219.464V336.5H223.696V340.764Z" fill="black"/>
<path opacity="0.1" d="M350.055 30.4278V26.3398H347.415V30.4278H340.799V26.3398H338.159V30.4278H331.559V26.3398H328.911V30.4278H326.063V55.2278H352.903V30.4278H350.055ZM334.551 49.6278H330.319V45.3638H334.551V49.6278ZM334.551 42.9318H330.319V38.6678H334.551V42.9318ZM341.599 49.5958H337.367V45.3638H341.599V49.5958ZM341.599 42.8998H337.367V38.6678H341.599V42.8998ZM348.647 49.5958H344.415V45.3638H348.647V49.5958ZM348.647 42.8998H344.415V38.6678H348.647V42.8998Z" fill="black"/>
<path d="M144.72 62.8994H352.72C353.151 62.8984 353.577 62.9822 353.975 63.1462C354.373 63.3102 354.734 63.551 355.039 63.8549C355.344 64.1589 355.585 64.5199 355.75 64.9174C355.915 65.3149 356 65.7411 356 66.1714V273.003H141.448V66.1714C141.448 65.7417 141.533 65.3163 141.697 64.9193C141.862 64.5223 142.103 64.1616 142.407 63.8578C142.71 63.5539 143.071 63.3129 143.468 63.1485C143.865 62.9841 144.291 62.8994 144.72 62.8994Z" fill="#E5E5E5"/>
<path d="M178.208 133.123C178.209 134.224 177.885 135.3 177.274 136.215C176.664 137.131 175.796 137.845 174.779 138.267C173.763 138.688 172.644 138.799 171.565 138.585C170.486 138.371 169.494 137.841 168.716 137.063C167.938 136.285 167.409 135.293 167.194 134.214C166.98 133.135 167.091 132.016 167.513 131C167.934 129.984 168.648 129.115 169.564 128.505C170.479 127.895 171.556 127.57 172.656 127.571C174.128 127.573 175.539 128.159 176.579 129.2C177.62 130.241 178.206 131.651 178.208 133.123Z" fill="#CCCCCC"/>
<path d="M356 86.3556L328.232 113.02C324.165 112.676 320.073 112.729 316.016 113.18C315.83 113.19 315.644 113.162 315.469 113.097C315.294 113.032 315.135 112.933 315 112.804C309.8 108.724 304.952 79.0036 302.848 62.8996H301.328C303 75.6996 307.888 109.148 314.064 113.996C314.357 114.249 314.697 114.441 315.066 114.559C315.434 114.677 315.823 114.72 316.208 114.684C319.718 114.27 323.258 114.179 326.784 114.412L304.312 136.012L272.696 112.588C271.12 111.419 269.171 110.867 267.216 111.035C265.261 111.203 263.434 112.08 262.08 113.5C258.68 117.06 256.104 119.94 254.408 122.06C252.168 124.852 248.632 129.26 244.688 134.06L232.936 124.596C239.912 115.396 245.944 107.444 249.504 103.348C256.744 95.0196 273.504 74.0116 282.304 62.9316H280.368C271.416 74.2116 255.392 94.2756 248.368 102.356C244.776 106.484 238.768 114.444 231.76 123.66L215.76 110.772C215.85 110.619 215.882 110.44 215.85 110.265C215.818 110.091 215.725 109.935 215.587 109.824C215.449 109.713 215.276 109.656 215.099 109.662C214.922 109.669 214.754 109.739 214.624 109.86L198.912 97.2116C198.837 97.1374 198.746 97.0798 198.647 97.0425C198.548 97.0052 198.442 96.9891 198.336 96.9951C198.231 97.0012 198.127 97.0292 198.033 97.0775C197.939 97.1259 197.856 97.1934 197.789 97.2757C197.722 97.358 197.674 97.4534 197.646 97.5557C197.618 97.6579 197.612 97.7648 197.629 97.8695C197.645 97.9742 197.683 98.0744 197.74 98.1636C197.797 98.2528 197.872 98.3291 197.96 98.3876L213.672 111.036C211.424 113.924 205.112 122.068 200.608 128.148L158.496 95.6836C158.336 95.5753 158.141 95.532 157.95 95.5625C157.759 95.5931 157.587 95.6952 157.469 95.848C157.351 96.0009 157.295 96.1931 157.314 96.3855C157.332 96.5778 157.423 96.756 157.568 96.8836L199.712 129.372C198.784 130.636 197.96 131.772 197.312 132.724C192.32 139.924 185.64 146.796 173.92 143.044C161.92 139.204 160.32 130.38 160.32 130.012C160.29 129.832 160.2 129.669 160.064 129.548L149.12 120.148C149.92 114.308 150.856 106.108 151.88 94.5476C152.968 82.3156 153.824 70.0996 154.28 62.8916H152.8C151.592 81.2916 149.712 104.324 147.768 118.98L142.032 114.1V116.1L147.52 120.82C146.52 128.02 145.504 132.82 144.568 133.484C143.685 133.893 142.836 134.374 142.032 134.924V136.764C143.019 136.03 144.074 135.395 145.184 134.868C145.832 134.58 147.072 134.068 148.864 121.972L158.832 130.54C159.192 132.228 161.584 140.7 173.432 144.492C175.608 145.217 177.883 145.598 180.176 145.62C188.904 145.62 194.496 139.428 198.528 133.62C199.168 132.692 199.984 131.572 200.928 130.332L217.136 142.828C208.44 154.028 199.88 164.428 193.896 170.028C186.76 176.668 177.76 184.428 170.432 190.652C160.168 183.916 150.544 176.636 150.432 176.54H150.384L150.336 176.5L142.08 172.02V173.74L147.928 176.94C146.528 177.292 144.448 177.796 142.08 178.284V179.7C145.752 178.948 148.776 178.156 149.816 177.876C151.504 179.148 160.064 185.54 169.24 191.572C162.32 197.42 157.176 201.628 157.072 201.716C156.923 201.848 156.829 202.032 156.809 202.23C156.788 202.428 156.842 202.627 156.96 202.788C157.094 202.935 157.278 203.028 157.476 203.047C157.674 203.066 157.873 203.011 158.032 202.892C158.136 202.804 163.456 198.444 170.56 192.444C172.672 193.812 174.792 195.148 176.856 196.388L181.656 199.212C185.784 201.652 190.808 204.628 195.776 207.756L181.28 223.508C181.186 223.615 181.122 223.746 181.095 223.887C181.068 224.028 181.08 224.173 181.128 224.308C181.184 224.438 181.273 224.551 181.387 224.635C181.501 224.72 181.635 224.772 181.776 224.788C181.912 224.788 195.184 225.948 205.968 241.14C215.352 254.356 224.256 265.468 239.976 272.996H243.656C226.32 265.612 217.032 254.108 207.2 240.26C198.024 227.324 187.256 224.212 183.368 223.46L197.08 208.572C206.992 214.9 216.352 221.764 217.464 226.212C219.064 232.7 226.952 240.7 230.736 244.54C231.704 245.524 232.536 246.372 232.72 246.652C233.776 248.252 240.72 252.18 242.072 252.956L242.24 253.02C243.6 253.404 251.952 255.676 258.576 255.676C262.032 255.676 265.016 255.06 266.296 253.228C268.344 250.316 274.296 245.628 279.096 241.868C282.488 239.196 285.424 236.892 286.496 235.604C286.792 235.244 288.152 234.004 290.328 232.02L295.976 237.668L252.856 272.972H255.256L297.056 238.74L304.512 246.196L274.392 272.972H276.672L306.12 246.796C306.196 246.725 306.257 246.64 306.299 246.545C306.34 246.45 306.362 246.347 306.362 246.244C306.362 246.14 306.34 246.037 306.299 245.942C306.257 245.847 306.196 245.762 306.12 245.692L298.208 237.78L334.424 208.116L346.728 218.02L301.232 258.46C300.451 259.156 299.899 260.073 299.649 261.089C299.4 262.106 299.464 263.174 299.834 264.153C300.204 265.132 300.862 265.976 301.722 266.574C302.581 267.171 303.602 267.494 304.648 267.5C305.84 267.496 306.995 267.084 307.92 266.332L355.408 225.004L356.08 225.548V222.412L355.368 223.028L349.072 217.964L356.08 211.732V209.708L347.88 216.996L335.624 207.132L356 190.42V188.5L334.32 206.196L326.624 199.996C336.808 191.108 347.304 181.988 355.984 174.452V172.444C349.872 177.748 337.856 188.188 325.424 199.036L310.224 186.804C323.608 173.62 341.608 155.772 344.456 152.292C349.256 146.42 351.152 129.316 346.552 121.14C343.776 116.204 336.952 114.036 330.184 113.22L355.976 88.4196L356 86.3556ZM347.832 219.012L354.112 224.068L306.848 265.204C306.106 265.828 305.145 266.133 304.178 266.049C303.211 265.966 302.317 265.502 301.692 264.76C301.067 264.017 300.763 263.057 300.846 262.09C300.93 261.123 301.394 260.228 302.136 259.604L347.832 219.012ZM255.576 123.012C257.176 120.956 259.84 118.036 263.16 114.548C264.261 113.398 265.743 112.689 267.329 112.554C268.915 112.418 270.496 112.865 271.776 113.812L303.2 137.06L278.232 161.06L245.856 134.98C251.256 128.388 255.464 123.132 255.576 122.988V123.012ZM232 125.78L243.704 135.204C239.272 140.604 234.432 146.404 230.392 151.1L219.192 142.492C223.576 136.892 227.936 131.148 232 125.78ZM201.776 129.044C206.256 122.988 212.56 114.86 214.816 111.956L230.816 124.828C226.744 130.212 222.376 135.956 218.016 141.564L201.776 129.044ZM194.88 171.052C200.936 165.452 209.552 154.908 218.288 143.684L229.4 152.252C225.656 156.556 222.752 159.684 221.768 160.252C219.104 161.78 198.136 172.156 188.384 176.98C190.656 174.948 192.848 172.956 194.888 171.052H194.88ZM196.728 206.636C191.776 203.508 186.696 200.508 182.328 197.924C180.608 196.908 179.008 195.964 177.584 195.108C175.656 193.948 173.68 192.708 171.712 191.436C175.56 188.172 179.848 184.492 184.08 180.78C185.504 180.076 218.992 163.572 222.48 161.58C223.608 160.932 226.736 157.58 230.648 153.084H230.688C230.804 153.085 230.919 153.058 231.023 153.007C231.128 152.955 231.218 152.88 231.288 152.788C231.354 152.702 231.4 152.604 231.424 152.499C231.447 152.394 231.447 152.285 231.424 152.18C235.6 147.38 240.528 141.42 244.848 136.18L277.12 162.1L260.52 178.044H260.48L234.688 209.788L211.512 191.62C211.358 191.51 211.169 191.458 210.98 191.474C210.791 191.49 210.614 191.573 210.48 191.708L196.728 206.636ZM264.96 252.396C262.328 256.156 248.04 253.132 242.64 251.596C239.568 249.86 234.544 246.796 233.888 245.82C233.218 244.994 232.493 244.214 231.72 243.484C228.032 239.74 220.36 231.94 218.84 225.884C217.616 220.98 208.232 213.996 198.04 207.484L211.128 193.276L234.328 211.524C234.487 211.637 234.683 211.689 234.878 211.668C235.072 211.647 235.252 211.556 235.384 211.412L260.496 180.5L268.352 248.764C267.108 249.86 265.974 251.077 264.968 252.396H264.96ZM289.656 230.508C287.152 232.764 285.552 234.252 285.2 234.668C284.232 235.828 281.2 238.204 278 240.708C275.2 242.916 272.2 245.284 269.696 247.476L261.84 178.9L278.304 163.084L307.952 186.9C300.352 194.388 294.512 200.092 294.352 200.244C294.237 200.362 294.162 200.513 294.136 200.676L289.656 230.508ZM325.456 201.012L333.112 207.18L297.024 236.732L291.328 231.036C298.256 224.812 311.488 213.212 325.464 201.012H325.456ZM324.256 200.044C311.656 211.044 298.808 222.308 291.456 228.916L295.616 201.172C296.808 200.004 302.28 194.652 309.168 187.876L324.256 200.044ZM309.056 185.844L279.456 161.996L304.472 137.996L334.712 160.396C327.512 167.604 317.368 177.652 309.04 185.844H309.056ZM345.256 121.844C349.52 129.444 347.736 145.884 343.304 151.3C342.344 152.476 339.552 155.396 335.752 159.252L305.544 136.852L328.8 114.572C335.824 115.284 342.712 117.388 345.24 121.876L345.256 121.844Z" fill="white"/>
<path d="M348.608 248.739H228.12V269.515H348.608V248.739Z" fill="white"/>
<path d="M244.168 258.659H236.24V267.723H244.168V258.659Z" fill="#4F3ED7"/>
<path d="M255.12 258.468H247.192V267.724H255.12V258.468Z" fill="#4F3ED7"/>
<path d="M266.073 256.396H258.145V267.724H266.073V256.396Z" fill="#4F3ED7"/>
<path d="M277.025 261.684H269.097V267.724H277.025V261.684Z" fill="#4F3ED7"/>
<path d="M287.976 255.636H280.048V267.724H287.976V255.636Z" fill="#4F3ED7"/>
<path d="M298.936 259.228H291.008V267.724H298.936V259.228Z" fill="#4F3ED7"/>
<path d="M309.888 263.188H301.96V267.724H309.888V263.188Z" fill="#4F3ED7"/>
<path d="M320.848 260.924H312.912V267.724H320.848V260.924Z" fill="#4F3ED7"/>
<path d="M331.792 262.812H323.864V267.724H331.792V262.812Z" fill="#4F3ED7"/>
<path d="M342.752 255.636H334.824V267.724H342.752V255.636Z" fill="#4F3ED7"/>
<path d="M142.032 273.004H195.632C191.96 271.244 186.44 268.476 185.768 267.476C184.76 265.964 179.208 256.364 176.168 255.86C173.128 255.356 172.128 258.892 172.128 258.892L178.688 269.5L176.168 267.98C176.168 267.98 170.104 261.412 168.592 260.404C167.08 259.396 168.592 255.356 169.096 252.324C169.6 249.292 173.096 247.276 174.144 244.748C175.192 242.22 174.144 234.644 174.144 232.124C174.144 229.604 169.6 222.02 166.568 215.956C163.536 209.892 153.44 198.284 147.88 195.756C146.003 194.984 144.026 194.48 142.008 194.26L142.032 273.004Z" fill="#CCCCCC"/>
<path d="M268.112 123.02L260.032 133.124L270.136 146.26L288.824 136.66L268.112 123.02Z" fill="#CCCCCC"/>
<path d="M278.217 168.483L266.601 179.595L271.145 204.339L283.769 207.875L287.817 197.267L299.937 185.651L278.217 168.483Z" fill="#CCCCCC"/>
<path d="M144.72 62.8994H352.72C353.151 62.8984 353.577 62.9822 353.975 63.1462C354.373 63.3102 354.734 63.551 355.039 63.8549C355.344 64.1589 355.585 64.5199 355.75 64.9174C355.915 65.3149 356 65.7411 356 66.1714V273.003H141.448V66.1714C141.448 65.7417 141.533 65.3163 141.697 64.9193C141.862 64.5223 142.103 64.1616 142.407 63.8578C142.71 63.5539 143.071 63.3129 143.468 63.1485C143.865 62.9841 144.291 62.8994 144.72 62.8994Z" stroke="#263238" stroke-linecap="round" stroke-linejoin="round"/>
<path d="M144.72 62.8994H352.72C353.151 62.8984 353.577 62.9822 353.975 63.1462C354.373 63.3102 354.734 63.551 355.039 63.8549C355.344 64.1589 355.585 64.5199 355.75 64.9174C355.915 65.3149 356 65.7411 356 66.1714V103.299H141.448V66.1714C141.448 65.7417 141.533 65.3163 141.697 64.9193C141.862 64.5223 142.103 64.1616 142.407 63.8578C142.71 63.5539 143.071 63.3129 143.468 63.1485C143.865 62.9841 144.291 62.8994 144.72 62.8994Z" fill="#4F3ED7" stroke="#263238" stroke-linecap="round" stroke-linejoin="round"/>
<path d="M324.68 88.1719H155.48V95.2439H324.68V88.1719Z" fill="white" stroke="#263238" stroke-linecap="round" stroke-linejoin="round"/>
<path d="M352.88 62.8995H155.344V81.0915H356V65.9955C355.999 65.5872 355.917 65.1831 355.76 64.8064C355.602 64.4296 355.372 64.0877 355.082 63.8001C354.792 63.5125 354.449 63.2849 354.071 63.1304C353.693 62.9758 353.288 62.8973 352.88 62.8995Z" fill="#808080" stroke="#263238" stroke-linecap="round" stroke-linejoin="round"/>
<path d="M144.72 62.8994H352.72C353.151 62.8984 353.577 62.9822 353.975 63.1462C354.373 63.3102 354.734 63.551 355.039 63.8549C355.344 64.1589 355.585 64.5199 355.75 64.9174C355.915 65.3149 356 65.7411 356 66.1714V74.7314H141.448V66.1714C141.448 65.7417 141.533 65.3163 141.697 64.9193C141.862 64.5223 142.103 64.1616 142.407 63.8578C142.71 63.5539 143.071 63.3129 143.468 63.1485C143.865 62.9841 144.291 62.8994 144.72 62.8994Z" fill="#263238" stroke="#263238" stroke-linecap="round" stroke-linejoin="round"/>
<path d="M347.169 70.6353C348.061 70.6353 348.785 69.9118 348.785 69.0193C348.785 68.1268 348.061 67.4033 347.169 67.4033C346.276 67.4033 345.553 68.1268 345.553 69.0193C345.553 69.9118 346.276 70.6353 347.169 70.6353Z" fill="white"/>
<path d="M340.496 70.6353C341.388 70.6353 342.112 69.9118 342.112 69.0193C342.112 68.1268 341.388 67.4033 340.496 67.4033C339.603 67.4033 338.88 68.1268 338.88 69.0193C338.88 69.9118 339.603 70.6353 340.496 70.6353Z" fill="white"/>
<path d="M333.824 70.6353C334.716 70.6353 335.44 69.9118 335.44 69.0193C335.44 68.1268 334.716 67.4033 333.824 67.4033C332.932 67.4033 332.208 68.1268 332.208 69.0193C332.208 69.9118 332.932 70.6353 333.824 70.6353Z" fill="white"/>
<path d="M299.92 134.899H273.28C272.784 134.898 272.292 134.995 271.833 135.185C271.374 135.374 270.956 135.652 270.605 136.003C270.253 136.353 269.975 136.77 269.784 137.229C269.594 137.687 269.496 138.179 269.496 138.675V163.699C269.496 164.196 269.594 164.688 269.784 165.146C269.975 165.605 270.253 166.022 270.605 166.372C270.956 166.723 271.374 167.001 271.833 167.19C272.292 167.38 272.784 167.476 273.28 167.475H281.16L286.952 178.899L292.272 167.499H299.92C300.922 167.499 301.882 167.102 302.59 166.393C303.298 165.685 303.696 164.725 303.696 163.723V138.675C303.696 137.674 303.298 136.714 302.59 136.005C301.882 135.297 300.922 134.899 299.92 134.899Z" fill="#263238" stroke="#263238" stroke-linecap="round" stroke-linejoin="round"/>
<path d="M281.601 147.052L282.521 140.932H284.409V149.556H283.129V143.372L282.193 149.556H280.913L279.897 143.46V149.556H278.721V140.932H280.601L281.601 147.052Z" fill="#4F3ED7"/>
<path d="M285.248 143.003C285.248 142.458 285.465 141.935 285.85 141.549C286.236 141.164 286.759 140.947 287.304 140.947C287.849 140.947 288.372 141.164 288.758 141.549C289.143 141.935 289.36 142.458 289.36 143.003V147.483C289.36 148.029 289.143 148.552 288.758 148.937C288.372 149.323 287.849 149.539 287.304 149.539C286.759 149.539 286.236 149.323 285.85 148.937C285.465 148.552 285.248 148.029 285.248 147.483V143.003ZM286.6 147.571C286.6 148.187 286.872 148.419 287.304 148.419C287.736 148.419 288 148.187 288 147.571V142.899C288 142.283 287.728 142.051 287.304 142.051C286.88 142.051 286.6 142.283 286.6 142.899V147.571Z" fill="#4F3ED7"/>
<path d="M291.441 143.308V149.556H290.225V140.932H291.921L293.313 146.092V140.932H294.521V149.556H293.129L291.441 143.308Z" fill="#4F3ED7"/>
<path d="M284.192 153.876C283.76 153.876 283.496 154.108 283.496 154.724V155.644H282.208V154.844C282.208 153.46 282.904 152.676 284.232 152.676C285.56 152.676 286.248 153.476 286.248 154.844C286.248 157.548 283.552 158.564 283.552 159.98C283.545 160.041 283.545 160.103 283.552 160.164H286.112V161.396H282.192V160.332C282.192 157.796 284.88 157.38 284.88 154.892C284.896 154.1 284.624 153.876 284.192 153.876Z" fill="#4F3ED7"/>
<path d="M289.072 153.876C288.64 153.876 288.368 154.108 288.368 154.724V155.644H287.088V154.844C287.088 153.46 287.784 152.676 289.112 152.676C290.44 152.676 291.128 153.476 291.128 154.844C291.128 157.548 288.432 158.564 288.432 159.98C288.425 160.041 288.425 160.103 288.432 160.164H290.992V161.396H287.072V160.332C287.072 157.796 289.76 157.38 289.76 154.892C289.776 154.1 289.504 153.876 289.072 153.876Z" fill="#4F3ED7"/>
<path d="M286.6 187.332C288.231 187.332 289.552 186.01 289.552 184.38C289.552 182.749 288.231 181.428 286.6 181.428C284.97 181.428 283.648 182.749 283.648 184.38C283.648 186.01 284.97 187.332 286.6 187.332Z" fill="#4F3ED7" stroke="#263238" stroke-linecap="round" stroke-linejoin="round"/>
<path d="M195.496 113.46C197.126 113.46 198.448 112.138 198.448 110.508C198.448 108.877 197.126 107.556 195.496 107.556C193.866 107.556 192.544 108.877 192.544 110.508C192.544 112.138 193.866 113.46 195.496 113.46Z" fill="#4F3ED7" stroke="#263238" stroke-linecap="round" stroke-linejoin="round"/>
<path d="M237.352 183.396C237.351 183.979 237.176 184.549 236.851 185.033C236.526 185.518 236.064 185.895 235.524 186.117C234.985 186.339 234.392 186.397 233.819 186.282C233.247 186.167 232.722 185.885 232.31 185.472C231.898 185.059 231.618 184.533 231.504 183.961C231.391 183.388 231.45 182.795 231.674 182.256C231.897 181.717 232.276 181.257 232.761 180.932C233.246 180.608 233.817 180.436 234.4 180.436C234.789 180.436 235.173 180.512 235.532 180.661C235.89 180.81 236.216 181.028 236.49 181.303C236.765 181.578 236.982 181.904 237.13 182.263C237.278 182.622 237.353 183.007 237.352 183.396Z" fill="#4F3ED7" stroke="#263238" stroke-linecap="round" stroke-linejoin="round"/>
<path d="M171.688 164.099C173.319 164.099 174.64 162.778 174.64 161.147C174.64 159.517 173.319 158.195 171.688 158.195C170.058 158.195 168.736 159.517 168.736 161.147C168.736 162.778 170.058 164.099 171.688 164.099Z" fill="#4F3ED7" stroke="#263238" stroke-linecap="round" stroke-linejoin="round"/>
<path d="M183.937 235.451C183.937 236.037 183.763 236.609 183.438 237.096C183.112 237.582 182.65 237.962 182.109 238.186C181.568 238.41 180.973 238.469 180.399 238.354C179.825 238.24 179.298 237.958 178.884 237.544C178.47 237.13 178.188 236.603 178.073 236.029C177.959 235.455 178.018 234.859 178.242 234.318C178.466 233.778 178.845 233.315 179.332 232.99C179.819 232.665 180.391 232.491 180.977 232.491C181.762 232.491 182.515 232.803 183.07 233.358C183.625 233.913 183.937 234.666 183.937 235.451Z" fill="#4F3ED7" stroke="#263238" stroke-linecap="round" stroke-linejoin="round"/>
<path d="M320.792 233.515C322.422 233.515 323.744 232.194 323.744 230.563C323.744 228.933 322.422 227.611 320.792 227.611C319.162 227.611 317.84 228.933 317.84 230.563C317.84 232.194 319.162 233.515 320.792 233.515Z" fill="#4F3ED7" stroke="#263238" stroke-linecap="round" stroke-linejoin="round"/>
<path d="M335.921 142.588C337.551 142.588 338.873 141.266 338.873 139.636C338.873 138.005 337.551 136.684 335.921 136.684C334.29 136.684 332.969 138.005 332.969 139.636C332.969 141.266 334.29 142.588 335.921 142.588Z" fill="#4F3ED7" stroke="#263238" stroke-linecap="round" stroke-linejoin="round"/>
<path d="M320.089 113.956C321.719 113.956 323.041 112.634 323.041 111.004C323.041 109.373 321.719 108.052 320.089 108.052C318.458 108.052 317.137 109.373 317.137 111.004C317.137 112.634 318.458 113.956 320.089 113.956Z" fill="#4F3ED7" stroke="#263238" stroke-linecap="round" stroke-linejoin="round"/>
<path d="M328.145 187.523C328.145 188.109 327.971 188.682 327.645 189.169C327.32 189.656 326.857 190.035 326.316 190.259C325.774 190.483 325.179 190.541 324.604 190.426C324.03 190.311 323.502 190.028 323.089 189.614C322.675 189.199 322.394 188.671 322.281 188.096C322.167 187.521 322.227 186.926 322.452 186.385C322.677 185.844 323.058 185.383 323.546 185.058C324.034 184.734 324.607 184.562 325.193 184.563C325.581 184.563 325.965 184.64 326.324 184.789C326.683 184.938 327.009 185.156 327.283 185.431C327.557 185.706 327.774 186.032 327.922 186.391C328.07 186.75 328.146 187.135 328.145 187.523Z" fill="#4F3ED7" stroke="#263238" stroke-linecap="round" stroke-linejoin="round"/>
<path d="M246.713 159.756C248.343 159.756 249.665 158.434 249.665 156.804C249.665 155.173 248.343 153.852 246.713 153.852C245.082 153.852 243.761 155.173 243.761 156.804C243.761 158.434 245.082 159.756 246.713 159.756Z" fill="#4F3ED7" stroke="#263238" stroke-linecap="round" stroke-linejoin="round"/>
<path d="M76.3996 286.1C76.3996 286.1 78.1996 306.1 78.7996 310.3C79.3996 314.5 76.7996 317.1 74.1996 319.9C71.5996 322.7 70.5996 328.5 70.5996 332.9C70.5996 337.3 69.9996 359.3 69.9996 360.7C69.9996 362.1 69.5996 365.5 69.5996 365.5C69.5996 365.5 75.9996 365.3 76.7996 365.3C77.5996 365.3 80.5996 353.9 81.3996 350.7C82.1996 347.5 88.3996 327.3 90.7996 321.7C93.1996 316.1 93.1996 311.9 94.1996 309.7C95.1996 307.5 96.3996 289.5 96.3996 289.5C96.3996 289.5 107.2 308.5 107.6 311.1C108 313.7 108.2 314.3 107.2 316.5C106.2 318.7 104 322.7 104.2 331.3C104.4 339.9 109.12 355.116 109.12 355.116L109.72 364.516C109.72 364.516 113.32 365.916 115.12 366.716C116.92 367.516 119.72 363.316 119.72 363.316C119.72 363.316 119.6 356.3 119.4 351.1C119.2 345.9 120.6 327.1 121.4 323.9C122.2 320.7 123.4 313.7 122.6 309.3C121.8 304.9 119.2 284.7 119.2 284.7C119.2 284.7 88.7996 286.5 84.9996 285.9C81.1996 285.3 76.1996 285.1 76.1996 285.1L76.3996 286.1Z" fill="#263238" stroke="#263238" stroke-linecap="round" stroke-linejoin="round"/>
<path d="M80.3996 358.7L81.5996 364.9C81.5996 364.9 86.5996 369.1 88.5996 370.7C90.5996 372.3 91.7996 371.9 91.7996 373.3C91.7996 374.7 90.3996 376.9 86.9996 377.5C83.5996 378.1 78.9996 377.3 75.1996 376.1C73.038 375.47 71.1097 374.218 69.6556 372.5C69.6556 372.5 67.5596 372.988 67.5596 370.588C67.5596 368.188 69.2876 362.748 69.2876 362.748C69.2876 362.748 68.4876 359.772 69.2876 359.372C70.0876 358.972 72.7996 361.9 72.7996 361.9C72.7996 361.9 73.1996 354.9 80.3996 358.7Z" fill="white" stroke="#263238" stroke-linecap="round" stroke-linejoin="round"/>
<path d="M91.6958 373.988C91.2849 373.864 90.8437 373.887 90.4478 374.052C88.2585 375.287 85.7971 375.96 83.284 376.01C80.771 376.06 78.2847 375.487 76.0478 374.34C71.3358 372.084 68.9278 369.82 67.7998 368.492C67.6552 369.19 67.5722 369.9 67.5518 370.612C67.5518 373.012 69.6478 372.524 69.6478 372.524C71.1073 374.235 73.0382 375.479 75.1998 376.1C78.9998 377.3 83.5998 378.1 86.9998 377.5C89.8798 376.988 91.3198 375.332 91.6958 373.988Z" fill="#D2F4DC" stroke="#263238" stroke-linecap="round" stroke-linejoin="round"/>
<path d="M121.472 358.516C120.893 358.407 120.295 358.492 119.769 358.756C119.243 359.021 118.818 359.451 118.56 359.98C117.664 361.86 116.768 364.372 116.768 364.372C115.257 364.233 113.761 363.965 112.296 363.572C111.618 363.192 111.011 362.697 110.504 362.108C110.504 362.108 108.712 358.556 107.592 359.812C106.472 361.068 108.712 365.244 108.712 365.244C108.712 365.244 106.92 368.588 106.92 370.684C106.971 372.118 107.274 373.531 107.816 374.86C109.947 375.347 112.119 375.628 114.304 375.7C117.216 375.7 117.44 374.86 120.576 374.86C123.712 374.86 131.776 376.74 134.456 376.116C137.136 375.492 139.608 373.604 139.384 372.356C139.16 371.108 129.976 367.964 127.064 366.084C124.152 364.204 123.712 364.412 123.264 363.572C122.816 362.732 121.472 358.516 121.472 358.516Z" fill="white" stroke="#263238" stroke-linecap="round" stroke-linejoin="round"/>
<path d="M139.392 372.5C136.304 375.62 132.192 375.14 128.704 374.436C124.414 373.459 120.01 373.077 115.616 373.3C112.822 373.46 110.018 373.367 107.24 373.02C107.387 373.631 107.58 374.23 107.816 374.812C109.947 375.299 112.12 375.58 114.304 375.652C117.216 375.652 117.44 374.812 120.576 374.812C123.712 374.812 131.776 376.692 134.456 376.068C137.008 375.476 139.352 373.756 139.392 372.5Z" fill="#4F3ED7" stroke="#263238" stroke-linecap="round" stroke-linejoin="round"/>
<path d="M71.8002 278.9L71.2002 287.828C71.2002 287.828 86.2002 291.228 98.6002 290.876C111 290.524 124.2 285.324 124.2 285.324L121.6 276.012C121.6 276.012 94.2002 275.836 88.8002 275.476C83.4002 275.116 80.0002 271.356 78.0002 271.892C76.0002 272.428 73.6002 278.7 73.6002 278.7L71.8002 278.9Z" fill="white" stroke="#263238" stroke-linecap="round" stroke-linejoin="round"/>
<path d="M121.599 269.5L123.399 278.7C123.399 278.7 119.599 280.9 107.999 281.9C96.3994 282.9 81.5994 281.5 81.5994 281.5L78.7994 275.5L77.7994 282.5H71.9994C71.4396 282.514 70.8865 282.376 70.3994 282.1L72.1994 274.7C72.1994 274.7 72.9994 267.3 76.7994 265.5C80.5994 263.7 83.7994 265.7 86.3994 268.1C88.9994 270.5 91.9994 270.1 96.1994 270.1C100.399 270.1 118.199 268.3 118.199 268.3C118.199 268.3 121.199 267.3 121.599 269.5Z" fill="#969696" stroke="#263238" stroke-linecap="round" stroke-linejoin="round"/>
<path d="M115.6 201.5C115.6 201.5 122.8 219.9 125.8 226.5C128.8 233.1 131.6 240.7 131.2 244.9C130.8 249.1 125.8 260.1 125.8 260.1C125.8 260.1 121 228.5 120 225.3C119 222.1 114.4 204.3 114.4 204.3C114.4 204.3 112.4 200.5 115.6 201.5Z" fill="#4F3ED7" stroke="#263238" stroke-linecap="round" stroke-linejoin="round"/>
<path d="M76.3282 194.524C76.3282 194.524 72.1282 198.884 70.8322 204.212C69.5362 209.54 68.5762 276.06 68.5762 277.188C68.5762 278.316 73.3762 275.732 74.3842 275.252C75.3922 274.772 79.3922 267.18 79.3922 267.18L81.3282 274.924C81.3282 274.924 90.2082 273.956 97.6402 273.956C105.072 273.956 124.6 272.18 124.6 272.18C124.6 272.18 126.376 261.364 126.2 255.548C126.024 249.732 124.8 240.54 124.8 239.084C124.8 237.628 118.664 206.956 116.408 202.436C114.152 197.916 111.24 193.876 110.752 193.556C110.264 193.236 104.456 189.836 98.9682 189.556C93.4802 189.276 89.7682 187.78 84.9202 190.044C80.0722 192.308 76.3282 194.524 76.3282 194.524Z" fill="#4F3ED7" stroke="#263238" stroke-linecap="round" stroke-linejoin="round"/>
<path d="M107.808 214.38C107.808 214.38 110.552 230.204 111.36 235.532C112.168 240.86 113.944 261.684 113.944 264.756V272.02" stroke="#263238" stroke-linecap="round" stroke-linejoin="round"/>
<path d="M102.968 221.164C102.968 221.164 106.032 236.988 107.648 246.508C109.264 256.028 108.8 269.596 108.8 269.596" stroke="#263238" stroke-linecap="round" stroke-linejoin="round"/>
<path d="M85.5283 222.452L99.4163 221.164L99.8963 224.228L86.4963 225.356" stroke="#263238" stroke-linecap="round" stroke-linejoin="round"/>
<path d="M120.24 219.22L112.168 219.868L112.816 222.612L119.92 221.972" stroke="#263238" stroke-linecap="round" stroke-linejoin="round"/>
<path d="M96.9921 179.988C96.9921 179.988 89.5601 178.54 87.3041 179.508C85.0481 180.476 82.9441 184.348 82.2961 185.644C81.6481 186.94 74.8721 189.644 74.3841 191.612C73.8961 193.58 74.2241 196.78 75.0321 197.588C75.8401 198.396 80.5201 198.076 81.6561 198.388C82.7921 198.7 97.9601 208.724 100.544 210.34C103.128 211.956 107.648 214.212 108.296 213.54C108.944 212.868 112.976 202.9 113.6 198.236C114.224 193.572 113.432 192.42 111.336 188.548C109.24 184.676 100.864 180.5 96.9921 179.988Z" fill="#263238" stroke="#263238" stroke-linecap="round" stroke-linejoin="round"/>
<path d="M94.7278 167.236C94.7278 167.236 95.8638 174.34 95.8638 176.276C95.8638 178.212 92.7998 187.42 92.7998 187.42C92.7998 187.42 98.9358 200.66 102.328 204.372C105.72 208.084 107.336 208.892 107.336 208.892C107.336 208.892 107.816 201.3 108.304 197.748C108.792 194.196 113.904 183.812 113.904 183.812C113.904 183.812 106.216 184.996 105.248 179.988C104.28 174.98 104.6 170.628 103.648 168.044C102.696 165.46 96.6718 166.1 94.7278 167.236Z" fill="white" stroke="#263238" stroke-linecap="round" stroke-linejoin="round"/>
<path d="M105.64 181.436L101.952 180.748L102.256 183.948C102.256 183.948 104.528 189.86 108.776 192.892C108.998 193.05 109.228 193.197 109.464 193.332C110.344 190.788 113.88 183.828 113.88 183.828C113.88 183.828 107.2 185.668 105.64 181.436Z" fill="#263238" stroke="#263238" stroke-linecap="round" stroke-linejoin="round"/>
<path d="M118.632 165.252L118.376 169.684C118.376 169.684 122.376 172.58 122.776 173.98C123.176 175.38 120.84 177.18 120.84 177.18C120.84 177.18 120.48 184.828 119.816 186.028C119.152 187.228 115.816 187.324 113.976 187.34C112.136 187.356 103.008 184.732 101.432 183.34C99.8558 181.948 97.9518 176.94 97.9518 176.94C97.9518 176.94 95.9358 169.796 95.6238 168.708C95.3118 167.62 96.4238 166.132 101.224 164.62C106.024 163.108 118.888 163.172 118.632 165.252Z" fill="white" stroke="#263238" stroke-linecap="round" stroke-linejoin="round"/>
<path d="M97.0562 170.46C97.0562 170.46 98.1602 172.924 100.256 171.372C101.572 170.222 102.451 168.654 102.744 166.932L90.5202 170.244C90.5202 170.244 89.5682 175.22 91.4882 177.588C93.4082 179.956 96.2082 178.612 96.0482 176.58C95.8882 174.548 97.0562 170.46 97.0562 170.46Z" fill="#263238" stroke="#263238" stroke-linecap="round" stroke-linejoin="round"/>
<path d="M117.503 179.7C117.503 179.7 114.839 179.78 113.271 178.372" stroke="#263238" stroke-linecap="round" stroke-linejoin="round"/>
<path d="M114.608 169.996C114.816 170.724 114.704 171.396 114.36 171.492C114.016 171.588 113.56 171.076 113.36 170.348C113.16 169.62 113.272 168.948 113.616 168.852C113.96 168.756 114.4 169.3 114.608 169.996Z" fill="#263238"/>
<path d="M90.3201 170.732C90.3201 170.732 97.5201 169.532 106.232 167.076C114.944 164.62 118.728 163.212 118.728 163.212L114.84 150.94C114.372 149.865 113.515 149.008 112.44 148.54C109.952 147.42 104.784 147.676 101.064 148.252C95.7601 149.052 91.6561 150.58 89.5361 154.364C87.8994 157.453 87.4771 161.043 88.3521 164.428C88.9361 166.42 90.3201 170.732 90.3201 170.732Z" fill="#263238" stroke="#263238" stroke-linecap="round" stroke-linejoin="round"/>
<path d="M103.28 167.908C103.28 167.908 116.504 167.196 121.56 166.108C126.616 165.02 130.784 158.972 130.784 158.972L118.672 160.572C112.902 161.35 107.519 163.915 103.28 167.908Z" fill="#263238" stroke="#263238" stroke-linecap="round" stroke-linejoin="round"/>
<path d="M98.2559 171.508C98.2559 171.508 97.1359 168.132 94.2559 169.276C91.3759 170.42 92.9679 176.02 95.1119 178.26C97.2559 180.5 99.9119 177.412 99.9119 177.412" fill="white"/>
<path d="M98.2559 171.508C98.2559 171.508 97.1359 168.132 94.2559 169.276C91.3759 170.42 92.9679 176.02 95.1119 178.26C97.2559 180.5 99.9119 177.412 99.9119 177.412" stroke="#263238" stroke-linecap="round" stroke-linejoin="round"/>
<path d="M112.328 239.7L126.4 229.18C126.495 229.112 126.612 229.081 126.728 229.092L136.592 230.036C136.712 230.049 136.824 230.099 136.914 230.179C137.004 230.259 137.067 230.365 137.093 230.482C137.12 230.6 137.109 230.722 137.062 230.833C137.015 230.944 136.935 231.037 136.832 231.1L124.288 238.596L112.328 239.7Z" fill="#263238" stroke="#263238" stroke-linecap="round" stroke-linejoin="round"/>
<path d="M103.608 240.372C104.985 240.245 106.288 239.685 107.328 238.772C108.776 237.316 111.328 232.956 112.488 232.636C115.15 232.045 117.846 231.612 120.56 231.34C121.696 231.34 122.336 232.14 121.36 233.116C120.384 234.092 115.872 236.188 115.872 236.188L115.392 237.788C115.392 237.788 127.656 236.34 128.632 236.34C129.047 236.368 129.438 236.546 129.732 236.84C130.026 237.134 130.204 237.525 130.232 237.94C130.232 238.58 127.648 240.524 126.848 241.324C124.845 243.015 122.74 244.581 120.544 246.012C119.416 246.652 107.792 245.684 107.312 245.684C106.832 245.684 103.432 246.484 103.432 246.484L103.608 240.372Z" fill="white" stroke="#263238" stroke-linecap="round" stroke-linejoin="round"/>
<path d="M128.8 239.404C128.8 239.404 123.632 240.54 122.504 241.18C121.376 241.82 117.496 241.18 117.496 241.18" stroke="#263238" stroke-linecap="round" stroke-linejoin="round"/>
<path d="M125.079 242.636L121.527 243.764L117.815 243.924" stroke="#263238" stroke-linecap="round" stroke-linejoin="round"/>
<path d="M85.2079 209.7C85.3679 212.604 81.8159 230.204 81.8159 230.204L82.6159 232.788V233.436L105.056 239.564C105.056 239.564 105.056 245.7 104.088 248.444C103.33 250.933 102.737 253.469 102.312 256.036C102.312 256.036 92.4639 253.636 84.3919 250.868C76.3199 248.1 63.7199 244.092 61.3039 241.34C58.8879 238.588 60.3359 231.66 60.6559 230.524C60.9759 229.388 70.0159 205.66 71.7919 202.436C73.5679 199.212 76.1519 196.14 79.5439 197.108C82.9359 198.076 85.5199 202.436 85.8399 204.372" fill="#4F3ED7"/>
<path d="M85.2079 209.7C85.3679 212.604 81.8159 230.204 81.8159 230.204L82.6159 232.788V233.436L105.056 239.564C105.056 239.564 105.056 245.7 104.088 248.444C103.33 250.933 102.737 253.469 102.312 256.036C102.312 256.036 92.4639 253.636 84.3919 250.868C76.3199 248.1 63.7199 244.092 61.3039 241.34C58.8879 238.588 60.3359 231.66 60.6559 230.524C60.9759 229.388 70.0159 205.66 71.7919 202.436C73.5679 199.212 76.1519 196.14 79.5439 197.108C82.9359 198.076 85.5199 202.436 85.8399 204.372" stroke="#263238" stroke-linecap="round" stroke-linejoin="round"/>
<path d="M70.5361 233.988C71.767 233.259 73.0601 232.641 74.4001 232.14C75.8561 231.82 81.5041 233.108 81.5041 233.108" stroke="#263238" stroke-linecap="round" stroke-linejoin="round"/>
<path d="M65.832 236.66C65.832 236.66 67.192 235.86 68.848 234.924" stroke="#263238" stroke-linecap="round" stroke-linejoin="round"/>
<path d="M75.9123 228.588C75.1196 228.211 74.2802 227.942 73.4163 227.788C72.2883 227.788 67.2803 230.188 67.2803 230.188" stroke="#263238" stroke-linecap="round" stroke-linejoin="round"/>
<path d="M80.1999 230.524C80.1999 230.524 79.2719 230.076 78.0879 229.54" stroke="#263238" stroke-linecap="round" stroke-linejoin="round"/>
</svg>
