<svg width="251" height="250" viewBox="0 0 251 250" fill="none" xmlns="http://www.w3.org/2000/svg">
<path d="M49.4996 194.125C93.2296 216.97 164.135 216.97 207.865 194.125C251.595 171.28 251.595 134.24 207.865 111.39C164.135 88.5395 93.2496 88.5445 49.4996 111.39C5.74965 134.235 5.78965 171.28 49.4996 194.125Z" fill="#F5F5F5"/>
<path d="M37.3097 156.66L23.0947 148.455V117.965L37.3097 126.175V156.66Z" fill="#E0E0E0"/>
<path d="M37.3096 126.175L57.6196 114.45V144.935L37.3096 156.66V126.175Z" fill="#EBEBEB"/>
<path d="M57.6197 114.45L37.3097 126.175L23.0947 117.965L43.4047 106.24L57.6197 114.45Z" fill="#F5F5F5"/>
<path d="M39.3448 127.345L55.5898 117.965L55.9648 118.18V129.475L39.7148 138.855L39.3398 138.64L39.3448 127.345Z" fill="#E0E0E0"/>
<path d="M39.7148 127.565L55.9648 118.18V129.475L39.7148 138.855V127.565Z" fill="#F5F5F5"/>
<path d="M46.0846 125.8L48.8496 124.205C49.2046 123.995 49.4946 124.09 49.4946 124.415C49.4688 124.615 49.3971 124.805 49.2852 124.971C49.1733 125.138 49.0241 125.276 48.8496 125.375L46.0846 126.97C45.7246 127.18 45.4346 127.085 45.4346 126.76C45.4605 126.561 45.5328 126.37 45.6456 126.203C45.7585 126.037 45.9088 125.899 46.0846 125.8Z" fill="#E0E0E0"/>
<path d="M38.9697 141.635L55.2147 132.255V143.55L55.5897 143.765L39.3397 153.145L38.9697 152.93V141.635Z" fill="#E0E0E0"/>
<path d="M39.3398 141.85L55.5898 132.47V143.765L39.3398 153.145V141.85Z" fill="#F5F5F5"/>
<path d="M45.71 140.09L48.5 138.5C48.86 138.29 49.15 138.385 49.15 138.71C49.124 138.91 49.0518 139.101 48.9389 139.268C48.826 139.434 48.6757 139.572 48.5 139.67L45.735 141.265C45.375 141.475 45.085 141.38 45.085 141.055C45.1074 140.857 45.1756 140.667 45.284 140.499C45.3925 140.332 45.5383 140.192 45.71 140.09Z" fill="#E0E0E0"/>
<path d="M37.3097 124.415L23.0947 116.205V85.7197L37.3097 93.9247V124.415Z" fill="#E0E0E0"/>
<path d="M37.3096 93.9252L57.6196 82.2002V112.69L37.3096 124.415V93.9252Z" fill="#EBEBEB"/>
<path d="M57.6197 82.2001L37.3097 93.9251L23.0947 85.7201L43.4047 73.9951L57.6197 82.2001Z" fill="#F5F5F5"/>
<path d="M39.3398 95.0997L55.5898 85.7197L55.9648 85.9347V97.2297L39.7148 106.61L39.3398 106.39V95.0997Z" fill="#E0E0E0"/>
<path d="M46.0846 93.5497L48.8446 91.9547C49.2046 91.7497 49.4946 91.8447 49.4946 92.1697C49.4679 92.3691 49.3953 92.5596 49.2825 92.7262C49.1697 92.8928 49.0198 93.0309 48.8446 93.1297L46.0846 94.7247C45.7246 94.9297 45.4346 94.8397 45.4346 94.5147C45.4609 94.3145 45.5333 94.1232 45.6461 93.9558C45.7589 93.7883 45.909 93.6493 46.0846 93.5497Z" fill="#E0E0E0"/>
<path d="M38.9697 109.39L55.2147 100.01V111.3L55.5897 111.515L39.3397 120.895L38.9697 120.68V109.39Z" fill="#E0E0E0"/>
<path d="M39.3398 109.606L55.5898 100.226V111.516L39.3398 120.896V109.606Z" fill="#F5F5F5"/>
<path d="M45.7096 107.84L48.4996 106.245C48.8546 106.04 49.1496 106.135 49.1496 106.46C49.1214 106.659 49.0482 106.849 48.9356 107.015C48.823 107.181 48.6738 107.32 48.4996 107.42L45.7096 109C45.3496 109.205 45.0596 109.11 45.0596 108.79C45.0881 108.592 45.1615 108.404 45.2742 108.239C45.3869 108.075 45.5358 107.938 45.7096 107.84Z" fill="#E0E0E0"/>
<path d="M39.3398 95.0997L55.5898 85.7197V97.0097L39.3398 106.39V95.0997Z" fill="#E0E0E0"/>
<path d="M63.7143 91.3L54.8193 86.165V96.115L63.7143 101.245V91.3Z" fill="#E0E0E0"/>
<path d="M45.4346 108V93.9247L48.9196 91.9046L49.4946 92.7546L59.6496 86.8896V99.7896L45.4346 108Z" fill="#EBEBEB"/>
<path d="M45.4346 108L46.4496 95.6855L60.6646 87.4805L59.6496 99.7905L45.4346 108Z" fill="#F5F5F5"/>
<path d="M47.4648 100.68L39.7148 96.2051V106.155L47.4648 110.625V100.68Z" fill="#EBEBEB"/>
<path d="M47.4648 99.7902L63.7148 90.4102V101.7L47.4648 111.08V99.7902Z" fill="#F5F5F5"/>
<path d="M53.8346 98.0253L56.5946 96.4303C56.9546 96.2253 57.2446 96.3203 57.2446 96.6453C57.2175 96.8446 57.1448 97.0349 57.032 97.2014C56.9193 97.368 56.7696 97.5062 56.5946 97.6053L53.8346 99.2003C53.4746 99.4053 53.1846 99.3103 53.1846 98.9903C53.2109 98.7901 53.2833 98.5988 53.3961 98.4314C53.5089 98.2639 53.659 98.1249 53.8346 98.0253Z" fill="#E0E0E0"/>
<path d="M47.4648 99.7905L46.9248 99.4805V110.77L47.4648 111.08V99.7905Z" fill="#E0E0E0"/>
<path d="M46.9248 99.4797L63.1698 90.0947L63.7148 90.4097L47.4648 99.7897L46.9248 99.4797Z" fill="#EBEBEB"/>
<path d="M205.249 138.19L191.029 129.98V99.4951L205.249 107.7V138.19Z" fill="#E0E0E0"/>
<path d="M205.25 107.701L225.56 95.9756V126.466L205.25 138.191V107.701Z" fill="#EBEBEB"/>
<path d="M225.559 95.9746L205.249 107.7L191.029 99.4947L211.344 87.7646L225.559 95.9746Z" fill="#F5F5F5"/>
<path d="M207.279 108.875L223.529 99.4951L223.904 99.7101L223.899 111L207.654 120.38L207.279 120.165V108.875Z" fill="#E0E0E0"/>
<path d="M207.654 109.09L223.904 99.71L223.899 111L207.654 120.38V109.09Z" fill="#F5F5F5"/>
<path d="M214.025 107.325L216.785 105.73C217.145 105.525 217.435 105.62 217.435 105.94C217.409 106.141 217.336 106.332 217.223 106.499C217.111 106.667 216.961 106.806 216.785 106.905L214.025 108.5C213.665 108.705 213.375 108.61 213.375 108.29C213.401 108.09 213.474 107.899 213.587 107.731C213.699 107.564 213.849 107.425 214.025 107.325Z" fill="#E0E0E0"/>
<path d="M206.904 123.165L223.154 113.78V125.075L223.529 125.29L207.279 134.67L206.904 134.455V123.165Z" fill="#E0E0E0"/>
<path d="M207.279 123.38L223.529 114V125.29L207.279 134.67V123.38Z" fill="#F5F5F5"/>
<path d="M213.65 121.615L216.415 120.02C216.77 119.815 217.06 119.91 217.06 120.23C217.033 120.43 216.962 120.621 216.85 120.788C216.738 120.955 216.589 121.095 216.415 121.195L213.65 122.79C213.29 122.995 213 122.9 213 122.575C213.027 122.376 213.1 122.186 213.213 122.019C213.325 121.853 213.475 121.714 213.65 121.615Z" fill="#E0E0E0"/>
<path d="M70.0003 170.055C70.0003 170.055 70.0553 162.125 65.0553 156.18C60.6303 150.915 58.2753 147.575 59.6703 146.035C61.0653 144.495 64.0653 144.125 68.1103 148.385C72.1553 152.645 72.4703 164.445 71.9103 167.115L70.0003 170.055Z" fill="#4F3ED7"/>
<path opacity="0.2" d="M70.0003 170.055C70.0003 170.055 70.0553 162.125 65.0553 156.18C60.6303 150.915 58.2753 147.575 59.6703 146.035C61.0653 144.495 64.0653 144.125 68.1103 148.385C72.1553 152.645 72.4703 164.445 71.9103 167.115L70.0003 170.055Z" fill="black"/>
<path d="M70.8402 161.53C70.7833 161.531 70.728 161.511 70.6834 161.476C70.6389 161.44 70.6078 161.391 70.5952 161.335C68.8452 153.15 64.3552 148.625 61.8302 146.655C61.778 146.615 61.7439 146.555 61.7354 146.49C61.727 146.424 61.7449 146.358 61.7852 146.305C61.8267 146.253 61.8871 146.218 61.9535 146.21C62.0199 146.202 62.087 146.22 62.1402 146.26C64.7152 148.26 69.3002 152.89 71.0852 161.23C71.0926 161.262 71.0934 161.295 71.0878 161.327C71.0822 161.36 71.0701 161.39 71.0524 161.418C71.0347 161.445 71.0117 161.469 70.9847 161.487C70.9577 161.506 70.9273 161.519 70.8952 161.525L70.8402 161.53Z" fill="white"/>
<path d="M69.8104 173L67.7754 174.175C67.5583 173.582 67.1922 173.055 66.7123 172.644C66.2324 172.233 65.6549 171.953 65.0354 171.83C62.8104 171.33 60.5004 171.415 58.9404 169.485C57.3804 167.555 59.2804 165.455 58.9404 164.035C58.6004 162.615 58.3804 162.205 55.5904 160.785C52.8004 159.365 51.7004 157.01 53.8004 155.415C55.9004 153.82 59.3004 154.99 61.3604 156.415C63.1904 157.665 64.9304 157.995 66.9754 158.25C69.0204 158.505 72.3504 159.64 71.8404 164.39C71.5064 167.33 70.825 170.22 69.8104 173Z" fill="#4F3ED7"/>
<path d="M62.0006 166.761C61.9473 166.76 61.8955 166.743 61.8525 166.712C61.8094 166.68 61.7773 166.636 61.7606 166.586C61.7416 166.522 61.7483 166.454 61.7791 166.395C61.8099 166.336 61.8625 166.291 61.9256 166.271C62.1056 166.216 66.4256 164.846 68.2606 166.316C68.3061 166.359 68.3339 166.417 68.3383 166.48C68.3428 166.542 68.3237 166.604 68.2847 166.653C68.2457 166.702 68.1898 166.735 68.1279 166.744C68.066 166.754 68.0027 166.74 67.9506 166.706C66.3306 165.406 62.1206 166.736 62.0756 166.751L62.0006 166.761Z" fill="white"/>
<path d="M70.0353 172.62C69.9744 172.62 69.9156 172.598 69.8703 172.557C69.825 172.517 69.7965 172.461 69.7903 172.4C68.6753 161.87 55.9903 156.875 55.8653 156.825C55.8343 156.813 55.8059 156.796 55.7818 156.773C55.7577 156.75 55.7383 156.723 55.7248 156.693C55.7113 156.663 55.704 156.63 55.7032 156.597C55.7024 156.564 55.7082 156.531 55.7203 156.5C55.7448 156.439 55.7918 156.391 55.8513 156.364C55.9109 156.337 55.9785 156.333 56.0403 156.355C56.1753 156.41 69.1403 161.51 70.2853 172.355C70.2923 172.421 70.2731 172.486 70.2319 172.538C70.1907 172.589 70.1308 172.622 70.0653 172.63L70.0353 172.62Z" fill="white"/>
<path d="M194.4 166.085C194.455 165.91 196.6 154.87 194.4 147.04C192.4 139.86 189.79 137.21 186.07 136.625C182.35 136.04 180.735 138.72 182.71 142.35C184.685 145.98 189.44 150.795 190.605 158.905C191.105 162.245 191.485 165.145 191.485 165.145L194.4 166.085Z" fill="#4F3ED7"/>
<path opacity="0.2" d="M194.4 166.085C194.455 165.91 196.6 154.87 194.4 147.04C192.4 139.86 189.79 137.21 186.07 136.625C182.35 136.04 180.735 138.72 182.71 142.35C184.685 145.98 189.44 150.795 190.605 158.905C191.105 162.245 191.485 165.145 191.485 165.145L194.4 166.085Z" fill="black"/>
<path d="M193.145 159.745C193.112 159.743 193.08 159.735 193.051 159.721C193.021 159.706 192.995 159.686 192.973 159.662C192.951 159.637 192.934 159.608 192.923 159.577C192.913 159.546 192.908 159.513 192.91 159.48C193.41 150.54 190.49 142.56 185.255 138.645C185.202 138.606 185.167 138.546 185.158 138.481C185.148 138.415 185.165 138.348 185.205 138.295C185.246 138.243 185.305 138.209 185.37 138.2C185.435 138.191 185.502 138.207 185.555 138.245C190.92 142.245 193.93 150.405 193.405 159.51C193.401 159.576 193.372 159.637 193.323 159.681C193.275 159.725 193.211 159.748 193.145 159.745Z" fill="white"/>
<path d="M200.156 171.836C199.871 169.781 201.051 166.701 203.856 165.971C206.661 165.241 207.911 163.631 206.901 161.871C205.891 160.111 206.126 158.496 208.671 157.766C211.216 157.036 213.446 155.766 211.981 153.076C210.916 151.131 210.681 149.871 213.291 146.041C215.456 142.861 213.686 140.996 210.976 141.346C208.266 141.696 206.591 144.926 204.896 145.466C203.201 146.006 202.811 143.126 200.576 144.416C198.341 145.706 198.476 149.011 198.406 151.316C198.336 153.621 198.186 154.141 196.166 153.861C194.146 153.581 192.166 153.911 192.211 158.796C192.246 162.986 194.481 168.176 194.481 168.176L200.156 171.836Z" fill="#4F3ED7"/>
<path d="M196.611 168.71H196.586C196.519 168.703 196.458 168.669 196.416 168.617C196.373 168.564 196.354 168.497 196.361 168.43C197.771 155.835 208.581 145.21 211.401 143.055C211.454 143.015 211.521 142.997 211.587 143.006C211.653 143.015 211.713 143.05 211.753 143.103C211.794 143.156 211.811 143.223 211.803 143.289C211.794 143.355 211.759 143.415 211.706 143.455C208.921 145.58 198.251 156.065 196.861 168.485C196.853 168.547 196.824 168.604 196.778 168.645C196.732 168.686 196.673 168.71 196.611 168.71Z" fill="white"/>
<path d="M201.541 155.246C201.49 155.245 201.441 155.23 201.399 155.201C201.357 155.173 201.325 155.133 201.306 155.086C201.284 155.022 201.288 154.954 201.316 154.893C201.344 154.833 201.394 154.785 201.456 154.761C205.486 153.261 210.056 153.971 210.251 154.001C210.316 154.012 210.373 154.048 210.412 154.101C210.45 154.154 210.466 154.221 210.456 154.286C210.444 154.35 210.407 154.408 210.355 154.447C210.302 154.486 210.236 154.503 210.171 154.496C210.126 154.496 205.536 153.776 201.631 155.231C201.602 155.24 201.571 155.245 201.541 155.246Z" fill="white"/>
<path d="M197.951 162.815C197.916 162.815 197.881 162.807 197.849 162.792C197.817 162.778 197.789 162.757 197.766 162.73C196.09 160.779 194.954 158.422 194.471 155.895C194.466 155.863 194.467 155.83 194.475 155.798C194.483 155.766 194.497 155.736 194.517 155.709C194.536 155.683 194.561 155.66 194.589 155.643C194.617 155.626 194.648 155.615 194.681 155.61C194.713 155.605 194.746 155.607 194.778 155.615C194.81 155.623 194.84 155.637 194.867 155.656C194.893 155.676 194.916 155.7 194.933 155.728C194.95 155.757 194.961 155.788 194.966 155.82C195.444 158.248 196.537 160.512 198.141 162.395C198.172 162.432 198.192 162.477 198.199 162.525C198.205 162.573 198.198 162.621 198.179 162.665C198.159 162.709 198.127 162.747 198.086 162.773C198.046 162.8 197.999 162.814 197.951 162.815Z" fill="white"/>
<path d="M69.8096 95.6149V173.005L149.02 127.275L149.015 56.9199L90.1196 90.9249L88.0846 85.0599L69.8096 95.6149Z" fill="#4F3ED7"/>
<path opacity="0.7" d="M69.8096 95.6149V173.005L149.02 127.275L149.015 56.9199L90.1196 90.9249L88.0846 85.0599L69.8096 95.6149Z" fill="black"/>
<path d="M69.8096 173.005L73.8696 102.65L153.08 56.9199L149.02 127.275L69.8096 173.005Z" fill="#E0E0E0"/>
<path d="M69.8096 173.005L75.8996 103.825L155.11 58.0898L149.02 127.275L69.8096 173.005Z" fill="#4F3ED7"/>
<path opacity="0.7" d="M69.8096 173.005L75.8996 103.825L155.11 58.0898L149.02 127.275L69.8096 173.005Z" fill="black"/>
<path d="M81.9951 102.65V180.045L161.205 134.31V63.9551L102.305 97.9601L100.275 92.0951L81.9951 102.65Z" fill="#4F3ED7"/>
<path opacity="0.5" d="M81.9951 102.65V180.045L161.205 134.31V63.9551L102.305 97.9601L100.275 92.0951L81.9951 102.65Z" fill="black"/>
<path d="M81.9951 180.045L86.0551 109.685L165.265 63.9551L161.205 134.31L81.9951 180.045Z" fill="#E0E0E0"/>
<path d="M81.9951 180.045L88.0851 110.86L167.295 65.125L161.205 134.31L81.9951 180.045Z" fill="#4F3ED7"/>
<path opacity="0.5" d="M81.9951 180.045L88.0851 110.86L167.295 65.125L161.205 134.31L81.9951 180.045Z" fill="black"/>
<path d="M149 204.67C134.78 196.46 121.59 187.535 115.57 177.065L133.87 166.5L149 204.67Z" fill="#E0E0E0"/>
<path d="M96.21 110.86V188.25L175.42 142.52V72.165L116.52 106.17L114.49 100.305L96.21 110.86Z" fill="#4F3ED7"/>
<path opacity="0.2" d="M96.21 110.86V188.25L175.42 142.52V72.165L116.52 106.17L114.49 100.305L96.21 110.86Z" fill="black"/>
<path d="M119.03 133.74C118.83 133.74 118.8 133.51 118.8 133.375V67.3746C118.816 67.1186 118.891 66.8698 119.019 66.6477C119.148 66.4256 119.326 66.2363 119.54 66.0947L176.71 33.0947C176.788 33.0458 176.878 33.0182 176.97 33.0146C177.17 33.0146 177.2 33.2447 177.2 33.3797V99.3796C177.184 99.6364 177.109 99.8861 176.981 100.109C176.852 100.332 176.674 100.522 176.46 100.665L119.29 133.665C119.211 133.711 119.121 133.737 119.03 133.74Z" fill="white"/>
<path d="M176.94 33.2451C176.944 33.2816 176.944 33.3185 176.94 33.3551V99.3551C176.923 99.5679 176.859 99.7745 176.753 99.9596C176.647 100.145 176.5 100.304 176.325 100.425L119.155 133.425L119.055 133.47C119.048 133.434 119.048 133.396 119.055 133.36V67.3601C119.072 67.1481 119.136 66.9425 119.242 66.7584C119.349 66.5742 119.495 66.4159 119.67 66.2951L176.84 33.2951C176.871 33.273 176.907 33.2577 176.945 33.2501M176.975 32.7501C176.839 32.7541 176.706 32.7938 176.59 32.8651L119.42 65.8651C119.168 66.0302 118.959 66.2519 118.809 66.5123C118.659 66.7728 118.572 67.0649 118.555 67.3651V133.365C118.555 133.755 118.75 133.98 119.055 133.98C119.191 133.976 119.324 133.937 119.44 133.865L176.61 100.865C176.862 100.701 177.072 100.48 177.222 100.219C177.373 99.9583 177.459 99.6657 177.475 99.3651V33.3651C177.475 32.9751 177.28 32.7451 176.975 32.7501Z" fill="#4F3ED7"/>
<path opacity="0.7" d="M176.94 33.2451C176.944 33.2816 176.944 33.3185 176.94 33.3551V99.3551C176.923 99.5679 176.859 99.7745 176.753 99.9596C176.647 100.145 176.5 100.304 176.325 100.425L119.155 133.425L119.055 133.47C119.048 133.434 119.048 133.396 119.055 133.36V67.3601C119.072 67.1481 119.136 66.9425 119.242 66.7584C119.349 66.5742 119.495 66.4159 119.67 66.2951L176.84 33.2951C176.871 33.273 176.907 33.2577 176.945 33.2501M176.975 32.7501C176.839 32.7541 176.706 32.7938 176.59 32.8651L119.42 65.8651C119.168 66.0302 118.959 66.2519 118.809 66.5123C118.659 66.7728 118.572 67.0649 118.555 67.3651V133.365C118.555 133.755 118.75 133.98 119.055 133.98C119.191 133.976 119.324 133.937 119.44 133.865L176.61 100.865C176.862 100.701 177.072 100.48 177.222 100.219C177.373 99.9583 177.459 99.6657 177.475 99.3651V33.3651C177.475 32.9751 177.28 32.7451 176.975 32.7501Z" fill="white"/>
<path d="M124.645 69.8803L144.955 58.1553V81.6053L124.645 93.3303V69.8803Z" fill="#4F3ED7"/>
<path opacity="0.8" d="M124.645 69.8803L144.955 58.1553V81.6053L124.645 93.3303V69.8803Z" fill="white"/>
<path d="M141.91 64V71.05L141.27 71.405V69.25C141.27 68.06 140.305 67.655 139.105 68.345L130.5 73.32C129.305 74.01 128.335 75.535 128.335 76.725V78.88L127.7 79.26V72.225L141.91 64Z" fill="white"/>
<path d="M138 81.95C136.96 82.55 136.115 81.92 136.115 80.535V69.25L133.5 70.67V82.045C133.5 83.425 132.655 85.045 131.615 85.63L129.725 86.72V87.47L139.88 81.605V80.86L138 81.95Z" fill="white"/>
<path d="M149 57.0005C149 57.6505 149.585 57.8355 150.3 57.4255L170.06 46.0005C170.411 45.8018 170.71 45.5246 170.936 45.1906C171.162 44.8566 171.307 44.475 171.36 44.0755C171.36 43.4305 170.775 43.2405 170.06 43.6555L150.315 55.0555C149.959 55.2539 149.654 55.5333 149.425 55.8711C149.197 56.209 149.051 56.5959 149 57.0005Z" fill="#455A64"/>
<path d="M149 63.9999C149 64.6499 149.585 64.8399 150.3 64.4249L170.045 53.0249C170.396 52.8262 170.695 52.549 170.921 52.215C171.147 51.8811 171.292 51.4994 171.345 51.0999C171.345 50.4549 170.76 50.2649 170.045 50.6799L150.3 62.0799C149.95 62.2782 149.651 62.5546 149.425 62.8876C149.2 63.2207 149.054 63.6014 149 63.9999Z" fill="#455A64"/>
<path d="M149 71.0505C149 71.7005 149.585 71.8905 150.3 71.4755L170.045 60.0755C170.395 59.8773 170.694 59.6008 170.92 59.2678C171.145 58.9347 171.291 58.5541 171.345 58.1555C171.345 57.5055 170.76 57.3155 170.045 57.7305L150.3 69.1305C149.95 69.3287 149.651 69.6051 149.425 69.9382C149.2 70.2713 149.054 70.6519 149 71.0505Z" fill="#455A64"/>
<path d="M149 78.0847C149 78.7347 149.585 78.9247 150.3 78.5097L170.045 67.1097C170.395 66.9114 170.694 66.635 170.92 66.302C171.145 65.9689 171.291 65.5882 171.345 65.1897C171.345 64.5397 170.76 64.3497 170.045 64.7647L150.3 76.1647C149.95 76.3629 149.651 76.6393 149.425 76.9724C149.2 77.3054 149.054 77.6861 149 78.0847Z" fill="#455A64"/>
<path d="M124.645 99.1951C124.645 99.8451 125.225 100.035 125.945 99.6202L170.06 74.1202C170.41 73.9225 170.71 73.6463 170.935 73.3131C171.161 72.9799 171.306 72.5989 171.36 72.2001C171.36 71.5501 170.775 71.3652 170.06 71.7752L125.945 97.2752C125.594 97.4725 125.294 97.7487 125.068 98.0819C124.843 98.4151 124.698 98.7962 124.645 99.1951Z" fill="#455A64"/>
<path d="M124.645 106.23C124.645 106.88 125.225 107.07 125.945 106.655L170.06 81.1851C170.41 80.9864 170.71 80.7092 170.935 80.3752C171.161 80.0412 171.306 79.6595 171.36 79.2601C171.36 78.6151 170.775 78.4251 170.06 78.8401L125.945 104.31C125.594 104.507 125.294 104.784 125.068 105.117C124.843 105.45 124.698 105.831 124.645 106.23Z" fill="#455A64"/>
<path d="M124.645 113.27C124.645 113.915 125.225 114.105 125.945 113.69L170.06 88.2203C170.41 88.0215 170.71 87.7443 170.935 87.4103C171.161 87.0764 171.306 86.6947 171.36 86.2952C171.36 85.6502 170.775 85.4603 170.06 85.8753L125.945 111.345C125.593 111.543 125.293 111.82 125.067 112.154C124.841 112.488 124.697 112.87 124.645 113.27Z" fill="#455A64"/>
<path d="M96.21 188.25L110.425 126.105L189.635 80.3701L175.42 142.52L96.21 188.25Z" fill="#4F3ED7"/>
<path d="M115.59 130.97V177.065L133.87 166.51V120.42L115.59 130.97Z" fill="#4F3ED7"/>
<path opacity="0.2" d="M115.59 130.97V177.065L133.87 166.51V120.42L115.59 130.97Z" fill="black"/>
<path d="M149.035 204.37C147.48 203.21 132.49 191.755 124.87 175.37C116.76 157.95 116.77 137.63 116.77 129.985V129.745L171.11 98.375C171.11 106.09 171.11 126.44 179.255 143.92C186.7 159.92 201.115 171.23 203.4 172.96L149.035 204.37Z" fill="white"/>
<path d="M170.86 98.8252C170.86 106.865 171.015 126.825 179.03 144.045C186.225 159.495 199.905 170.605 202.95 172.95L149.05 204.07C146.945 202.485 132.52 191.22 125.1 175.285C117 157.915 117 137.635 117 130V129.905L170.84 98.8202M171.34 97.9552L116.5 129.62C116.5 136.815 116.35 157.72 124.625 175.495C132.77 192.94 149 204.67 149 204.67L203.855 173C203.855 173 187.605 161.27 179.485 143.825C171.205 126.05 171.36 105.145 171.36 97.9502L171.34 97.9552Z" fill="#4F3ED7"/>
<path opacity="0.7" d="M170.86 98.8252C170.86 106.865 171.015 126.825 179.03 144.045C186.225 159.495 199.905 170.605 202.95 172.95L149.05 204.07C146.945 202.485 132.52 191.22 125.1 175.285C117 157.915 117 137.635 117 130V129.905L170.84 98.8202M171.34 97.9552L116.5 129.62C116.5 136.815 116.35 157.72 124.625 175.495C132.77 192.94 149 204.67 149 204.67L203.855 173C203.855 173 187.605 161.27 179.485 143.825C171.205 126.05 171.36 105.145 171.36 97.9502L171.34 97.9552Z" fill="white"/>
<path d="M165.155 108.575L147.815 118.575C147.468 118.766 147.172 119.038 146.952 119.368C146.733 119.698 146.597 120.076 146.555 120.47C146.58 121.105 147.185 121.285 147.9 120.87L165.245 110.87C165.588 110.681 165.88 110.412 166.099 110.087C166.317 109.762 166.455 109.389 166.5 109C166.47 108.34 165.875 108.16 165.155 108.575Z" fill="#455A64"/>
<path d="M165.525 115.4L148.185 125.4C147.842 125.584 147.551 125.853 147.339 126.179C147.128 126.506 147.002 126.881 146.975 127.27C147.03 127.885 147.66 128.05 148.375 127.635L165.72 117.635C166.061 117.451 166.35 117.184 166.559 116.857C166.768 116.531 166.89 116.157 166.915 115.77C166.865 115.15 166.245 115 165.525 115.4Z" fill="#455A64"/>
<path d="M166.22 122.035L148.875 132.035C148.16 132.45 147.64 133.275 147.725 133.87C147.81 134.465 148.465 134.62 149.185 134.205L166.53 124.205C167.245 123.79 167.755 122.97 167.665 122.375C167.575 121.78 166.935 121.62 166.22 122.035Z" fill="#455A64"/>
<path d="M167.26 128.47L149.915 138.47C149.2 138.885 148.705 139.695 148.825 140.275C148.945 140.855 149.625 140.985 150.325 140.57L167.665 130.57C168.385 130.155 168.865 129.35 168.745 128.77C168.625 128.19 168 128.055 167.26 128.47Z" fill="#455A64"/>
<path d="M168.67 134.69L151.325 144.69C150.61 145.105 150.145 145.895 150.325 146.45C150.505 147.005 151.19 147.13 151.905 146.715L169.25 136.715C169.97 136.3 170.42 135.515 170.25 134.955C170.08 134.395 169.385 134.275 168.67 134.69Z" fill="#455A64"/>
<path d="M170.5 140.686L128.23 165.091C127.515 165.506 127.08 166.276 127.275 166.811C127.47 167.346 128.215 167.446 128.93 167.031L171.2 142.626C171.92 142.211 172.335 141.446 172.14 140.906C171.945 140.366 171.19 140.271 170.5 140.686Z" fill="#455A64"/>
<path d="M172.725 146.41L130.46 170.815C129.74 171.23 129.345 171.98 129.585 172.49C129.825 173 130.585 173.08 131.315 172.665L173.585 148.26C174.305 147.845 174.69 147.095 174.45 146.585C174.21 146.075 173.445 146 172.725 146.41Z" fill="#455A64"/>
<path d="M175.5 151.865L133.23 176.27C132.51 176.685 132.155 177.415 132.44 177.9C132.725 178.385 133.54 178.435 134.26 178.02L176.5 153.615C177.215 153.205 177.56 152.48 177.275 151.995C176.99 151.51 176.2 151.45 175.5 151.865Z" fill="#455A64"/>
<path d="M178.735 157.025L136.47 181.425C135.75 181.84 135.43 182.555 135.755 183.01C136.08 183.465 136.935 183.51 137.655 183.09L179.92 158.685C180.64 158.27 180.95 157.565 180.625 157.105C180.3 156.645 179.455 156.61 178.735 157.025Z" fill="#455A64"/>
<path d="M182.425 161.93L140.155 186.33C139.44 186.745 139.155 187.44 139.515 187.875C139.875 188.31 140.76 188.33 141.48 187.915L183.75 163.5C184.465 163.085 184.75 162.4 184.38 161.965C184.01 161.53 183.145 161.5 182.425 161.93Z" fill="#455A64"/>
<path d="M186.5 166.6L144.245 191C143.525 191.415 143.245 192.095 143.665 192.5C144.085 192.905 144.975 192.915 145.69 192.5L187.96 168.095C188.68 167.68 188.93 167.01 188.53 166.595C188.13 166.18 187.23 166.19 186.5 166.6Z" fill="#455A64"/>
<path d="M191 171.065L148.73 195.465C148.015 195.88 147.78 196.545 148.23 196.94C148.68 197.335 149.6 197.32 150.32 196.905L192.555 172.5C193.27 172.085 193.495 171.435 193.055 171.035C192.615 170.635 191.7 170.65 191 171.065Z" fill="#455A64"/>
<path d="M141.53 122.22L121.59 133.72C121.81 140.945 122.635 151.365 125.655 161.86L145.6 150.36C142.575 139.865 141.75 129.44 141.53 122.22Z" fill="#4F3ED7"/>
<path opacity="0.8" d="M141.53 122.22L121.59 133.72C121.81 140.945 122.635 151.365 125.655 161.86L145.6 150.36C142.575 139.865 141.75 129.44 141.53 122.22Z" fill="white"/>
<path d="M129.72 132.13C129.747 131.663 129.674 131.196 129.507 130.76C129.34 130.324 129.082 129.928 128.75 129.6L121.59 133.73C121.65 135.64 121.75 137.775 121.925 140.075C122.856 140.182 123.798 140.008 124.63 139.575C127.445 138.285 129.72 134.94 129.72 132.13Z" fill="#4F3ED7"/>
<path opacity="0.6" d="M129.72 132.13C129.747 131.663 129.674 131.196 129.507 130.76C129.34 130.324 129.082 129.928 128.75 129.6L121.59 133.73C121.65 135.64 121.75 137.775 121.925 140.075C122.856 140.182 123.798 140.008 124.63 139.575C127.445 138.285 129.72 134.94 129.72 132.13Z" fill="white"/>
<path d="M143.905 143.46C142.575 141.785 139.87 136.61 138.715 134.355C138.67 134.266 138.599 134.193 138.511 134.144C138.424 134.096 138.324 134.075 138.224 134.084C138.124 134.093 138.03 134.132 137.952 134.196C137.875 134.259 137.819 134.344 137.79 134.44C136.541 138.711 135.815 143.119 135.63 147.565C133.965 146.243 132.533 144.651 131.395 142.855C131.347 142.786 131.279 142.731 131.201 142.699C131.123 142.666 131.037 142.657 130.953 142.671C130.87 142.686 130.792 142.724 130.729 142.782C130.667 142.839 130.622 142.913 130.6 142.995C128.42 151.39 129.515 159.65 129.515 159.65L145.6 150.36C144.93 148.04 144.375 145.73 143.905 143.46Z" fill="#4F3ED7"/>
<path opacity="0.6" d="M143.905 143.46C142.575 141.785 139.87 136.61 138.715 134.355C138.67 134.266 138.599 134.193 138.511 134.144C138.424 134.096 138.324 134.075 138.224 134.084C138.124 134.093 138.03 134.132 137.952 134.196C137.875 134.259 137.819 134.344 137.79 134.44C136.541 138.711 135.815 143.119 135.63 147.565C133.965 146.243 132.533 144.651 131.395 142.855C131.347 142.786 131.279 142.731 131.201 142.699C131.123 142.666 131.037 142.657 130.953 142.671C130.87 142.686 130.792 142.724 130.729 142.782C130.667 142.839 130.622 142.913 130.6 142.995C128.42 151.39 129.515 159.65 129.515 159.65L145.6 150.36C144.93 148.04 144.375 145.73 143.905 143.46Z" fill="white"/>
</svg>
