<svg width="100" height="101" viewBox="0 0 100 101" fill="none" xmlns="http://www.w3.org/2000/svg">
<g clip-path="url(#clip0_1946_12848)">
<path d="M87.2621 54.8198C86.0141 53.8558 84.7401 52.9218 83.9901 51.5278C80.1901 44.4738 88.1001 36.2218 83.7101 28.5778C81.4821 24.6998 77.0881 21.8618 72.8001 23.4738C68.2301 25.1938 63.9161 26.9898 59.0001 25.5678C50.4001 23.0758 45.9341 11.4158 36.5661 11.6118C28.8761 11.7718 20.3181 19.8718 24.7661 28.2778C28.1361 34.6378 26.0301 39.9018 18.2361 40.9978C10.4421 42.0938 7.0901 51.2998 9.4001 55.2538C11.7101 59.2078 16.1381 63.3678 11.9261 65.1218C7.7141 66.8758 6.2401 72.5778 6.6621 76.5218C7.0841 80.4658 7.9241 82.0038 7.9241 82.0038H88.7681C88.7681 82.0038 92.1781 77.6178 92.5981 67.5318C92.7821 63.1598 91.8761 58.8778 88.5721 55.8878C88.1541 55.5158 87.7101 55.1658 87.2621 54.8198Z" fill="#4F3ED7"/>
<path opacity="0.7" d="M87.2621 54.8198C86.0141 53.8558 84.7401 52.9218 83.9901 51.5278C80.1901 44.4738 88.1001 36.2218 83.7101 28.5778C81.4821 24.6998 77.0881 21.8618 72.8001 23.4738C68.2301 25.1938 63.9161 26.9898 59.0001 25.5678C50.4001 23.0758 45.9341 11.4158 36.5661 11.6118C28.8761 11.7718 20.3181 19.8718 24.7661 28.2778C28.1361 34.6378 26.0301 39.9018 18.2361 40.9978C10.4421 42.0938 7.0901 51.2998 9.4001 55.2538C11.7101 59.2078 16.1381 63.3678 11.9261 65.1218C7.7141 66.8758 6.2401 72.5778 6.6621 76.5218C7.0841 80.4658 7.9241 82.0038 7.9241 82.0038H88.7681C88.7681 82.0038 92.1781 77.6178 92.5981 67.5318C92.7821 63.1598 91.8761 58.8778 88.5721 55.8878C88.1541 55.5158 87.7101 55.1658 87.2621 54.8198Z" fill="white"/>
<path d="M49.1115 88.5008C57.5615 88.5008 64.4115 87.7844 64.4115 86.9008C64.4115 86.0171 57.5615 85.3008 49.1115 85.3008C40.6616 85.3008 33.8115 86.0171 33.8115 86.9008C33.8115 87.7844 40.6616 88.5008 49.1115 88.5008Z" fill="#4F3ED7"/>
<path opacity="0.5" d="M49.1115 88.5008C57.5615 88.5008 64.4115 87.7844 64.4115 86.9008C64.4115 86.0171 57.5615 85.3008 49.1115 85.3008C40.6616 85.3008 33.8115 86.0171 33.8115 86.9008C33.8115 87.7844 40.6616 88.5008 49.1115 88.5008Z" fill="white"/>
<path d="M83.6856 73.6799V71.2379H80.9616V66.4999H77.0476V47.2559H73.3037V58.8879H69.8996V54.7239H65.3057V65.4939H63.4337V68.9399H59.0096V67.6479H60.3697V66.9299H54.7536V67.7919H55.4356V71.5259H52.5416V64.4879H42.3317V69.5139H35.0116V65.7799H32.2896V69.9459H26.5037V62.3339H24.1216V59.7499H19.8656V71.5259H15.6116V74.1099H12.8896V82.0079H88.9616V73.6799H83.6856Z" stroke="#2E353A" stroke-miterlimit="10"/>
<path d="M21.5401 62.3008H20.6201V63.2208H21.5401V62.3008Z" fill="#2E353A"/>
<path d="M23.4561 62.3008H22.5361V63.2208H23.4561V62.3008Z" fill="#2E353A"/>
<path d="M21.5401 64.2188H20.6201V65.1388H21.5401V64.2188Z" fill="#2E353A"/>
<path d="M23.4561 64.2188H22.5361V65.1388H23.4561V64.2188Z" fill="#2E353A"/>
<path d="M25.5255 64.2188H24.6055V65.1388H25.5255V64.2188Z" fill="#2E353A"/>
<path d="M25.5255 66.1348H24.6055V67.0548H25.5255V66.1348Z" fill="#2E353A"/>
<path d="M25.5255 68.0527H24.6055V68.9727H25.5255V68.0527Z" fill="#2E353A"/>
<path d="M25.5255 69.9688H24.6055V70.8888H25.5255V69.9688Z" fill="#2E353A"/>
<path d="M25.5255 71.8867H24.6055V72.8067H25.5255V71.8867Z" fill="#2E353A"/>
<path d="M25.5255 73.8047H24.6055V74.7247H25.5255V73.8047Z" fill="#2E353A"/>
<path d="M21.5401 66.1348H20.6201V67.0548H21.5401V66.1348Z" fill="#2E353A"/>
<path d="M23.4561 66.1348H22.5361V67.0548H23.4561V66.1348Z" fill="#2E353A"/>
<path d="M21.5401 68.0527H20.6201V68.9727H21.5401V68.0527Z" fill="#2E353A"/>
<path d="M23.4561 68.0527H22.5361V68.9727H23.4561V68.0527Z" fill="#2E353A"/>
<path d="M21.5401 69.9688H20.6201V70.8888H21.5401V69.9688Z" fill="#2E353A"/>
<path d="M23.4561 69.9688H22.5361V70.8888H23.4561V69.9688Z" fill="#2E353A"/>
<path d="M21.5401 71.8867H20.6201V72.8067H21.5401V71.8867Z" fill="#2E353A"/>
<path d="M17.3214 72.959H16.4014V73.879H17.3214V72.959Z" fill="#2E353A"/>
<path d="M30.588 70.8887H29.668V71.8087H30.588V70.8887Z" fill="#2E353A"/>
<path d="M32.4278 70.8887H31.5078V71.8087H32.4278V70.8887Z" fill="#2E353A"/>
<path d="M74.836 48.3418H73.916V49.2618H74.836V48.3418Z" fill="#2E353A"/>
<path d="M75.9854 48.3418H75.0654V49.2618H75.9854V48.3418Z" fill="#2E353A"/>
<path d="M74.836 50.2598H73.916V51.1798H74.836V50.2598Z" fill="#2E353A"/>
<path d="M75.9854 50.2598H75.0654V51.1798H75.9854V50.2598Z" fill="#2E353A"/>
<path d="M74.836 52.1777H73.916V53.0977H74.836V52.1777Z" fill="#2E353A"/>
<path d="M75.9854 52.1777H75.0654V53.0977H75.9854V52.1777Z" fill="#2E353A"/>
<path d="M74.836 54.0938H73.916V55.0138H74.836V54.0938Z" fill="#2E353A"/>
<path d="M75.9854 54.0938H75.0654V55.0138H75.9854V54.0938Z" fill="#2E353A"/>
<path d="M74.836 56.0117H73.916V56.9317H74.836V56.0117Z" fill="#2E353A"/>
<path d="M75.9854 56.0117H75.0654V56.9317H75.9854V56.0117Z" fill="#2E353A"/>
<path d="M74.836 57.9277H73.916V58.8477H74.836V57.9277Z" fill="#2E353A"/>
<path d="M75.9854 57.9277H75.0654V58.8477H75.9854V57.9277Z" fill="#2E353A"/>
<path d="M74.836 59.8457H73.916V60.7657H74.836V59.8457Z" fill="#2E353A"/>
<path d="M75.9854 59.8457H75.0654V60.7657H75.9854V59.8457Z" fill="#2E353A"/>
<path d="M74.836 61.7637H73.916V62.6837H74.836V61.7637Z" fill="#2E353A"/>
<path d="M75.9854 61.7637H75.0654V62.6837H75.9854V61.7637Z" fill="#2E353A"/>
<path d="M74.836 63.6797H73.916V64.5997H74.836V63.6797Z" fill="#2E353A"/>
<path d="M75.9854 63.6797H75.0654V64.5997H75.9854V63.6797Z" fill="#2E353A"/>
<path d="M67.0138 63.6797H66.0938V64.5997H67.0138V63.6797Z" fill="#2E353A"/>
<path d="M69.0079 63.6797H68.0879V64.5997H69.0079V63.6797Z" fill="#2E353A"/>
<path d="M71.002 63.6797H70.082V64.5997H71.002V63.6797Z" fill="#2E353A"/>
<path d="M67.0138 67.8223H66.0938V68.7423H67.0138V67.8223Z" fill="#2E353A"/>
<path d="M69.0079 67.8223H68.0879V68.7423H69.0079V67.8223Z" fill="#2E353A"/>
<path d="M71.002 67.8223H70.082V68.7423H71.002V67.8223Z" fill="#2E353A"/>
<path d="M67.0138 71.9609H66.0938V72.8809H67.0138V71.9609Z" fill="#2E353A"/>
<path d="M69.0079 71.9609H68.0879V72.8809H69.0079V71.9609Z" fill="#2E353A"/>
<path d="M71.002 71.9609H70.082V72.8809H71.002V71.9609Z" fill="#2E353A"/>
<path d="M74.836 65.5977H73.916V66.5177H74.836V65.5977Z" fill="#2E353A"/>
<path d="M75.9854 65.5977H75.0654V66.5177H75.9854V65.5977Z" fill="#2E353A"/>
<path d="M74.836 67.5137H73.916V68.4337H74.836V67.5137Z" fill="#2E353A"/>
<path d="M75.9854 67.5137H75.0654V68.4337H75.9854V67.5137Z" fill="#2E353A"/>
<path d="M74.836 69.4316H73.916V70.3516H74.836V69.4316Z" fill="#2E353A"/>
<path d="M75.9854 69.4316H75.0654V70.3516H75.9854V69.4316Z" fill="#2E353A"/>
<path d="M77.9034 67.5137H76.9834V68.4337H77.9034V67.5137Z" fill="#2E353A"/>
<path d="M80.0518 67.5137H79.1318V68.4337H80.0518V67.5137Z" fill="#2E353A"/>
<path d="M77.9034 69.3555H76.9834V70.2755H77.9034V69.3555Z" fill="#2E353A"/>
<path d="M80.0518 69.3555H79.1318V70.2755H80.0518V69.3555Z" fill="#2E353A"/>
<path d="M77.9034 71.1953H76.9834V72.1153H77.9034V71.1953Z" fill="#2E353A"/>
<path d="M80.0518 71.1953H79.1318V72.1153H80.0518V71.1953Z" fill="#2E353A"/>
<path d="M77.9034 73.0352H76.9834V73.9552H77.9034V73.0352Z" fill="#2E353A"/>
<path d="M80.0518 73.0352H79.1318V73.9552H80.0518V73.0352Z" fill="#2E353A"/>
<path d="M74.836 71.3496H73.916V72.2696H74.836V71.3496Z" fill="#2E353A"/>
<path d="M75.9854 71.3496H75.0654V72.2696H75.9854V71.3496Z" fill="#2E353A"/>
<path d="M74.836 73.2656H73.916V74.1856H74.836V73.2656Z" fill="#2E353A"/>
<path d="M75.9854 73.2656H75.0654V74.1856H75.9854V73.2656Z" fill="#2E353A"/>
<path d="M23.4561 71.8867H22.5361V72.8067H23.4561V71.8867Z" fill="#2E353A"/>
<path d="M21.5401 73.8047H20.6201V74.7247H21.5401V73.8047Z" fill="#2E353A"/>
<path d="M23.4561 73.8047H22.5361V74.7247H23.4561V73.8047Z" fill="#2E353A"/>
<path d="M21.5401 75.7207H20.6201V76.6407H21.5401V75.7207Z" fill="#2E353A"/>
<path d="M23.4561 75.7207H22.5361V76.6407H23.4561V75.7207Z" fill="#2E353A"/>
<path d="M21.5401 77.6387H20.6201V78.5587H21.5401V77.6387Z" fill="#2E353A"/>
<path d="M23.4561 77.6387H22.5361V78.5587H23.4561V77.6387Z" fill="#2E353A"/>
<path d="M71.9219 78.2129V82.0069H64.2539V74.4629H71.9219V77.5369" stroke="#2E353A" stroke-miterlimit="10"/>
<path d="M86.0333 80.8615V82.0075H78.3633V78.0195H79.9473" stroke="#2E353A" stroke-miterlimit="10"/>
<path d="M80.8818 78.0195H86.0338V80.2395" stroke="#2E353A" stroke-miterlimit="10"/>
<path d="M29.512 78.0195H34.96V82.0075H27.29V78.0195H28.784" stroke="#2E353A" stroke-miterlimit="10"/>
<path d="M17.5133 78.0195H18.2413V82.0075H15.4033V78.0195H16.9413" stroke="#2E353A" stroke-miterlimit="10"/>
<path d="M68.6996 74.4629H67.4736V82.0069H68.6996V74.4629Z" stroke="#2E353A" stroke-miterlimit="10"/>
<path d="M59.1698 75.4901H57.9658V73.4961H62.0298V75.4901H60.2618" stroke="#2E353A" stroke-miterlimit="10"/>
<path d="M37.6438 72.1152H32.9658V73.8032H37.6438V72.1152Z" stroke="#2E353A" stroke-miterlimit="10"/>
<path d="M35.6495 72.1152H35.1895V82.0072H35.6495V72.1152Z" stroke="#2E353A" stroke-miterlimit="10"/>
<path d="M50.0002 12.0264C43.1576 12.0264 36.5953 14.7446 31.7568 19.583C26.9184 24.4215 24.2002 30.9838 24.2002 37.8264C24.2002 50.6964 48.0002 81.0264 48.0002 81.0264H50.0002C50.0002 81.0264 75.8002 52.0744 75.8002 37.8264C75.8002 30.9838 73.082 24.4215 68.2435 19.583C63.4051 14.7446 56.8428 12.0264 50.0002 12.0264ZM50.0002 50.4264C47.5081 50.4264 45.0721 49.6874 43 48.3029C40.9279 46.9184 39.313 44.9505 38.3593 42.6482C37.4056 40.3458 37.1561 37.8124 37.6423 35.3682C38.1285 32.9241 39.3285 30.679 41.0906 28.9168C42.8528 27.1547 45.0979 25.9546 47.5421 25.4685C49.9862 24.9823 52.5197 25.2318 54.822 26.1855C57.1244 27.1391 59.0922 28.7541 60.4767 30.8262C61.8612 32.8982 62.6002 35.3343 62.6002 37.8264C62.6002 39.481 62.2743 41.1195 61.6411 42.6482C61.0079 44.1769 60.0798 45.5659 58.9097 46.7359C57.7397 47.9059 56.3507 48.834 54.822 49.4673C53.2933 50.1005 51.6548 50.4264 50.0002 50.4264Z" fill="#2E353A" stroke="#2E353A" stroke-linecap="round" stroke-linejoin="round"/>
<path d="M48.0002 12.0264C41.1576 12.0264 34.5953 14.7446 29.7568 19.583C24.9184 24.4215 22.2002 30.9838 22.2002 37.8264C22.2002 52.0744 48.0002 81.0264 48.0002 81.0264C48.0002 81.0264 73.8002 52.0744 73.8002 37.8264C73.8002 30.9838 71.082 24.4215 66.2435 19.583C61.4051 14.7446 54.8428 12.0264 48.0002 12.0264ZM48.0002 50.4264C45.5081 50.4264 43.0721 49.6874 41 48.3029C38.9279 46.9184 37.313 44.9505 36.3593 42.6482C35.4056 40.3458 35.1561 37.8124 35.6423 35.3682C36.1285 32.9241 37.3285 30.679 39.0906 28.9168C40.8528 27.1547 43.0979 25.9546 45.5421 25.4685C47.9862 24.9823 50.5197 25.2318 52.822 26.1855C55.1244 27.1391 57.0922 28.7541 58.4767 30.8262C59.8612 32.8982 60.6002 35.3343 60.6002 37.8264C60.6002 41.1681 59.2727 44.373 56.9097 46.7359C54.5468 49.0989 51.3419 50.4264 48.0002 50.4264Z" fill="#4F3ED7" stroke="#2E353A" stroke-linecap="round" stroke-linejoin="round"/>
</g>
<defs>
<clipPath id="clip0_1946_12848">
<rect width="100" height="100" fill="white" transform="translate(0 0.5)"/>
</clipPath>
</defs>
</svg>
