<svg width="100" height="101" viewBox="0 0 100 101" fill="none" xmlns="http://www.w3.org/2000/svg">
<g clip-path="url(#clip0_1946_19581)">
<path d="M100 76.9805H0V77.0305H100V76.9805Z" fill="#EBEBEB"/>
<path d="M89.9804 80.1973H83.3564V80.2473H89.9804V80.1973Z" fill="#EBEBEB"/>
<path d="M59.0443 78.6523H53.5723V78.7023H59.0443V78.6523Z" fill="#EBEBEB"/>
<path d="M83.1564 78.3418H79.3184V78.3918H83.1564V78.3418Z" fill="#EBEBEB"/>
<path d="M13.9222 78.6777H10.4922V78.7277H13.9222V78.6777Z" fill="#EBEBEB"/>
<path d="M22.1781 78.6777H15.7021V78.7277H22.1781V78.6777Z" fill="#EBEBEB"/>
<path d="M45.0301 79.5215H32.9561V79.5715H45.0301V79.5215Z" fill="#EBEBEB"/>
<path d="M47.3996 68.06H8.7816C8.47907 68.0595 8.18911 67.9389 7.97538 67.7248C7.76164 67.5107 7.6416 67.2205 7.6416 66.918V12.632C7.64424 12.3312 7.76544 12.0436 7.97889 11.8316C8.19234 11.6197 8.4808 11.5005 8.7816 11.5H47.3996C47.7025 11.5 47.993 11.6203 48.2071 11.8345C48.4213 12.0487 48.5416 12.3391 48.5416 12.642V66.918C48.5416 67.2209 48.4213 67.5114 48.2071 67.7255C47.993 67.9397 47.7025 68.06 47.3996 68.06ZM8.7816 11.54C8.49233 11.5405 8.21509 11.6558 8.01073 11.8605C7.80638 12.0653 7.6916 12.3427 7.6916 12.632V66.918C7.6916 67.2073 7.80638 67.4847 8.01073 67.6895C8.21509 67.8942 8.49233 68.0095 8.7816 68.01H47.3996C47.6891 68.0095 47.9665 67.8943 48.1712 67.6896C48.3759 67.4849 48.4911 67.2075 48.4916 66.918V12.632C48.4911 12.3425 48.3759 12.0651 48.1712 11.8604C47.9665 11.6557 47.6891 11.5405 47.3996 11.54H8.7816Z" fill="#EBEBEB"/>
<path d="M90.6624 68.06H52.0424C51.7397 68.0595 51.4495 67.939 51.2355 67.7249C51.0214 67.5109 50.9009 67.2207 50.9004 66.918V12.632C50.9035 12.331 51.0252 12.0434 51.239 11.8315C51.4527 11.6196 51.7414 11.5005 52.0424 11.5H90.6624C90.9628 11.501 91.2508 11.6204 91.4638 11.8323C91.6768 12.0442 91.7978 12.3316 91.8004 12.632V66.918C91.8004 67.2202 91.6806 67.5101 91.4673 67.7241C91.254 67.9382 90.9646 68.0589 90.6624 68.06ZM52.0424 11.54C51.7529 11.5405 51.4755 11.6557 51.2708 11.8604C51.0661 12.0651 50.9509 12.3425 50.9504 12.632V66.918C50.9509 67.2075 51.0661 67.4849 51.2708 67.6896C51.4755 67.8943 51.7529 68.0095 52.0424 68.01H90.6624C90.9518 68.0095 91.2293 67.8943 91.434 67.6896C91.6386 67.4849 91.7539 67.2075 91.7544 66.918V12.632C91.7539 12.3425 91.6386 12.0651 91.434 11.8604C91.2293 11.6557 90.9518 11.5405 90.6624 11.54H52.0424Z" fill="#EBEBEB"/>
<path d="M16.2601 48.1035H12.8701V76.0675H16.2601V48.1035Z" fill="#F0F0F0"/>
<path d="M45.8978 76.0684H13.3398V76.9804H45.8978V76.0684Z" fill="#F0F0F0"/>
<path d="M16.2602 76.0664H46.3682V48.1024H16.2602L16.2602 76.0664Z" fill="#FAFAFA"/>
<path d="M20.036 64.334H42.594C43.1639 64.334 43.626 63.8719 43.626 63.302V59.062C43.626 58.492 43.1639 58.03 42.594 58.03H20.036C19.466 58.03 19.004 58.492 19.004 59.062V63.302C19.004 63.8719 19.466 64.334 20.036 64.334Z" fill="#F0F0F0"/>
<path d="M20.036 72.4473H42.594C43.1639 72.4473 43.626 71.9852 43.626 71.4153V67.1753C43.626 66.6053 43.1639 66.1433 42.594 66.1433H20.036C19.466 66.1433 19.004 66.6053 19.004 67.1753V71.4153C19.004 71.9852 19.466 72.4473 20.036 72.4473Z" fill="#F0F0F0"/>
<path d="M35.6764 58.9362H26.9544C26.7739 58.9357 26.6009 58.8636 26.4735 58.7358C26.346 58.6079 26.2744 58.4347 26.2744 58.2542C26.2749 58.074 26.3468 57.9014 26.4742 57.774C26.6016 57.6466 26.7742 57.5747 26.9544 57.5742H35.6764C35.8566 57.5747 36.0293 57.6466 36.1567 57.774C36.2841 57.9014 36.3559 58.074 36.3564 58.2542C36.3564 58.4347 36.2848 58.6079 36.1574 58.7358C36.0299 58.8636 35.8569 58.9357 35.6764 58.9362Z" fill="#FAFAFA"/>
<path d="M20.036 56.2207H42.594C43.1639 56.2207 43.626 55.7587 43.626 55.1887V50.9487C43.626 50.3787 43.1639 49.9167 42.594 49.9167H20.036C19.466 49.9167 19.004 50.3787 19.004 50.9487V55.1887C19.004 55.7587 19.466 56.2207 20.036 56.2207Z" fill="#F0F0F0"/>
<path d="M35.6764 50.8229H26.9544C26.7742 50.8224 26.6016 50.7506 26.4742 50.6231C26.3468 50.4957 26.2749 50.3231 26.2744 50.1429C26.2749 49.9627 26.3468 49.7901 26.4742 49.6626C26.6016 49.5352 26.7742 49.4634 26.9544 49.4629H35.6764C35.8566 49.4634 36.0293 49.5352 36.1567 49.6626C36.2841 49.7901 36.3559 49.9627 36.3564 50.1429C36.3559 50.3231 36.2841 50.4957 36.1567 50.6231C36.0293 50.7506 35.8566 50.8224 35.6764 50.8229Z" fill="#FAFAFA"/>
<path d="M35.6764 67.0475H26.9544C26.7742 67.047 26.6016 66.9752 26.4742 66.8477C26.3468 66.7203 26.2749 66.5477 26.2744 66.3675C26.2749 66.1873 26.3468 66.0147 26.4742 65.8872C26.6016 65.7598 26.7742 65.688 26.9544 65.6875H35.6764C35.8566 65.688 36.0293 65.7598 36.1567 65.8872C36.2841 66.0147 36.3559 66.1873 36.3564 66.3675C36.3559 66.5477 36.2841 66.7203 36.1567 66.8477C36.0293 66.9752 35.8566 67.047 35.6764 67.0475Z" fill="#FAFAFA"/>
<path d="M46.9877 46.6816H16.2617V48.1036H46.9877V46.6816Z" fill="#F0F0F0"/>
<path d="M12.2057 48.1016H16.2617V46.6796H12.2057V48.1016Z" fill="#E6E6E6"/>
<path d="M83.8499 14.8008H13.7119V38.3608H83.8499V14.8008Z" fill="#EBEBEB"/>
<path d="M84.8359 14.8008H14.1719V38.3608H84.8359V14.8008Z" fill="#F5F5F5"/>
<path d="M59.8359 38.3594H13.7119V39.5294H59.8359V38.3594Z" fill="#EBEBEB"/>
<path d="M86.2895 38.3594H18.5615V39.5294H86.2895V38.3594Z" fill="#F5F5F5"/>
<path d="M83.4541 36.914V16.248L15.5581 16.248V36.914H83.4541Z" fill="#FAFAFA"/>
<path d="M24.1396 36.914L35.9537 16.248H41.5317L29.7176 36.914H24.1396Z" fill="white"/>
<path d="M30.916 36.914L42.73 16.248H44.904L33.09 36.914H30.916Z" fill="white"/>
<path d="M65.5342 36.914L77.3462 16.248H79.5202L67.7082 36.914H65.5342Z" fill="white"/>
<path d="M83.4541 36.914V16.248H83.2781V36.914H83.4541Z" fill="#EBEBEB"/>
<path opacity="0.5" d="M85.1644 17.9245H15.0264L14.9004 16.8105H85.0364L85.1644 17.9245Z" fill="#EBEBEB"/>
<path opacity="0.5" d="M85.1644 19.3113H15.0264L14.9004 18.1973H85.0364L85.1644 19.3113Z" fill="#EBEBEB"/>
<path opacity="0.5" d="M85.1644 20.7019H15.0264L14.9004 19.5879H85.0364L85.1644 20.7019Z" fill="#EBEBEB"/>
<path opacity="0.5" d="M85.1644 22.0906H15.0264L14.9004 20.9766H85.0364L85.1644 22.0906Z" fill="#EBEBEB"/>
<path opacity="0.5" d="M85.1644 23.4792H15.0264L14.9004 22.3652H85.0364L85.1644 23.4792Z" fill="#EBEBEB"/>
<path opacity="0.5" d="M85.1644 24.8699H15.0264L14.9004 23.7559H85.0364L85.1644 24.8699Z" fill="#EBEBEB"/>
<path opacity="0.5" d="M85.1644 26.2585H15.0264L14.9004 25.1445H85.0364L85.1644 26.2585Z" fill="#EBEBEB"/>
<path opacity="0.5" d="M85.1644 27.6472H15.0264L14.9004 26.5332H85.0364L85.1644 27.6472Z" fill="#EBEBEB"/>
<path opacity="0.5" d="M85.1644 29.0359H15.0264L14.9004 27.9219H85.0364L85.1644 29.0359Z" fill="#EBEBEB"/>
<path opacity="0.5" d="M85.1644 30.4265H15.0264L14.9004 29.3125H85.0364L85.1644 30.4265Z" fill="#EBEBEB"/>
<path opacity="0.5" d="M85.1644 31.8132H15.0264L14.9004 30.6992H85.0364L85.1644 31.8132Z" fill="#EBEBEB"/>
<path opacity="0.5" d="M85.1644 33.2038H15.0264L14.9004 32.0898H85.0364L85.1644 33.2038Z" fill="#EBEBEB"/>
<path opacity="0.5" d="M85.1644 34.5945H15.0264L14.9004 33.4785H85.0364L85.1644 34.5945Z" fill="#EBEBEB"/>
<path opacity="0.5" d="M85.1644 35.9812H15.0264L14.9004 34.8672H85.0364L85.1644 35.9812Z" fill="#EBEBEB"/>
<path d="M81.6343 65.6883H69.9663L68.8543 46.3663C68.845 46.2543 68.8594 46.1416 68.8966 46.0355C68.9337 45.9294 68.9928 45.8324 69.07 45.7507C69.1472 45.669 69.2407 45.6044 69.3445 45.5613C69.4483 45.5181 69.56 45.4974 69.6723 45.5003H79.6003C79.834 45.5028 80.0581 45.5933 80.2279 45.7539C80.3977 45.9144 80.5007 46.1331 80.5163 46.3663L81.6343 65.6883Z" fill="#E6E6E6"/>
<path d="M82.81 65.6882H71.144L70.032 46.3662C70.0228 46.2544 70.0371 46.1418 70.0741 46.0359C70.1112 45.93 70.1701 45.833 70.2471 45.7514C70.324 45.6697 70.4173 45.6051 70.5208 45.5619C70.6244 45.5186 70.7359 45.4976 70.848 45.5002H80.782C81.0157 45.5027 81.2398 45.5933 81.4096 45.7538C81.5795 45.9144 81.6824 46.1331 81.698 46.3662L82.81 65.6882Z" fill="#F5F5F5"/>
<path d="M71.3778 63.2773H79.4998V65.6773H70.5098V64.1333C70.5124 63.9051 70.6051 63.687 70.7676 63.5267C70.9302 63.3664 71.1495 63.2768 71.3778 63.2773Z" fill="#E6E6E6"/>
<path d="M77.7098 63.2773H88.0498C88.2795 63.2773 88.4997 63.3686 88.6622 63.531C88.8246 63.6934 88.9158 63.9137 88.9158 64.1433V65.6873H76.8418V64.1433C76.8418 64.0295 76.8643 63.9167 76.9079 63.8115C76.9516 63.7063 77.0155 63.6107 77.0961 63.5303C77.1768 63.4498 77.2725 63.3861 77.3778 63.3427C77.4831 63.2993 77.5959 63.2771 77.7098 63.2773Z" fill="#F5F5F5"/>
<path d="M70.7658 65.6875H69.9658V76.9795H70.7658V65.6875Z" fill="#E6E6E6"/>
<path d="M76.6379 65.6875H75.8379V76.9795H76.6379V65.6875Z" fill="#E6E6E6"/>
<path d="M82.8615 65.6875H82.0615V76.9795H82.8615V65.6875Z" fill="#E6E6E6"/>
<path d="M88.7316 65.6875H87.9316V76.9795H88.7316V65.6875Z" fill="#E6E6E6"/>
<path d="M66.6998 65.688H55.0338L53.9198 46.366C53.9123 46.2544 53.928 46.1425 53.9659 46.0373C54.0037 45.932 54.0629 45.8357 54.1397 45.7544C54.2165 45.6731 54.3092 45.6086 54.4122 45.5648C54.5151 45.521 54.6259 45.499 54.7378 45.5H64.6718C64.9053 45.503 65.1292 45.5937 65.2989 45.7542C65.4686 45.9146 65.5717 46.133 65.5878 46.366L66.6998 65.688Z" fill="#E6E6E6"/>
<path d="M67.8777 65.6881H56.2096L55.0976 46.3661C55.0899 46.2544 55.1054 46.1423 55.1431 46.037C55.1808 45.9316 55.24 45.8352 55.3169 45.7538C55.3937 45.6724 55.4866 45.6079 55.5897 45.5642C55.6927 45.5205 55.8037 45.4987 55.9156 45.5001H65.8476C66.0815 45.5025 66.3059 45.593 66.476 45.7535C66.6462 45.914 66.7496 46.1327 66.7656 46.3661L67.8777 65.6881Z" fill="#F5F5F5"/>
<path d="M56.4441 63.2773H64.5661V65.6773H55.5781V64.1333C55.5808 63.9054 55.6732 63.6877 55.8353 63.5274C55.9974 63.3672 56.2162 63.2773 56.4441 63.2773Z" fill="#E6E6E6"/>
<path d="M62.7762 63.2773H73.1162C73.3458 63.2773 73.5661 63.3686 73.7285 63.531C73.8909 63.6934 73.9822 63.9137 73.9822 64.1433V65.6873H61.9102V64.1433C61.9102 63.9137 62.0014 63.6934 62.1638 63.531C62.3262 63.3686 62.5465 63.2773 62.7762 63.2773Z" fill="#F5F5F5"/>
<path d="M55.8342 65.6875H55.0342V76.9795H55.8342V65.6875Z" fill="#E6E6E6"/>
<path d="M61.7043 65.6875H60.9043V76.9795H61.7043V65.6875Z" fill="#E6E6E6"/>
<path d="M67.9279 65.6875H67.1279V76.9795H67.9279V65.6875Z" fill="#E6E6E6"/>
<path d="M73.798 65.6875H72.998V76.9795H73.798V65.6875Z" fill="#E6E6E6"/>
<path d="M49.9997 86.0124C71.4162 86.0124 88.7777 84.9987 88.7777 83.7484C88.7777 82.498 71.4162 81.4844 49.9997 81.4844C28.5832 81.4844 11.2217 82.498 11.2217 83.7484C11.2217 84.9987 28.5832 86.0124 49.9997 86.0124Z" fill="#F5F5F5"/>
<path d="M17.7664 25.1621L17.5664 25.166L17.6594 29.9651L17.8594 29.9612L17.7664 25.1621Z" fill="#4F3ED7"/>
<path d="M17.8894 31.4981L17.6895 31.502L17.7294 33.5656L17.9294 33.5617L17.8894 31.4981Z" fill="#4F3ED7"/>
<path d="M57.2239 20.2773H18.1699L19.1979 73.6334H58.2519L57.2239 20.2773Z" fill="#4F3ED7"/>
<path opacity="0.8" d="M55.0763 22.0332H20.5703L21.5303 71.7472H56.0343L55.0763 22.0332Z" fill="white"/>
<path d="M55.0694 21.7832H20.5654L21.9674 71.4952H56.4734L55.0694 21.7832Z" fill="white"/>
<path opacity="0.2" d="M30.5762 31.9612L32.4262 26.4492C33.5691 26.8622 34.5622 27.6079 35.2776 28.5903C35.993 29.5727 36.3979 30.7467 36.4402 31.9612C36.4839 33.3259 36.0349 34.6607 35.1751 35.7213C34.3153 36.782 33.1023 37.4976 31.7582 37.7372L30.5762 31.9612Z" fill="#4F3ED7"/>
<path d="M30.5754 31.9616L31.7574 37.7376C31.4219 37.7959 31.082 37.8253 30.7414 37.8256C29.1755 37.8098 27.6757 37.1919 26.5531 36.1002C25.4304 35.0084 24.7709 33.5265 24.7114 31.9616C24.6892 31.1996 24.8202 30.4408 25.0966 29.7304C25.373 29.0199 25.7892 28.3721 26.3206 27.8255C26.8519 27.2788 27.4876 26.8444 28.19 26.5479C28.8923 26.2515 29.6471 26.099 30.4094 26.0996C31.0968 26.1003 31.7789 26.2201 32.4254 26.4536L30.5754 31.9616Z" fill="#4F3ED7"/>
<path opacity="0.2" d="M45.2001 31.9616L45.0541 26.0996C46.6163 26.1111 48.1136 26.7268 49.2321 27.8176C51.5721 30.0936 51.6781 33.8376 49.4661 36.1116C47.2541 38.3856 43.5121 38.3876 41.1721 36.1116C40.2992 35.2647 39.7013 34.1748 39.4561 32.9836L45.2001 31.9616Z" fill="#4F3ED7"/>
<path d="M45.2 31.9608L39.454 32.9788C39.2661 32.1113 39.284 31.2119 39.5063 30.3526C39.7286 29.4933 40.1492 28.698 40.7342 28.0305C41.3193 27.363 42.0526 26.8419 42.8753 26.5089C43.6981 26.1758 44.5874 26.0402 45.472 26.1128L45.2 31.9608Z" fill="#4F3ED7"/>
<path d="M52.412 66.9119H25.438L25.084 54.4239L25.298 54.4219L25.644 66.6979H52.406L52.412 66.9119Z" fill="#4F3ED7"/>
<path d="M52.4001 66.5625C52.464 66.563 52.5251 66.5883 52.5707 66.6331C52.6162 66.6779 52.6425 66.7386 52.6441 66.8025C52.6452 66.8338 52.6399 66.865 52.6286 66.8942C52.6173 66.9234 52.6002 66.95 52.5783 66.9725C52.5565 66.9949 52.5303 67.0127 52.5014 67.0247C52.4725 67.0367 52.4414 67.0428 52.4101 67.0425C52.3459 67.0425 52.2842 67.0174 52.2382 66.9726C52.1923 66.9277 52.1657 66.8667 52.1641 66.8025C52.1636 66.7712 52.1693 66.7401 52.1809 66.711C52.1925 66.6819 52.2098 66.6554 52.2318 66.633C52.2538 66.6107 52.28 66.5929 52.3088 66.5808C52.3377 66.5687 52.3688 66.5625 52.4001 66.5625Z" fill="#4F3ED7"/>
<path d="M25.4323 54.4314C25.4297 54.3673 25.4024 54.3068 25.3562 54.2624C25.31 54.2181 25.2484 54.1933 25.1843 54.1934C25.153 54.1936 25.1222 54.2001 25.0935 54.2125C25.0648 54.2249 25.0389 54.2429 25.0172 54.2654C24.9956 54.288 24.9787 54.3146 24.9676 54.3438C24.9564 54.373 24.9512 54.4041 24.9523 54.4354C24.9539 54.4994 24.9805 54.5602 25.0266 54.6047C25.0726 54.6493 25.1343 54.6739 25.1983 54.6734C25.2297 54.6734 25.2608 54.6671 25.2897 54.6548C25.3186 54.6426 25.3448 54.6246 25.3666 54.602C25.3885 54.5794 25.4055 54.5527 25.4168 54.5234C25.4281 54.494 25.4334 54.4628 25.4323 54.4314Z" fill="#4F3ED7"/>
<path d="M26.3854 66.0879L26.2314 65.9379L29.4174 62.6599H31.3214L32.1934 61.7639H34.9354L40.6654 55.8679H42.0174L43.9794 57.7759H45.1994L48.7834 54.0879H52.0494L52.0534 54.2999H48.8774L45.2934 57.9879H43.8954L41.9334 56.0799H40.7574L35.0274 61.9759H32.2854L31.4154 62.8739H29.5094L26.3854 66.0879Z" fill="#4F3ED7"/>
<path d="M26.4924 66.1737C26.4586 66.2079 26.4155 66.2312 26.3685 66.2408C26.3215 66.2504 26.2726 66.2458 26.2282 66.2276C26.1838 66.2094 26.1459 66.1784 26.1191 66.1385C26.0924 66.0986 26.0781 66.0517 26.0781 66.0037C26.0781 65.9557 26.0924 65.9088 26.1191 65.8689C26.1459 65.8291 26.1838 65.7981 26.2282 65.7798C26.2726 65.7616 26.3215 65.757 26.3685 65.7666C26.4155 65.7762 26.4586 65.7996 26.4924 65.8337C26.5371 65.879 26.5621 65.9401 26.5621 66.0037C26.5621 66.0674 26.5371 66.1284 26.4924 66.1737Z" fill="#4F3ED7"/>
<path d="M52.0458 54.4331C52.0771 54.4331 52.108 54.4269 52.1368 54.4148C52.1656 54.4026 52.1917 54.3849 52.2135 54.3625C52.2353 54.3401 52.2524 54.3136 52.2638 54.2845C52.2752 54.2554 52.2806 54.2244 52.2798 54.1931C52.2783 54.1293 52.252 54.0685 52.2064 54.0237C52.1609 53.979 52.0997 53.9536 52.0358 53.9531C52.0045 53.9531 51.9735 53.9594 51.9446 53.9715C51.9157 53.9836 51.8895 54.0013 51.8675 54.0237C51.8456 54.046 51.8283 54.0725 51.8166 54.1016C51.805 54.1307 51.7993 54.1618 51.7998 54.1931C51.8019 54.2572 51.8287 54.3179 51.8745 54.3626C51.9204 54.4074 51.9818 54.4326 52.0458 54.4331Z" fill="#4F3ED7"/>
<g opacity="0.2">
<path d="M26.3522 64.9063L26.1982 64.7563L30.0002 60.8423H33.1222L35.2382 62.9023H37.6042L39.6702 60.7743H42.3262L43.1922 59.8843H45.7542L47.5162 58.0703H48.3802L52.4022 61.9843L52.2562 62.1343L48.2962 58.2843H47.6082L45.8462 60.0983H43.2862L42.4202 60.9883H39.7622L37.6962 63.1143H35.1562L33.0382 61.0563H30.0942L26.3522 64.9063Z" fill="#4F3ED7"/>
<path d="M26.4582 64.9911C26.4246 65.0255 26.3815 65.0492 26.3344 65.059C26.2873 65.0688 26.2383 65.0644 26.1937 65.0462C26.1492 65.0281 26.111 64.9971 26.0842 64.9571C26.0573 64.9172 26.043 64.8702 26.043 64.8221C26.043 64.774 26.0573 64.7269 26.0842 64.687C26.111 64.6471 26.1492 64.6161 26.1937 64.5979C26.2383 64.5798 26.2873 64.5754 26.3344 64.5852C26.3815 64.595 26.4246 64.6186 26.4582 64.6531C26.4805 64.6752 26.4982 64.7015 26.5103 64.7305C26.5224 64.7595 26.5286 64.7907 26.5286 64.8221C26.5286 64.8535 26.5224 64.8846 26.5103 64.9136C26.4982 64.9426 26.4805 64.969 26.4582 64.9911Z" fill="#4F3ED7"/>
<path d="M52.1537 62.2224C52.1872 62.2552 52.2296 62.2774 52.2757 62.2862C52.3217 62.295 52.3693 62.29 52.4125 62.2719C52.4557 62.2537 52.4926 62.2232 52.5185 62.1842C52.5445 62.1451 52.5583 62.0993 52.5583 62.0525C52.5583 62.0056 52.5445 61.9598 52.5185 61.9207C52.4926 61.8817 52.4557 61.8512 52.4125 61.833C52.3693 61.8149 52.3217 61.8099 52.2757 61.8187C52.2296 61.8275 52.1872 61.8497 52.1537 61.8825C52.109 61.9277 52.084 61.9888 52.084 62.0525C52.084 62.1161 52.109 62.1772 52.1537 62.2224Z" fill="#4F3ED7"/>
</g>
<path d="M27.7662 44.2936H24.9062L24.8242 41.4336H27.6842L27.7662 44.2936Z" fill="#4F3ED7"/>
<path d="M42.4919 43.3817H29.4499L29.4199 42.3457H42.4619L42.4919 43.3817Z" fill="#E0E0E0"/>
<path d="M51.3778 43.3817H44.1218L44.0918 42.3457H51.3478L51.3778 43.3817Z" fill="#E0E0E0"/>
<path d="M37.0798 47.8934H29.5759L29.5479 46.8574H37.0499L37.0798 47.8934Z" fill="#E0E0E0"/>
<path d="M48.1577 47.8934H38.7097L38.6797 46.8574H48.1297L48.1577 47.8934Z" fill="#E0E0E0"/>
<path opacity="0.2" d="M27.8921 48.8053H25.0321L24.9521 45.9453H27.8121L27.8921 48.8053Z" fill="#4F3ED7"/>
</g>
<defs>
<clipPath id="clip0_1946_19581">
<rect width="100" height="100" fill="white" transform="translate(0 0.5)"/>
</clipPath>
</defs>
</svg>
