<svg width="250" height="250" viewBox="0 0 250 250" fill="none" xmlns="http://www.w3.org/2000/svg">
<path d="M48.9996 194.125C92.7296 216.97 163.635 216.97 207.365 194.125C251.095 171.28 251.095 134.24 207.365 111.39C163.635 88.5395 92.7496 88.5445 48.9996 111.39C5.24965 134.235 5.28965 171.28 48.9996 194.125Z" fill="#F5F5F5"/>
<path d="M36.8097 156.66L22.5947 148.455V117.965L36.8097 126.175V156.66Z" fill="#E0E0E0"/>
<path d="M36.8096 126.174L57.1196 114.449V144.934L36.8096 156.659V126.174Z" fill="#EBEBEB"/>
<path d="M57.1197 114.448L36.8097 126.173L22.5947 117.963L42.9047 106.238L57.1197 114.448Z" fill="#F5F5F5"/>
<path d="M38.8448 127.345L55.0898 117.965L55.4648 118.18V129.475L39.2148 138.855L38.8398 138.64L38.8448 127.345Z" fill="#E0E0E0"/>
<path d="M39.2148 127.565L55.4648 118.18V129.475L39.2148 138.855V127.565Z" fill="#F5F5F5"/>
<path d="M45.5846 125.799L48.3496 124.204C48.7046 123.994 48.9946 124.089 48.9946 124.414C48.9688 124.613 48.8971 124.803 48.7852 124.97C48.6733 125.136 48.5241 125.274 48.3496 125.374L45.5846 126.969C45.2246 127.179 44.9346 127.084 44.9346 126.759C44.9605 126.559 45.0328 126.368 45.1456 126.201C45.2585 126.035 45.4088 125.897 45.5846 125.799Z" fill="#E0E0E0"/>
<path d="M38.4697 141.634L54.7147 132.254V143.549L55.0897 143.764L38.8397 153.144L38.4697 152.929V141.634Z" fill="#E0E0E0"/>
<path d="M38.8398 141.849L55.0898 132.469V143.764L38.8398 153.144V141.849Z" fill="#F5F5F5"/>
<path d="M45.21 140.088L48 138.498C48.36 138.288 48.65 138.383 48.65 138.708C48.624 138.908 48.5518 139.099 48.4389 139.266C48.326 139.432 48.1757 139.57 48 139.668L45.235 141.263C44.875 141.473 44.585 141.378 44.585 141.053C44.6074 140.855 44.6756 140.665 44.784 140.497C44.8925 140.33 45.0383 140.19 45.21 140.088Z" fill="#E0E0E0"/>
<path d="M36.8097 124.414L22.5947 116.204V85.7188L36.8097 93.9238V124.414Z" fill="#E0E0E0"/>
<path d="M36.8096 93.9242L57.1196 82.1992V112.689L36.8096 124.414V93.9242Z" fill="#EBEBEB"/>
<path d="M57.1197 82.1991L36.8097 93.9241L22.5947 85.7191L42.9047 73.9941L57.1197 82.1991Z" fill="#F5F5F5"/>
<path d="M38.8398 95.0987L55.0898 85.7188L55.4648 85.9337V97.2288L39.2148 106.609L38.8398 106.389V95.0987Z" fill="#E0E0E0"/>
<path d="M45.5846 93.5487L48.3446 91.9537C48.7046 91.7487 48.9946 91.8437 48.9946 92.1687C48.9679 92.3681 48.8953 92.5586 48.7825 92.7252C48.6697 92.8918 48.5198 93.0299 48.3446 93.1287L45.5846 94.7237C45.2246 94.9287 44.9346 94.8387 44.9346 94.5137C44.9609 94.3136 45.0333 94.1222 45.1461 93.9548C45.2589 93.7873 45.409 93.6484 45.5846 93.5487Z" fill="#E0E0E0"/>
<path d="M38.4697 109.39L54.7147 100.01V111.3L55.0897 111.515L38.8397 120.895L38.4697 120.68V109.39Z" fill="#E0E0E0"/>
<path d="M38.8398 109.605L55.0898 100.225V111.515L38.8398 120.895V109.605Z" fill="#F5F5F5"/>
<path d="M45.2096 107.84L47.9996 106.245C48.3546 106.04 48.6496 106.135 48.6496 106.46C48.6214 106.659 48.5482 106.849 48.4356 107.015C48.323 107.181 48.1738 107.32 47.9996 107.42L45.2096 109C44.8496 109.205 44.5596 109.11 44.5596 108.79C44.5881 108.592 44.6615 108.404 44.7742 108.239C44.8869 108.075 45.0358 107.938 45.2096 107.84Z" fill="#E0E0E0"/>
<path d="M38.8398 95.0987L55.0898 85.7188V97.0088L38.8398 106.389V95.0987Z" fill="#E0E0E0"/>
<path d="M63.2143 91.2991L54.3193 86.1641V96.1141L63.2143 101.244V91.2991Z" fill="#E0E0E0"/>
<path d="M44.9346 107.999V93.9237L48.4196 91.9037L48.9946 92.7537L59.1496 86.8887V99.7887L44.9346 107.999Z" fill="#EBEBEB"/>
<path d="M44.9346 107.999L45.9496 95.6835L60.1646 87.4785L59.1496 99.7885L44.9346 107.999Z" fill="#F5F5F5"/>
<path d="M46.9648 100.68L39.2148 96.2051V106.155L46.9648 110.625V100.68Z" fill="#EBEBEB"/>
<path d="M46.9648 99.7882L63.2148 90.4082V101.698L46.9648 111.078V99.7882Z" fill="#F5F5F5"/>
<path d="M53.3346 98.0234L56.0946 96.4283C56.4546 96.2233 56.7446 96.3183 56.7446 96.6433C56.7175 96.8426 56.6448 97.033 56.532 97.1995C56.4193 97.366 56.2696 97.5042 56.0946 97.6034L53.3346 99.1983C52.9746 99.4033 52.6846 99.3083 52.6846 98.9883C52.7109 98.7882 52.7833 98.5968 52.8961 98.4294C53.0089 98.262 53.159 98.123 53.3346 98.0234Z" fill="#E0E0E0"/>
<path d="M46.9648 99.7885L46.4248 99.4785V110.769L46.9648 111.079V99.7885Z" fill="#E0E0E0"/>
<path d="M46.4248 99.4788L62.6698 90.0938L63.2148 90.4088L46.9648 99.7887L46.4248 99.4788Z" fill="#EBEBEB"/>
<path d="M204.749 138.189L190.529 129.979V99.4941L204.749 107.699V138.189Z" fill="#E0E0E0"/>
<path d="M204.75 107.7L225.06 95.9746V126.465L204.75 138.19V107.7Z" fill="#EBEBEB"/>
<path d="M225.059 95.9737L204.749 107.699L190.529 99.4937L210.844 87.7637L225.059 95.9737Z" fill="#F5F5F5"/>
<path d="M206.779 108.874L223.029 99.4941L223.404 99.7091L223.399 110.999L207.154 120.379L206.779 120.164V108.874Z" fill="#E0E0E0"/>
<path d="M207.154 109.089L223.404 99.709L223.399 110.999L207.154 120.379V109.089Z" fill="#F5F5F5"/>
<path d="M213.525 107.324L216.285 105.729C216.645 105.524 216.935 105.619 216.935 105.939C216.909 106.14 216.836 106.331 216.723 106.498C216.611 106.666 216.461 106.805 216.285 106.904L213.525 108.499C213.165 108.704 212.875 108.609 212.875 108.289C212.901 108.089 212.974 107.898 213.087 107.73C213.199 107.563 213.349 107.424 213.525 107.324Z" fill="#E0E0E0"/>
<path d="M206.404 123.164L222.654 113.779V125.074L223.029 125.289L206.779 134.669L206.404 134.454V123.164Z" fill="#E0E0E0"/>
<path d="M206.779 123.38L223.029 114V125.29L206.779 134.67V123.38Z" fill="#F5F5F5"/>
<path d="M213.15 121.613L215.915 120.018C216.27 119.813 216.56 119.908 216.56 120.228C216.533 120.428 216.462 120.619 216.35 120.786C216.238 120.953 216.089 121.093 215.915 121.193L213.15 122.788C212.79 122.993 212.5 122.898 212.5 122.573C212.527 122.374 212.6 122.184 212.713 122.017C212.825 121.851 212.975 121.713 213.15 121.613Z" fill="#E0E0E0"/>
<path d="M69.5003 170.054C69.5003 170.054 69.5553 162.124 64.5553 156.179C60.1303 150.914 57.7753 147.574 59.1703 146.034C60.5653 144.494 63.5653 144.124 67.6103 148.384C71.6553 152.644 71.9703 164.444 71.4103 167.114L69.5003 170.054Z" fill="#4F3ED7"/>
<path opacity="0.2" d="M69.5003 170.054C69.5003 170.054 69.5553 162.124 64.5553 156.179C60.1303 150.914 57.7753 147.574 59.1703 146.034C60.5653 144.494 63.5653 144.124 67.6103 148.384C71.6553 152.644 71.9703 164.444 71.4103 167.114L69.5003 170.054Z" fill="black"/>
<path d="M70.3402 161.531C70.2833 161.531 70.228 161.512 70.1834 161.477C70.1389 161.441 70.1078 161.392 70.0952 161.336C68.3452 153.151 63.8552 148.626 61.3302 146.656C61.278 146.616 61.2439 146.556 61.2354 146.491C61.227 146.425 61.2449 146.359 61.2852 146.306C61.3267 146.254 61.3871 146.219 61.4535 146.211C61.5199 146.203 61.587 146.221 61.6402 146.261C64.2152 148.261 68.8002 152.891 70.5852 161.231C70.5926 161.263 70.5934 161.296 70.5878 161.328C70.5822 161.361 70.5701 161.391 70.5524 161.419C70.5347 161.446 70.5117 161.47 70.4847 161.488C70.4577 161.507 70.4273 161.52 70.3952 161.526L70.3402 161.531Z" fill="white"/>
<path d="M69.3104 173L67.2754 174.175C67.0583 173.582 66.6922 173.055 66.2123 172.644C65.7324 172.233 65.1549 171.953 64.5354 171.83C62.3104 171.33 60.0004 171.415 58.4404 169.485C56.8804 167.555 58.7804 165.455 58.4404 164.035C58.1004 162.615 57.8804 162.205 55.0904 160.785C52.3004 159.365 51.2004 157.01 53.3004 155.415C55.4004 153.82 58.8004 154.99 60.8604 156.415C62.6904 157.665 64.4304 157.995 66.4754 158.25C68.5204 158.505 71.8504 159.64 71.3404 164.39C71.0064 167.33 70.325 170.22 69.3104 173Z" fill="#4F3ED7"/>
<path d="M61.5006 166.76C61.4473 166.759 61.3955 166.742 61.3525 166.711C61.3094 166.679 61.2773 166.635 61.2606 166.585C61.2416 166.521 61.2483 166.453 61.2791 166.394C61.3099 166.335 61.3625 166.29 61.4256 166.27C61.6056 166.215 65.9256 164.845 67.7606 166.315C67.8061 166.358 67.8339 166.416 67.8383 166.479C67.8428 166.541 67.8237 166.603 67.7847 166.652C67.7457 166.701 67.6898 166.734 67.6279 166.743C67.566 166.753 67.5027 166.739 67.4506 166.705C65.8306 165.405 61.6206 166.735 61.5756 166.75L61.5006 166.76Z" fill="white"/>
<path d="M69.5353 172.621C69.4744 172.621 69.4156 172.599 69.3703 172.558C69.325 172.518 69.2965 172.461 69.2903 172.401C68.1753 161.871 55.4903 156.876 55.3653 156.826C55.3343 156.814 55.3059 156.797 55.2818 156.774C55.2577 156.751 55.2383 156.724 55.2248 156.694C55.2113 156.664 55.204 156.631 55.2032 156.598C55.2024 156.565 55.2082 156.532 55.2203 156.501C55.2448 156.44 55.2918 156.392 55.3513 156.365C55.4109 156.338 55.4785 156.334 55.5403 156.356C55.6753 156.411 68.6403 161.511 69.7853 172.356C69.7923 172.422 69.7731 172.487 69.7319 172.539C69.6907 172.59 69.6308 172.623 69.5653 172.631L69.5353 172.621Z" fill="white"/>
<path d="M193.9 166.085C193.955 165.91 196.1 154.87 193.9 147.04C191.9 139.86 189.29 137.21 185.57 136.625C181.85 136.04 180.235 138.72 182.21 142.35C184.185 145.98 188.94 150.795 190.105 158.905C190.605 162.245 190.985 165.145 190.985 165.145L193.9 166.085Z" fill="#4F3ED7"/>
<path opacity="0.2" d="M193.9 166.085C193.955 165.91 196.1 154.87 193.9 147.04C191.9 139.86 189.29 137.21 185.57 136.625C181.85 136.04 180.235 138.72 182.21 142.35C184.185 145.98 188.94 150.795 190.105 158.905C190.605 162.245 190.985 165.145 190.985 165.145L193.9 166.085Z" fill="black"/>
<path d="M192.645 159.745C192.612 159.743 192.58 159.735 192.551 159.721C192.521 159.706 192.495 159.686 192.473 159.662C192.451 159.637 192.434 159.608 192.423 159.577C192.413 159.546 192.408 159.513 192.41 159.48C192.91 150.54 189.99 142.56 184.755 138.645C184.702 138.606 184.667 138.546 184.658 138.481C184.648 138.415 184.665 138.348 184.705 138.295C184.746 138.243 184.805 138.209 184.87 138.2C184.935 138.191 185.002 138.207 185.055 138.245C190.42 142.245 193.43 150.405 192.905 159.51C192.901 159.576 192.872 159.637 192.823 159.681C192.775 159.725 192.711 159.748 192.645 159.745Z" fill="white"/>
<path d="M199.656 171.835C199.371 169.78 200.551 166.7 203.356 165.97C206.161 165.24 207.411 163.63 206.401 161.87C205.391 160.11 205.626 158.495 208.171 157.765C210.716 157.035 212.946 155.765 211.481 153.075C210.416 151.13 210.181 149.87 212.791 146.04C214.956 142.86 213.186 140.995 210.476 141.345C207.766 141.695 206.091 144.925 204.396 145.465C202.701 146.005 202.311 143.125 200.076 144.415C197.841 145.705 197.976 149.01 197.906 151.315C197.836 153.62 197.686 154.14 195.666 153.86C193.646 153.58 191.666 153.91 191.711 158.795C191.746 162.985 193.981 168.175 193.981 168.175L199.656 171.835Z" fill="#4F3ED7"/>
<path d="M196.111 168.71H196.086C196.019 168.703 195.958 168.669 195.916 168.617C195.873 168.564 195.854 168.497 195.861 168.43C197.271 155.835 208.081 145.21 210.901 143.055C210.954 143.015 211.021 142.997 211.087 143.006C211.153 143.015 211.213 143.05 211.253 143.103C211.294 143.156 211.311 143.223 211.303 143.289C211.294 143.355 211.259 143.415 211.206 143.455C208.421 145.58 197.751 156.065 196.361 168.485C196.353 168.547 196.324 168.604 196.278 168.645C196.232 168.686 196.173 168.71 196.111 168.71Z" fill="white"/>
<path d="M201.041 155.246C200.99 155.245 200.941 155.23 200.899 155.201C200.857 155.173 200.825 155.133 200.806 155.086C200.784 155.022 200.788 154.954 200.816 154.893C200.844 154.833 200.894 154.785 200.956 154.761C204.986 153.261 209.556 153.971 209.751 154.001C209.816 154.012 209.873 154.048 209.912 154.101C209.95 154.154 209.966 154.221 209.956 154.286C209.944 154.35 209.907 154.408 209.855 154.447C209.802 154.486 209.736 154.503 209.671 154.496C209.626 154.496 205.036 153.776 201.131 155.231C201.102 155.24 201.071 155.245 201.041 155.246Z" fill="white"/>
<path d="M197.451 162.815C197.416 162.815 197.381 162.807 197.349 162.792C197.317 162.778 197.289 162.757 197.266 162.73C195.59 160.779 194.454 158.422 193.971 155.895C193.966 155.863 193.967 155.83 193.975 155.798C193.983 155.766 193.997 155.736 194.017 155.709C194.036 155.683 194.061 155.66 194.089 155.643C194.117 155.626 194.148 155.615 194.181 155.61C194.213 155.605 194.246 155.607 194.278 155.615C194.31 155.623 194.34 155.637 194.367 155.656C194.393 155.676 194.416 155.7 194.433 155.728C194.45 155.757 194.461 155.788 194.466 155.82C194.944 158.248 196.037 160.512 197.641 162.395C197.672 162.432 197.692 162.477 197.699 162.525C197.705 162.573 197.698 162.621 197.679 162.665C197.659 162.709 197.627 162.747 197.586 162.773C197.546 162.8 197.499 162.814 197.451 162.815Z" fill="white"/>
<path d="M69.3096 95.6149V173.005L148.52 127.275L148.515 56.9199L89.6196 90.9249L87.5846 85.0599L69.3096 95.6149Z" fill="#4F3ED7"/>
<path opacity="0.7" d="M69.3096 95.6149V173.005L148.52 127.275L148.515 56.9199L89.6196 90.9249L87.5846 85.0599L69.3096 95.6149Z" fill="black"/>
<path d="M69.3096 173.005L73.3696 102.65L152.58 56.9199L148.52 127.275L69.3096 173.005Z" fill="#E0E0E0"/>
<path d="M69.3096 173.005L75.3996 103.825L154.61 58.0898L148.52 127.275L69.3096 173.005Z" fill="#4F3ED7"/>
<path opacity="0.7" d="M69.3096 173.005L75.3996 103.825L154.61 58.0898L148.52 127.275L69.3096 173.005Z" fill="black"/>
<path d="M81.4951 102.65V180.045L160.705 134.31V63.9551L101.805 97.9601L99.7751 92.0951L81.4951 102.65Z" fill="#4F3ED7"/>
<path opacity="0.5" d="M81.4951 102.65V180.045L160.705 134.31V63.9551L101.805 97.9601L99.7751 92.0951L81.4951 102.65Z" fill="black"/>
<path d="M81.4951 180.045L85.5551 109.685L164.765 63.9551L160.705 134.31L81.4951 180.045Z" fill="#E0E0E0"/>
<path d="M81.4951 180.045L87.5851 110.86L166.795 65.125L160.705 134.31L81.4951 180.045Z" fill="#4F3ED7"/>
<path opacity="0.5" d="M81.4951 180.045L87.5851 110.86L166.795 65.125L160.705 134.31L81.4951 180.045Z" fill="black"/>
<path d="M148.5 204.67C134.28 196.46 121.09 187.535 115.07 177.065L133.37 166.5L148.5 204.67Z" fill="#E0E0E0"/>
<path d="M95.71 110.861V188.251L174.92 142.521V72.166L116.02 106.171L113.99 100.306L95.71 110.861Z" fill="#4F3ED7"/>
<path opacity="0.2" d="M95.71 110.861V188.251L174.92 142.521V72.166L116.02 106.171L113.99 100.306L95.71 110.861Z" fill="black"/>
<path d="M118.53 133.741C118.33 133.741 118.3 133.511 118.3 133.376V67.3756C118.316 67.1196 118.391 66.8708 118.519 66.6487C118.648 66.4266 118.826 66.2373 119.04 66.0956L176.21 33.0956C176.288 33.0468 176.378 33.0192 176.47 33.0156C176.67 33.0156 176.7 33.2456 176.7 33.3806V99.3806C176.684 99.6374 176.609 99.8871 176.481 100.11C176.352 100.333 176.174 100.523 175.96 100.666L118.79 133.666C118.711 133.712 118.621 133.738 118.53 133.741Z" fill="white"/>
<path d="M176.44 33.2451C176.444 33.2816 176.444 33.3185 176.44 33.3551V99.3551C176.423 99.5679 176.359 99.7745 176.253 99.9596C176.147 100.145 176 100.304 175.825 100.425L118.655 133.425L118.555 133.47C118.548 133.434 118.548 133.396 118.555 133.36V67.3601C118.572 67.1481 118.636 66.9425 118.742 66.7584C118.849 66.5742 118.995 66.4159 119.17 66.2951L176.34 33.2951C176.371 33.273 176.407 33.2577 176.445 33.2501M176.475 32.7501C176.339 32.7541 176.206 32.7938 176.09 32.8651L118.92 65.8651C118.668 66.0302 118.459 66.2519 118.309 66.5123C118.159 66.7728 118.072 67.0649 118.055 67.3651V133.365C118.055 133.755 118.25 133.98 118.555 133.98C118.691 133.976 118.824 133.937 118.94 133.865L176.11 100.865C176.362 100.701 176.572 100.48 176.722 100.219C176.873 99.9583 176.959 99.6657 176.975 99.3651V33.3651C176.975 32.9751 176.78 32.7451 176.475 32.7501Z" fill="#4F3ED7"/>
<path opacity="0.7" d="M176.44 33.2451C176.444 33.2816 176.444 33.3185 176.44 33.3551V99.3551C176.423 99.5679 176.359 99.7745 176.253 99.9596C176.147 100.145 176 100.304 175.825 100.425L118.655 133.425L118.555 133.47C118.548 133.434 118.548 133.396 118.555 133.36V67.3601C118.572 67.1481 118.636 66.9425 118.742 66.7584C118.849 66.5742 118.995 66.4159 119.17 66.2951L176.34 33.2951C176.371 33.273 176.407 33.2577 176.445 33.2501M176.475 32.7501C176.339 32.7541 176.206 32.7938 176.09 32.8651L118.92 65.8651C118.668 66.0302 118.459 66.2519 118.309 66.5123C118.159 66.7728 118.072 67.0649 118.055 67.3651V133.365C118.055 133.755 118.25 133.98 118.555 133.98C118.691 133.976 118.824 133.937 118.94 133.865L176.11 100.865C176.362 100.701 176.572 100.48 176.722 100.219C176.873 99.9583 176.959 99.6657 176.975 99.3651V33.3651C176.975 32.9751 176.78 32.7451 176.475 32.7501Z" fill="white"/>
<path d="M124.145 69.8793L144.455 58.1543V81.6043L124.145 93.3293V69.8793Z" fill="#4F3ED7"/>
<path opacity="0.8" d="M124.145 69.8793L144.455 58.1543V81.6043L124.145 93.3293V69.8793Z" fill="white"/>
<path d="M141.41 64V71.05L140.77 71.405V69.25C140.77 68.06 139.805 67.655 138.605 68.345L130 73.32C128.805 74.01 127.835 75.535 127.835 76.725V78.88L127.2 79.26V72.225L141.41 64Z" fill="white"/>
<path d="M137.5 81.95C136.46 82.55 135.615 81.92 135.615 80.535V69.25L133 70.67V82.045C133 83.425 132.155 85.045 131.115 85.63L129.225 86.72V87.47L139.38 81.605V80.86L137.5 81.95Z" fill="white"/>
<path d="M148.5 57.0005C148.5 57.6505 149.085 57.8355 149.8 57.4255L169.56 46.0005C169.911 45.8018 170.21 45.5246 170.436 45.1906C170.662 44.8566 170.807 44.475 170.86 44.0755C170.86 43.4305 170.275 43.2405 169.56 43.6555L149.815 55.0555C149.459 55.2539 149.154 55.5333 148.925 55.8711C148.697 56.209 148.551 56.5959 148.5 57.0005Z" fill="#455A64"/>
<path d="M148.5 64.0009C148.5 64.6509 149.085 64.8409 149.8 64.4259L169.545 53.0259C169.896 52.8272 170.195 52.55 170.421 52.216C170.647 51.882 170.792 51.5004 170.845 51.1009C170.845 50.4559 170.26 50.2659 169.545 50.6809L149.8 62.0809C149.45 62.2791 149.151 62.5556 148.925 62.8886C148.7 63.2217 148.554 63.6024 148.5 64.0009Z" fill="#455A64"/>
<path d="M148.5 71.0495C148.5 71.6995 149.085 71.8895 149.8 71.4745L169.545 60.0745C169.895 59.8763 170.194 59.5999 170.42 59.2668C170.645 58.9337 170.791 58.5531 170.845 58.1545C170.845 57.5045 170.26 57.3145 169.545 57.7295L149.8 69.1295C149.45 69.3277 149.151 69.6042 148.925 69.9372C148.7 70.2703 148.554 70.651 148.5 71.0495Z" fill="#455A64"/>
<path d="M148.5 78.0847C148.5 78.7347 149.085 78.9247 149.8 78.5097L169.545 67.1097C169.895 66.9114 170.194 66.635 170.42 66.302C170.645 65.9689 170.791 65.5882 170.845 65.1897C170.845 64.5397 170.26 64.3497 169.545 64.7647L149.8 76.1647C149.45 76.3629 149.151 76.6393 148.925 76.9724C148.7 77.3054 148.554 77.6861 148.5 78.0847Z" fill="#455A64"/>
<path d="M124.145 99.1942C124.145 99.8442 124.725 100.034 125.445 99.6192L169.56 74.1192C169.91 73.9216 170.21 73.6453 170.435 73.3121C170.661 72.9789 170.806 72.598 170.86 72.1992C170.86 71.5492 170.275 71.3642 169.56 71.7742L125.445 97.2742C125.094 97.4715 124.794 97.7477 124.568 98.0809C124.343 98.4141 124.198 98.7953 124.145 99.1942Z" fill="#455A64"/>
<path d="M124.145 106.229C124.145 106.879 124.725 107.069 125.445 106.654L169.56 81.1841C169.91 80.9854 170.21 80.7082 170.435 80.3742C170.661 80.0402 170.806 79.6586 170.86 79.2591C170.86 78.6141 170.275 78.4241 169.56 78.8391L125.445 104.309C125.094 104.506 124.794 104.783 124.568 105.116C124.343 105.449 124.198 105.83 124.145 106.229Z" fill="#455A64"/>
<path d="M124.145 113.269C124.145 113.914 124.725 114.104 125.445 113.689L169.56 88.2193C169.91 88.0206 170.21 87.7433 170.435 87.4094C170.661 87.0754 170.806 86.6937 170.86 86.2943C170.86 85.6493 170.275 85.4593 169.56 85.8743L125.445 111.344C125.093 111.542 124.793 111.819 124.567 112.153C124.341 112.487 124.197 112.869 124.145 113.269Z" fill="#455A64"/>
<path d="M95.71 188.249L109.925 126.104L189.135 80.3691L174.92 142.519L95.71 188.249Z" fill="#4F3ED7"/>
<path d="M115.09 130.97V177.065L133.37 166.51V120.42L115.09 130.97Z" fill="#4F3ED7"/>
<path opacity="0.2" d="M115.09 130.97V177.065L133.37 166.51V120.42L115.09 130.97Z" fill="black"/>
<path d="M148.535 204.37C146.98 203.21 131.99 191.755 124.37 175.37C116.26 157.95 116.27 137.63 116.27 129.985V129.745L170.61 98.375C170.61 106.09 170.61 126.44 178.755 143.92C186.2 159.92 200.615 171.23 202.9 172.96L148.535 204.37Z" fill="white"/>
<path d="M170.36 98.8242C170.36 106.864 170.515 126.824 178.53 144.044C185.725 159.494 199.405 170.604 202.45 172.949L148.55 204.069C146.445 202.484 132.02 191.219 124.6 175.284C116.5 157.914 116.5 137.634 116.5 129.999V129.904L170.34 98.8192M170.84 97.9542L116 129.619C116 136.814 115.85 157.719 124.125 175.494C132.27 192.939 148.5 204.669 148.5 204.669L203.355 172.999C203.355 172.999 187.105 161.269 178.985 143.824C170.705 126.049 170.86 105.144 170.86 97.9492L170.84 97.9542Z" fill="#4F3ED7"/>
<path opacity="0.7" d="M170.36 98.8242C170.36 106.864 170.515 126.824 178.53 144.044C185.725 159.494 199.405 170.604 202.45 172.949L148.55 204.069C146.445 202.484 132.02 191.219 124.6 175.284C116.5 157.914 116.5 137.634 116.5 129.999V129.904L170.34 98.8192M170.84 97.9542L116 129.619C116 136.814 115.85 157.719 124.125 175.494C132.27 192.939 148.5 204.669 148.5 204.669L203.355 172.999C203.355 172.999 187.105 161.269 178.985 143.824C170.705 126.049 170.86 105.144 170.86 97.9492L170.84 97.9542Z" fill="white"/>
<path d="M164.655 108.576L147.315 118.576C146.968 118.767 146.672 119.039 146.452 119.369C146.233 119.699 146.097 120.077 146.055 120.471C146.08 121.106 146.685 121.286 147.4 120.871L164.745 110.871C165.088 110.681 165.38 110.413 165.599 110.088C165.817 109.763 165.955 109.39 166 109.001C165.97 108.341 165.375 108.161 164.655 108.576Z" fill="#455A64"/>
<path d="M165.025 115.4L147.685 125.4C147.342 125.584 147.051 125.853 146.839 126.179C146.628 126.506 146.502 126.881 146.475 127.27C146.53 127.885 147.16 128.05 147.875 127.635L165.22 117.635C165.561 117.451 165.85 117.184 166.059 116.857C166.268 116.531 166.39 116.157 166.415 115.77C166.365 115.15 165.745 115 165.025 115.4Z" fill="#455A64"/>
<path d="M165.72 122.034L148.375 132.034C147.66 132.449 147.14 133.274 147.225 133.869C147.31 134.464 147.965 134.619 148.685 134.204L166.03 124.204C166.745 123.789 167.255 122.969 167.165 122.374C167.075 121.779 166.435 121.619 165.72 122.034Z" fill="#455A64"/>
<path d="M166.76 128.469L149.415 138.469C148.7 138.884 148.205 139.694 148.325 140.274C148.445 140.854 149.125 140.984 149.825 140.569L167.165 130.569C167.885 130.154 168.365 129.349 168.245 128.769C168.125 128.189 167.5 128.054 166.76 128.469Z" fill="#455A64"/>
<path d="M168.17 134.691L150.825 144.691C150.11 145.106 149.645 145.896 149.825 146.451C150.005 147.006 150.69 147.131 151.405 146.716L168.75 136.716C169.47 136.301 169.92 135.516 169.75 134.956C169.58 134.396 168.885 134.276 168.17 134.691Z" fill="#455A64"/>
<path d="M170 140.686L127.73 165.091C127.015 165.506 126.58 166.276 126.775 166.811C126.97 167.346 127.715 167.446 128.43 167.031L170.7 142.626C171.42 142.211 171.835 141.446 171.64 140.906C171.445 140.366 170.69 140.271 170 140.686Z" fill="#455A64"/>
<path d="M172.225 146.41L129.96 170.815C129.24 171.23 128.845 171.98 129.085 172.49C129.325 173 130.085 173.08 130.815 172.665L173.085 148.26C173.805 147.845 174.19 147.095 173.95 146.585C173.71 146.075 172.945 146 172.225 146.41Z" fill="#455A64"/>
<path d="M175 151.864L132.73 176.269C132.01 176.684 131.655 177.414 131.94 177.899C132.225 178.384 133.04 178.434 133.76 178.019L176 153.614C176.715 153.204 177.06 152.479 176.775 151.994C176.49 151.509 175.7 151.449 175 151.864Z" fill="#455A64"/>
<path d="M178.235 157.026L135.97 181.426C135.25 181.841 134.93 182.556 135.255 183.011C135.58 183.466 136.435 183.511 137.155 183.091L179.42 158.686C180.14 158.271 180.45 157.566 180.125 157.106C179.8 156.646 178.955 156.611 178.235 157.026Z" fill="#455A64"/>
<path d="M181.925 161.93L139.655 186.33C138.94 186.745 138.655 187.44 139.015 187.875C139.375 188.31 140.26 188.33 140.98 187.915L183.25 163.5C183.965 163.085 184.25 162.4 183.88 161.965C183.51 161.53 182.645 161.5 181.925 161.93Z" fill="#455A64"/>
<path d="M186 166.601L143.745 191.001C143.025 191.416 142.745 192.096 143.165 192.501C143.585 192.906 144.475 192.916 145.19 192.501L187.46 168.096C188.18 167.681 188.43 167.011 188.03 166.596C187.63 166.181 186.73 166.191 186 166.601Z" fill="#455A64"/>
<path d="M190.5 171.065L148.23 195.465C147.515 195.88 147.28 196.545 147.73 196.94C148.18 197.335 149.1 197.32 149.82 196.905L192.055 172.5C192.77 172.085 192.995 171.435 192.555 171.035C192.115 170.635 191.2 170.65 190.5 171.065Z" fill="#455A64"/>
<path d="M141.03 122.221L121.09 133.721C121.31 140.946 122.135 151.366 125.155 161.861L145.1 150.361C142.075 139.866 141.25 129.441 141.03 122.221Z" fill="#4F3ED7"/>
<path opacity="0.8" d="M141.03 122.221L121.09 133.721C121.31 140.946 122.135 151.366 125.155 161.861L145.1 150.361C142.075 139.866 141.25 129.441 141.03 122.221Z" fill="white"/>
<path d="M129.22 132.13C129.247 131.663 129.174 131.196 129.007 130.76C128.84 130.324 128.582 129.928 128.25 129.6L121.09 133.73C121.15 135.64 121.25 137.775 121.425 140.075C122.356 140.182 123.298 140.008 124.13 139.575C126.945 138.285 129.22 134.94 129.22 132.13Z" fill="#4F3ED7"/>
<path opacity="0.6" d="M129.22 132.13C129.247 131.663 129.174 131.196 129.007 130.76C128.84 130.324 128.582 129.928 128.25 129.6L121.09 133.73C121.15 135.64 121.25 137.775 121.425 140.075C122.356 140.182 123.298 140.008 124.13 139.575C126.945 138.285 129.22 134.94 129.22 132.13Z" fill="white"/>
<path d="M143.405 143.46C142.075 141.785 139.37 136.61 138.215 134.355C138.17 134.266 138.099 134.193 138.011 134.144C137.924 134.096 137.824 134.075 137.724 134.084C137.624 134.093 137.53 134.132 137.452 134.196C137.375 134.259 137.319 134.344 137.29 134.44C136.041 138.711 135.315 143.119 135.13 147.565C133.465 146.243 132.033 144.651 130.895 142.855C130.847 142.786 130.779 142.731 130.701 142.699C130.623 142.666 130.537 142.657 130.453 142.671C130.37 142.686 130.292 142.724 130.229 142.782C130.167 142.839 130.122 142.913 130.1 142.995C127.92 151.39 129.015 159.65 129.015 159.65L145.1 150.36C144.43 148.04 143.875 145.73 143.405 143.46Z" fill="#4F3ED7"/>
<path opacity="0.6" d="M143.405 143.46C142.075 141.785 139.37 136.61 138.215 134.355C138.17 134.266 138.099 134.193 138.011 134.144C137.924 134.096 137.824 134.075 137.724 134.084C137.624 134.093 137.53 134.132 137.452 134.196C137.375 134.259 137.319 134.344 137.29 134.44C136.041 138.711 135.315 143.119 135.13 147.565C133.465 146.243 132.033 144.651 130.895 142.855C130.847 142.786 130.779 142.731 130.701 142.699C130.623 142.666 130.537 142.657 130.453 142.671C130.37 142.686 130.292 142.724 130.229 142.782C130.167 142.839 130.122 142.913 130.1 142.995C127.92 151.39 129.015 159.65 129.015 159.65L145.1 150.36C144.43 148.04 143.875 145.73 143.405 143.46Z" fill="white"/>
</svg>
