<svg width="33" height="33" viewBox="0 0 33 33" fill="none" xmlns="http://www.w3.org/2000/svg">
<path d="M15.125 6.875H28.875M15.125 12.375H22" stroke="#262058" stroke-width="2" stroke-linecap="round" stroke-linejoin="round"/>
<path d="M8.25 6.875H5.5C4.74061 6.875 4.125 7.49061 4.125 8.25V11C4.125 11.7594 4.74061 12.375 5.5 12.375H8.25C9.00939 12.375 9.625 11.7594 9.625 11V8.25C9.625 7.49061 9.00939 6.875 8.25 6.875Z" stroke="#262058" stroke-width="2" stroke-linecap="round" stroke-linejoin="round"/>
<path d="M15.125 20.625H28.875M15.125 26.125H22" stroke="#262058" stroke-width="2" stroke-linecap="round" stroke-linejoin="round"/>
<path d="M8.25 20.625H5.5C4.74061 20.625 4.125 21.2406 4.125 22V24.75C4.125 25.5094 4.74061 26.125 5.5 26.125H8.25C9.00939 26.125 9.625 25.5094 9.625 24.75V22C9.625 21.2406 9.00939 20.625 8.25 20.625Z" stroke="#262058" stroke-width="2" stroke-linecap="round" stroke-linejoin="round"/>
</svg>
