<svg width="30" height="30" viewBox="0 0 30 30" fill="none" xmlns="http://www.w3.org/2000/svg">
<path d="M3.75 3.75H26.25" stroke="#33363F" stroke-width="2" stroke-linecap="round"/>
<path d="M6.25 3.75H23.75V22.4006C23.75 22.4373 23.75 22.4556 23.7459 22.4729C23.7422 22.4882 23.7361 22.5028 23.7279 22.5162C23.7186 22.5314 23.7056 22.5444 23.6797 22.5703L20.0703 26.1797C20.0444 26.2056 20.0314 26.2186 20.0162 26.2279C20.0028 26.2361 19.9882 26.2422 19.9729 26.2459C19.9556 26.25 19.9373 26.25 19.9006 26.25H9.45C8.3299 26.25 7.76984 26.25 7.34202 26.032C6.96569 25.8403 6.65973 25.5343 6.46799 25.158C6.25 24.7302 6.25 24.1701 6.25 23.05V3.75Z" stroke="#33363F" stroke-width="2" stroke-linecap="round"/>
<path d="M17.5 26.25V20.15C17.5 20.0672 17.5672 20 17.65 20H23.75" stroke="#33363F" stroke-width="2" stroke-linecap="round"/>
<path d="M15 16.25V8.75" stroke="#33363F" stroke-width="2" stroke-linecap="round"/>
<path d="M11.25 12.5L14.8939 8.85607C14.9525 8.79749 15.0475 8.79749 15.1061 8.85607L18.75 12.5" stroke="#33363F" stroke-width="2" stroke-linecap="round"/>
</svg>
