<svg width="36" height="36" viewBox="0 0 36 36" fill="none" xmlns="http://www.w3.org/2000/svg">
<circle cx="18" cy="18" r="15" fill="#787AE8" stroke="white" stroke-opacity="0.29" stroke-width="6"/>
<path d="M12.655 23.075C11.875 23.075 11.165 22.925 10.525 22.625C9.895 22.315 9.35 21.905 8.89 21.395C8.44 20.885 8.09 20.31 7.84 19.67C7.59 19.02 7.465 18.355 7.465 17.675C7.465 16.965 7.595 16.29 7.855 15.65C8.125 15 8.49 14.425 8.95 13.925C9.42 13.415 9.97 13.015 10.6 12.725C11.24 12.425 11.94 12.275 12.7 12.275C13.47 12.275 14.17 12.43 14.8 12.74C15.44 13.05 15.985 13.465 16.435 13.985C16.885 14.505 17.235 15.085 17.485 15.725C17.735 16.365 17.86 17.025 17.86 17.705C17.86 18.405 17.73 19.08 17.47 19.73C17.21 20.37 16.845 20.945 16.375 21.455C15.915 21.955 15.365 22.35 14.725 22.64C14.095 22.93 13.405 23.075 12.655 23.075ZM12.67 21.245C13.17 21.245 13.615 21.145 14.005 20.945C14.395 20.735 14.72 20.46 14.98 20.12C15.24 19.77 15.435 19.385 15.565 18.965C15.705 18.535 15.775 18.105 15.775 17.675C15.775 17.215 15.7 16.77 15.55 16.34C15.41 15.91 15.205 15.53 14.935 15.2C14.675 14.87 14.35 14.605 13.96 14.405C13.58 14.205 13.15 14.105 12.67 14.105C12.16 14.105 11.71 14.21 11.32 14.42C10.94 14.62 10.62 14.895 10.36 15.245C10.1 15.585 9.9 15.965 9.76 16.385C9.63 16.805 9.565 17.235 9.565 17.675C9.565 18.135 9.635 18.58 9.775 19.01C9.915 19.44 10.115 19.82 10.375 20.15C10.645 20.48 10.97 20.745 11.35 20.945C11.74 21.145 12.18 21.245 12.67 21.245ZM12.46 19.055H14.41L17.92 23H15.97L12.46 19.055ZM18.7882 17.6C18.7882 16.95 18.9032 16.315 19.1332 15.695C19.3732 15.065 19.7182 14.495 20.1682 13.985C20.6182 13.465 21.1682 13.055 21.8182 12.755C22.4682 12.445 23.2082 12.29 24.0382 12.29C25.0182 12.29 25.8632 12.505 26.5732 12.935C27.2932 13.365 27.8282 13.925 28.1782 14.615L26.5882 15.71C26.4082 15.31 26.1732 14.995 25.8832 14.765C25.5932 14.525 25.2832 14.36 24.9532 14.27C24.6232 14.17 24.2982 14.12 23.9782 14.12C23.4582 14.12 23.0032 14.225 22.6132 14.435C22.2332 14.645 21.9132 14.92 21.6532 15.26C21.3932 15.6 21.1982 15.98 21.0682 16.4C20.9482 16.82 20.8882 17.24 20.8882 17.66C20.8882 18.13 20.9632 18.585 21.1132 19.025C21.2632 19.455 21.4732 19.84 21.7432 20.18C22.0232 20.51 22.3532 20.775 22.7332 20.975C23.1232 21.165 23.5482 21.26 24.0082 21.26C24.3382 21.26 24.6732 21.205 25.0132 21.095C25.3532 20.985 25.6682 20.81 25.9582 20.57C26.2482 20.33 26.4732 20.02 26.6332 19.64L28.3282 20.615C28.1182 21.145 27.7732 21.595 27.2932 21.965C26.8232 22.335 26.2932 22.615 25.7032 22.805C25.1132 22.995 24.5282 23.09 23.9482 23.09C23.1882 23.09 22.4932 22.935 21.8632 22.625C21.2332 22.305 20.6882 21.885 20.2282 21.365C19.7782 20.835 19.4232 20.245 19.1632 19.595C18.9132 18.935 18.7882 18.27 18.7882 17.6Z" fill="white"/>
</svg>
