<svg width="44" height="44" viewBox="0 0 44 44" fill="none" xmlns="http://www.w3.org/2000/svg">
<g filter="url(#filter0_d_433_8194)">
<circle cx="22" cy="18" r="15" fill="#FA0707" stroke="#FA0707" stroke-opacity="0.5" stroke-width="6"/>
<path d="M16.655 23.075C15.875 23.075 15.165 22.925 14.525 22.625C13.895 22.315 13.35 21.905 12.89 21.395C12.44 20.885 12.09 20.31 11.84 19.67C11.59 19.02 11.465 18.355 11.465 17.675C11.465 16.965 11.595 16.29 11.855 15.65C12.125 15 12.49 14.425 12.95 13.925C13.42 13.415 13.97 13.015 14.6 12.725C15.24 12.425 15.94 12.275 16.7 12.275C17.47 12.275 18.17 12.43 18.8 12.74C19.44 13.05 19.985 13.465 20.435 13.985C20.885 14.505 21.235 15.085 21.485 15.725C21.735 16.365 21.86 17.025 21.86 17.705C21.86 18.405 21.73 19.08 21.47 19.73C21.21 20.37 20.845 20.945 20.375 21.455C19.915 21.955 19.365 22.35 18.725 22.64C18.095 22.93 17.405 23.075 16.655 23.075ZM16.67 21.245C17.17 21.245 17.615 21.145 18.005 20.945C18.395 20.735 18.72 20.46 18.98 20.12C19.24 19.77 19.435 19.385 19.565 18.965C19.705 18.535 19.775 18.105 19.775 17.675C19.775 17.215 19.7 16.77 19.55 16.34C19.41 15.91 19.205 15.53 18.935 15.2C18.675 14.87 18.35 14.605 17.96 14.405C17.58 14.205 17.15 14.105 16.67 14.105C16.16 14.105 15.71 14.21 15.32 14.42C14.94 14.62 14.62 14.895 14.36 15.245C14.1 15.585 13.9 15.965 13.76 16.385C13.63 16.805 13.565 17.235 13.565 17.675C13.565 18.135 13.635 18.58 13.775 19.01C13.915 19.44 14.115 19.82 14.375 20.15C14.645 20.48 14.97 20.745 15.35 20.945C15.74 21.145 16.18 21.245 16.67 21.245ZM16.46 19.055H18.41L21.92 23H19.97L16.46 19.055ZM22.7882 17.6C22.7882 16.95 22.9032 16.315 23.1332 15.695C23.3732 15.065 23.7182 14.495 24.1682 13.985C24.6182 13.465 25.1682 13.055 25.8182 12.755C26.4682 12.445 27.2082 12.29 28.0382 12.29C29.0182 12.29 29.8632 12.505 30.5732 12.935C31.2932 13.365 31.8282 13.925 32.1782 14.615L30.5882 15.71C30.4082 15.31 30.1732 14.995 29.8832 14.765C29.5932 14.525 29.2832 14.36 28.9532 14.27C28.6232 14.17 28.2982 14.12 27.9782 14.12C27.4582 14.12 27.0032 14.225 26.6132 14.435C26.2332 14.645 25.9132 14.92 25.6532 15.26C25.3932 15.6 25.1982 15.98 25.0682 16.4C24.9482 16.82 24.8882 17.24 24.8882 17.66C24.8882 18.13 24.9632 18.585 25.1132 19.025C25.2632 19.455 25.4732 19.84 25.7432 20.18C26.0232 20.51 26.3532 20.775 26.7332 20.975C27.1232 21.165 27.5482 21.26 28.0082 21.26C28.3382 21.26 28.6732 21.205 29.0132 21.095C29.3532 20.985 29.6682 20.81 29.9582 20.57C30.2482 20.33 30.4732 20.02 30.6332 19.64L32.3282 20.615C32.1182 21.145 31.7732 21.595 31.2932 21.965C30.8232 22.335 30.2932 22.615 29.7032 22.805C29.1132 22.995 28.5282 23.09 27.9482 23.09C27.1882 23.09 26.4932 22.935 25.8632 22.625C25.2332 22.305 24.6882 21.885 24.2282 21.365C23.7782 20.835 23.4232 20.245 23.1632 19.595C22.9132 18.935 22.7882 18.27 22.7882 17.6Z" fill="white"/>
</g>
<defs>
<filter id="filter0_d_433_8194" x="0" y="0" width="44" height="44" filterUnits="userSpaceOnUse" color-interpolation-filters="sRGB">
<feFlood flood-opacity="0" result="BackgroundImageFix"/>
<feColorMatrix in="SourceAlpha" type="matrix" values="0 0 0 0 0 0 0 0 0 0 0 0 0 0 0 0 0 0 127 0" result="hardAlpha"/>
<feOffset dy="4"/>
<feGaussianBlur stdDeviation="2"/>
<feComposite in2="hardAlpha" operator="out"/>
<feColorMatrix type="matrix" values="0 0 0 0 0 0 0 0 0 0 0 0 0 0 0 0 0 0 0.25 0"/>
<feBlend mode="normal" in2="BackgroundImageFix" result="effect1_dropShadow_433_8194"/>
<feBlend mode="normal" in="SourceGraphic" in2="effect1_dropShadow_433_8194" result="shape"/>
</filter>
</defs>
</svg>
