<svg width="30" height="30" viewBox="0 0 30 30" fill="none" xmlns="http://www.w3.org/2000/svg">
<path d="M15 23.3333C15.4722 23.3333 15.8683 23.1733 16.1883 22.8533C16.5083 22.5333 16.6678 22.1378 16.6667 21.6667C16.6667 21.1944 16.5067 20.7983 16.1867 20.4783C15.8667 20.1583 15.4711 19.9989 15 20C14.5278 20 14.1317 20.16 13.8117 20.48C13.4917 20.8 13.3322 21.1956 13.3333 21.6667C13.3333 22.1389 13.4933 22.535 13.8133 22.855C14.1333 23.175 14.5289 23.3344 15 23.3333ZM13.3333 16.6667H16.6667V6.66667H13.3333V16.6667ZM8.75 30L0 21.25V8.75L8.75 0H21.25L30 8.75V21.25L21.25 30H8.75Z" fill="#FA0707"/>
</svg>
