<svg width="30" height="30" viewBox="0 0 30 30" fill="none" xmlns="http://www.w3.org/2000/svg">
<path d="M3.125 6.325C3.125 5.2049 3.125 4.64484 3.34299 4.21702C3.53473 3.84069 3.84069 3.53473 4.21702 3.34299C4.64484 3.125 5.2049 3.125 6.325 3.125H23.675C24.7951 3.125 25.3552 3.125 25.783 3.34299C26.1593 3.53473 26.4653 3.84069 26.657 4.21702C26.875 4.64484 26.875 5.2049 26.875 6.325V23.675C26.875 24.7951 26.875 25.3552 26.657 25.783C26.4653 26.1593 26.1593 26.4653 25.783 26.657C25.3552 26.875 24.7951 26.875 23.675 26.875H6.325C5.2049 26.875 4.64484 26.875 4.21702 26.657C3.84069 26.4653 3.53473 26.1593 3.34299 25.783C3.125 25.3552 3.125 24.7951 3.125 23.675V6.325Z" stroke="white" stroke-linecap="round"/>
<path d="M15.625 18.7868C15.625 21.5703 12.7781 23.4994 11.6773 24.1413C11.411 24.2966 11.089 24.2966 10.8227 24.1413C9.72189 23.4994 6.875 21.5703 6.875 18.7868C6.875 16.1397 8.99484 14.375 11.25 14.375C13.5833 14.375 15.625 16.1397 15.625 18.7868Z" stroke="white"/>
<path d="M23.125 26.875L15.625 8.125" stroke="white"/>
<path d="M26.875 5.625L3.125 10.625" stroke="white"/>
<circle cx="11.25" cy="18.75" r="1.25" fill="white"/>
</svg>
