<svg width="30" height="30" viewBox="0 0 30 30" fill="none" xmlns="http://www.w3.org/2000/svg">
<circle cx="15" cy="10" r="3.25" stroke="white" stroke-linecap="round"/>
<path d="M17.1017 8.0625C17.3613 7.61288 17.7484 7.25033 18.214 7.02071C18.6796 6.79108 19.2029 6.70469 19.7176 6.77246C20.2324 6.84022 20.7154 7.0591 21.1058 7.40142C21.4961 7.74374 21.7762 8.19411 21.9106 8.6956C22.0449 9.19709 22.0276 9.72716 21.8607 10.2188C21.6938 10.7104 21.3849 11.1415 20.973 11.4576C20.5611 11.7736 20.0647 11.9604 19.5467 11.9944C19.0286 12.0283 18.5121 11.9079 18.0625 11.6483" stroke="white"/>
<path d="M12.8983 8.0625C12.6387 7.61288 12.2516 7.25033 11.786 7.02071C11.3204 6.79108 10.7971 6.70469 10.2824 6.77246C9.76763 6.84022 9.28455 7.0591 8.89422 7.40142C8.50388 7.74374 8.22382 8.19411 8.08945 8.6956C7.95507 9.19709 7.97243 9.72716 8.13931 10.2188C8.30619 10.7104 8.61511 11.1415 9.027 11.4576C9.43889 11.7736 9.93525 11.9604 10.4533 11.9944C10.9714 12.0283 11.4879 11.9079 11.9375 11.6483" stroke="white"/>
<path d="M15 15.625C20.3061 15.625 21.517 20.0925 21.7933 22.1315C21.8675 22.6788 21.4273 23.125 20.875 23.125H9.125C8.57271 23.125 8.13254 22.6788 8.20671 22.1315C8.48304 20.0925 9.69393 15.625 15 15.625Z" stroke="white" stroke-linecap="round"/>
<path d="M24.1843 19.5394L23.6967 19.6498L23.6967 19.6498L24.1843 19.5394ZM16.3584 15.7324L15.9892 15.3953L15.3687 16.0748L16.2764 16.2256L16.3584 15.7324ZM21.4762 20.625L20.9959 20.764L21.1003 21.125H21.4762V20.625ZM19.3745 14.875C20.7738 14.875 21.7381 15.5974 22.4239 16.5734C23.1194 17.5632 23.5001 18.7811 23.6967 19.6498L24.672 19.429C24.4635 18.5078 24.0466 17.1435 23.2422 15.9985C22.428 14.8399 21.19 13.875 19.3745 13.875V14.875ZM16.7276 16.0695C17.3725 15.3632 18.2219 14.875 19.3745 14.875V13.875C17.894 13.875 16.7894 14.5188 15.9892 15.3953L16.7276 16.0695ZM16.2764 16.2256C19.2207 16.7149 20.4622 18.9192 20.9959 20.764L21.9565 20.486C21.3737 18.4717 19.9341 15.8197 16.4404 15.2392L16.2764 16.2256ZM23.2695 20.125H21.4762V21.125H23.2695V20.125ZM23.6967 19.6498C23.7483 19.8778 23.5787 20.125 23.2695 20.125V21.125C24.1436 21.125 24.8816 20.355 24.672 19.429L23.6967 19.6498Z" fill="white"/>
<path d="M13.6415 15.7324L13.7234 16.2256L14.6311 16.0748L14.0107 15.3953L13.6415 15.7324ZM5.81552 19.5394L5.32786 19.429L5.32786 19.429L5.81552 19.5394ZM8.52372 20.625V21.125H8.89957L9.00402 20.764L8.52372 20.625ZM10.6254 14.875C11.778 14.875 12.6274 15.3632 13.2722 16.0695L14.0107 15.3953C13.2105 14.5188 12.1059 13.875 10.6254 13.875V14.875ZM6.30319 19.6498C6.49978 18.7811 6.88047 17.5632 7.57594 16.5734C8.26177 15.5974 9.22612 14.875 10.6254 14.875V13.875C8.80987 13.875 7.57186 14.8399 6.75773 15.9985C5.95323 17.1435 5.53636 18.5078 5.32786 19.429L6.30319 19.6498ZM6.73034 20.125C6.42118 20.125 6.25158 19.8778 6.30319 19.6498L5.32786 19.429C5.11827 20.355 5.85626 21.125 6.73034 21.125V20.125ZM8.52372 20.125H6.73034V21.125H8.52372V20.125ZM9.00402 20.764C9.53773 18.9192 10.7791 16.7149 13.7234 16.2256L13.5595 15.2392C10.0658 15.8197 8.62619 18.4717 8.04341 20.486L9.00402 20.764Z" fill="white"/>
</svg>
