<svg width="30" height="30" viewBox="0 0 30 30" fill="none" xmlns="http://www.w3.org/2000/svg">
<mask id="mask0_1620_23041" style="mask-type:luminance" maskUnits="userSpaceOnUse" x="0" y="0" width="30" height="30">
<path d="M0 0H30V30H0V0Z" fill="white"/>
<path fill-rule="evenodd" clip-rule="evenodd" d="M18.6908 4.86941L7.06233 16.4979C6.8885 16.6713 6.77451 16.8956 6.73695 17.1383L5.92348 22.439C5.89603 22.6181 5.91112 22.801 5.96751 22.9732C6.02391 23.1453 6.12004 23.3017 6.24811 23.4298C6.37619 23.5579 6.53261 23.654 6.70473 23.7104C6.87685 23.7668 7.05984 23.7819 7.23887 23.7544L12.5408 22.941C12.7833 22.9037 13.0076 22.7901 13.1812 22.6167L24.8096 10.9883C25.026 10.7719 25.1475 10.4784 25.1475 10.1725C25.1475 9.86653 25.026 9.5731 24.8096 9.35672L20.3212 4.86826C20.1048 4.6523 19.8117 4.53101 19.506 4.53101C19.2003 4.53101 18.9071 4.65345 18.6908 4.86941ZM8.44348 21.2356L8.96041 17.8617L19.5066 7.31557L22.3623 10.1725L11.8162 20.7186L8.44348 21.2356Z" fill="black"/>
<path d="M16.6641 9.51589L17.8871 8.29166L21.6279 12.0301L20.4037 13.2544L16.6641 9.51589Z" fill="black"/>
</mask>
<g mask="url(#mask0_1620_23041)">
<path d="M15 30C23.2843 30 30 23.2843 30 15C30 6.71573 23.2843 0 15 0C6.71573 0 0 6.71573 0 15C0 23.2843 6.71573 30 15 30Z" fill="#D97159"/>
</g>
</svg>
