<svg width="30" height="30" viewBox="0 0 30 30" fill="none" xmlns="http://www.w3.org/2000/svg">
<path d="M15 0C12.0333 0 9.13319 0.879735 6.66645 2.52796C4.19971 4.17618 2.27713 6.51886 1.14181 9.25975C0.00649927 12.0006 -0.290551 15.0166 0.288228 17.9264C0.867006 20.8361 2.29562 23.5088 4.3934 25.6066C6.49119 27.7044 9.16394 29.133 12.0736 29.7118C14.9834 30.2906 17.9994 29.9935 20.7403 28.8582C23.4811 27.7229 25.8238 25.8003 27.472 23.3335C29.1203 20.8668 30 17.9667 30 15C29.9958 11.023 28.4141 7.21017 25.602 4.39804C22.7898 1.5859 18.977 0.00419974 15 0ZM15 24.2308C14.6577 24.2308 14.3231 24.1293 14.0384 23.9391C13.7538 23.7489 13.532 23.4786 13.401 23.1623C13.27 22.8461 13.2357 22.4981 13.3025 22.1623C13.3693 21.8266 13.5341 21.5182 13.7762 21.2762C14.0182 21.0341 14.3266 20.8693 14.6623 20.8025C14.9981 20.7357 15.3461 20.77 15.6623 20.901C15.9786 21.032 16.2489 21.2538 16.4391 21.5384C16.6293 21.8231 16.7308 22.1577 16.7308 22.5C16.7308 22.959 16.5484 23.3993 16.2238 23.7238C15.8993 24.0484 15.459 24.2308 15 24.2308ZM16.1538 17.2038V17.3077C16.1538 17.6137 16.0323 17.9072 15.8159 18.1236C15.5995 18.34 15.306 18.4615 15 18.4615C14.694 18.4615 14.4005 18.34 14.1841 18.1236C13.9677 17.9072 13.8462 17.6137 13.8462 17.3077V16.1538C13.8462 15.8478 13.9677 15.5543 14.1841 15.3379C14.4005 15.1216 14.694 15 15 15C16.9082 15 18.4615 13.7019 18.4615 12.1154C18.4615 10.5288 16.9082 9.23077 15 9.23077C13.0918 9.23077 11.5385 10.5288 11.5385 12.1154V12.6923C11.5385 12.9983 11.4169 13.2918 11.2005 13.5082C10.9841 13.7246 10.6906 13.8462 10.3846 13.8462C10.0786 13.8462 9.78512 13.7246 9.56873 13.5082C9.35234 13.2918 9.23077 12.9983 9.23077 12.6923V12.1154C9.23077 9.2524 11.8183 6.92308 15 6.92308C18.1817 6.92308 20.7692 9.2524 20.7692 12.1154C20.7692 14.6221 18.7846 16.7207 16.1538 17.2038Z" fill="#4F3ED7"/>
</svg>
